<svg width="313" height="335" viewBox="0 0 313 335" fill="none" xmlns="http://www.w3.org/2000/svg">
<path d="M137.72 131.831C137.539 131.831 137.448 131.831 137.266 131.734L98.7991 107.929C98.4362 107.638 98.2548 107.152 98.5269 106.666C98.7991 106.277 99.2527 106.083 99.7064 106.375L138.174 130.179C138.537 130.471 138.718 130.957 138.446 131.443C138.355 131.637 138.083 131.831 137.72 131.831Z" fill="#2ECC71"/>
<path d="M67.4084 185.853C67.2269 185.853 67.1362 185.853 66.9548 185.756L0.453623 144.268C0.181449 144.074 0 143.782 0 143.393C0 143.005 0.181449 142.713 0.453623 142.519L61.4205 107.055C61.8742 106.763 62.4185 106.958 62.6907 107.443C62.9629 107.929 62.7814 108.512 62.3278 108.804L2.72174 143.393L67.862 184.007C68.3156 184.299 68.4063 184.882 68.2249 185.368C67.9527 185.756 67.6805 185.853 67.4084 185.853Z" fill="#2ECC71"/>
<path d="M148.607 62.2629L220.733 106.86C222.729 108.124 224.271 106.763 224.271 103.946V60.7083C224.271 57.8906 222.638 54.587 220.733 53.4211L148.607 8.82347C146.611 7.56035 145.069 8.92063 145.069 11.7383V54.9757C145.069 57.7934 146.702 61.0969 148.607 62.2629Z" fill="url(#paint0_linear_3016_262)"/>
<path d="M212.93 234.046L106.873 168.461C106.057 167.976 105.603 167.101 105.603 166.13C105.603 165.158 106.057 164.283 106.873 163.798L172.739 123.087L173.284 122.795L284.331 191.489C285.147 191.975 285.601 192.849 285.601 193.821C285.601 194.793 285.147 195.667 284.331 196.153L223.001 234.046C221.459 235.018 219.735 235.504 218.011 235.504C216.287 235.504 214.473 235.018 212.93 234.046ZM107.962 165.741C107.781 165.838 107.781 166.032 107.781 166.13C107.781 166.227 107.781 166.421 107.962 166.518L214.019 232.103C216.469 233.658 219.553 233.658 222.003 232.103L283.424 194.112C283.605 194.015 283.605 193.821 283.605 193.724C283.605 193.627 283.605 193.432 283.424 193.335L173.375 125.321L107.962 165.741Z" fill="#2ECC71"/>
<path d="M173.193 95.6867L187.981 1.82776L186.802 1.24479L188.616 0.175998C188.979 -0.115489 189.433 -0.0183246 189.977 0.273163L308.101 73.2421C309.099 73.8251 309.824 75.3797 309.643 76.4485L294.764 171.085C294.673 171.571 294.492 171.862 294.129 172.056L292.405 173.125L292.133 171.376H292.224L174.826 98.7959C173.738 98.3101 173.012 96.7555 173.193 95.6867Z" fill="#1E7742"/>
<path d="M307.375 75.8655L309.28 74.9911C309.462 75.4769 309.643 76.0599 309.552 76.5457L294.674 171.182C294.583 171.668 294.401 171.959 294.038 172.154L292.315 173.222L292.042 171.473H292.133L286.236 167.781L307.375 75.8655Z" fill="#0F632D"/>
<path d="M172.83 100.06L290.954 173.029C291.861 173.612 292.677 173.223 292.768 172.252L307.647 77.6154C307.828 76.5466 307.103 74.992 306.105 74.409L188.072 1.44005C187.165 0.857071 186.348 1.24572 186.258 2.21735L171.379 96.8536C171.197 97.9224 171.923 99.477 172.83 100.06Z" fill="#38E57E"/>
<g opacity="0.51">
<path opacity="0.51" d="M189.614 7.46326L303.474 77.8089L289.321 167.004L175.552 96.6584L189.614 7.46326Z" fill="#041860"/>
</g>
<path d="M98.6172 144.851L105.059 148.446L169.655 108.512C170.743 107.832 172.648 107.929 173.828 108.706L285.238 177.595C286.326 176.915 291.135 174.486 291.135 174.486L288.776 181.093C288.685 181.384 288.504 181.676 288.141 181.87L220.097 223.941C219.009 224.621 217.104 224.524 215.924 223.747L101.883 153.207C101.339 152.915 101.067 152.527 100.885 152.138L98.6172 144.851Z" fill="#1E7742"/>
<path d="M99.6155 146.017L216.56 218.306C217.83 219.083 219.735 219.18 220.914 218.5L290.682 175.36C291.77 174.68 291.68 173.514 290.409 172.639L173.556 100.35C172.286 99.5731 170.381 99.476 169.201 100.156L99.4341 143.296C98.2546 143.976 98.3454 145.24 99.6155 146.017Z" fill="#2A9E59"/>
<path d="M99.6155 145.24L216.56 217.529C217.83 218.306 219.735 218.403 220.914 217.723L290.682 174.583C291.044 174.388 291.226 174.097 291.317 173.805C291.498 174.388 291.317 174.971 290.682 175.36L220.914 218.5C219.826 219.18 217.83 219.083 216.56 218.306L99.7062 146.017C98.8897 145.531 98.5268 144.754 98.7083 144.171C98.799 144.559 99.0712 144.948 99.6155 145.24Z" fill="#DDDDDD"/>
<path d="M251.761 202.663V201.302C251.761 201.205 251.67 201.108 251.579 201.205L247.043 204.023C246.952 204.12 246.862 204.217 246.862 204.314V205.675C246.862 205.772 246.952 205.869 247.043 205.772L251.579 202.954C251.67 202.857 251.761 202.76 251.761 202.663Z" fill="#1C7540"/>
<path d="M245.047 206.841V205.48C245.047 205.383 244.956 205.286 244.866 205.383L240.329 208.201C240.239 208.298 240.148 208.395 240.148 208.492V209.853C240.148 209.95 240.239 210.047 240.329 209.95L244.866 207.132C244.956 207.132 245.047 206.938 245.047 206.841Z" fill="#1C7540"/>
<path d="M272.446 171.279L175.28 111.233C174.645 110.844 173.828 110.844 173.193 111.233L138.627 132.706C138.173 132.997 138.173 133.774 138.627 134.066L235.702 194.112C236.337 194.501 237.154 194.501 237.789 194.112L272.446 172.737C272.899 172.348 272.899 171.571 272.446 171.279Z" fill="#2ECC71"/>
<path d="M272.446 172.639L272.083 172.834L175.28 112.982C174.645 112.593 173.828 112.593 173.193 112.982L138.99 134.163L138.627 133.969C138.173 133.677 138.173 132.9 138.627 132.608L173.193 111.136C173.828 110.747 174.645 110.747 175.28 111.136L272.446 171.182C272.899 171.571 272.899 172.348 272.446 172.639Z" fill="#1E7742"/>
<path d="M170.562 116.674L254.936 168.85L258.656 166.518L174.282 114.342L170.562 116.674Z" fill="#1C7540"/>
<path d="M161.399 122.309L240.511 171.279L244.231 168.947L165.119 119.977L161.399 122.309Z" fill="#1C7540"/>
<path d="M155.411 126.001L248.585 183.619L252.305 181.384L159.131 123.767L155.411 126.001Z" fill="#1C7540"/>
<path d="M149.423 129.791L242.597 187.408L246.317 185.076L153.143 127.459L149.423 129.791Z" fill="#1C7540"/>
<path d="M143.435 133.483L236.61 191.1L240.329 188.768L147.155 131.151L143.435 133.483Z" fill="#1C7540"/>
<path d="M260.017 171.959L263.827 174.291L267.547 171.959L263.827 169.627L260.017 171.959Z" fill="#1C7540"/>
<path d="M246.771 175.166L254.573 180.024L258.384 177.692L250.581 172.834L246.771 175.166Z" fill="#1C7540"/>
<path d="M171.56 185.853L145.341 169.627C144.343 168.947 144.343 167.976 145.341 167.295L163.213 156.219C164.211 155.539 165.935 155.539 166.933 156.219L193.153 172.445C194.151 173.125 194.151 174.097 193.153 174.777L175.28 185.853C174.191 186.436 172.558 186.436 171.56 185.853Z" fill="#3EED85"/>
<path d="M193.153 173.417L166.933 157.191C165.935 156.51 164.211 156.51 163.213 157.191L145.341 168.267C145.069 168.462 144.796 168.656 144.706 168.947C144.433 168.364 144.615 167.781 145.341 167.296L163.213 156.219C164.211 155.539 165.935 155.539 166.933 156.219L193.153 172.445C193.878 172.931 194.06 173.514 193.788 174.097C193.697 173.806 193.425 173.611 193.153 173.417Z" fill="#1E7742"/>
<g opacity="0.2">
<path d="M173.284 100.253L290.137 172.542C291.407 173.319 293.313 173.417 294.492 172.736L302.294 122.309C304.109 111.621 306.377 97.5328 307.284 92.1888L247.134 54.5869C245.864 53.8096 243.958 53.7124 242.779 54.3926L173.012 97.5327C171.832 98.2128 172.014 99.476 173.284 100.253Z" fill="url(#paint1_linear_3016_262)"/>
<path d="M290.5 113.176L264.281 96.9498C263.283 96.2696 263.283 95.298 264.281 94.6179L282.153 83.5414C283.151 82.8612 284.875 82.8612 285.873 83.5414L300.933 92.6747C300.026 99.4761 298.665 107.735 298.212 110.65L294.22 113.176C293.222 113.856 291.498 113.856 290.5 113.176Z" fill="url(#paint2_linear_3016_262)"/>
<path d="M300.933 93.6462L285.873 84.513C284.875 83.8328 283.151 83.8328 282.153 84.513L264.281 95.5894C264.009 95.7837 263.736 95.978 263.646 96.2695C263.373 95.6866 263.555 95.1036 264.281 94.6178L282.153 83.5413C283.151 82.8612 284.875 82.8612 285.873 83.5413L301.387 93.1604C301.387 93.1604 301.206 93.0632 300.933 93.6462C300.843 93.4519 301.296 93.8405 300.933 93.6462Z" fill="#9198DB"/>
<path d="M295.944 123.281L226.539 78.3916C225.904 78.0029 225.088 78.0029 224.453 78.3916L189.887 99.8645C189.433 100.156 189.433 100.933 189.887 101.225L286.962 161.271C287.597 161.66 288.414 161.66 289.049 161.271L295.49 129.111C295.944 128.819 295.49 125.224 295.944 123.281Z" fill="#ADB1F2"/>
<path d="M296.397 122.309V123.281L226.539 80.2377C225.904 79.849 225.088 79.849 224.453 80.2377L190.249 101.419L189.887 101.225C189.433 100.933 189.433 100.156 189.887 99.8646L224.453 78.3916C225.088 78.0029 225.904 78.0029 226.539 78.3916L296.397 121.338C296.942 121.629 296.942 122.018 296.397 122.309Z" fill="#9198DB"/>
<path d="M198.868 98.4073L283.514 150.681L280.157 152.818L195.511 100.448L198.868 98.4073Z" fill="#24126A"/>
<path d="M207.759 92.8689L288.232 142.616L284.875 144.657L204.402 95.0065L207.759 92.8689Z" fill="#24126A"/>
<path d="M213.384 89.4681L293.675 139.313L293.222 143.199L210.027 91.5086L213.384 89.4681Z" fill="#24126A"/>
<path d="M219.009 85.9705L294.583 132.997L294.129 136.884L215.652 88.0109L219.009 85.9705Z" fill="#24126A"/>
<path d="M224.906 82.7943L295.943 126.682L295.036 130.568L221.549 84.8347L224.906 82.7943Z" fill="#24126A"/>
</g>
<path d="M292.95 83.1527L295.218 84.7074L295.399 82.8612L293.222 81.3065L292.95 83.1527Z" fill="#1D723F"/>
<path d="M291.045 95.201L293.313 96.7556L294.946 86.2619L292.678 84.8044L291.045 95.201Z" fill="#1D723F"/>
<path d="M290.228 100.933L292.496 102.488L293.04 98.4072L290.863 96.8527L290.228 100.933Z" fill="#1D723F"/>
<path d="M289.321 106.957L291.498 108.512L292.133 104.334L289.956 102.78L289.321 106.957Z" fill="#1D723F"/>
<path d="M288.686 86.6505L290.954 88.1079L291.589 84.0271L289.321 82.4725L288.686 86.6505Z" fill="#1D723F"/>
<path d="M287.506 94.5206L289.774 96.0752L290.682 89.954L288.413 88.3994L287.506 94.5206Z" fill="#1D723F"/>
<path d="M286.418 101.808L288.595 103.362L289.412 98.1157L287.143 96.5612L286.418 101.808Z" fill="#1D723F"/>
<path d="M288.413 112.884L290.591 114.439L291.226 110.358L289.049 108.804L288.413 112.884Z" fill="#1D723F"/>
<path d="M289.593 80.8208L291.861 82.3754L292.133 80.6265L289.865 79.0719L289.593 80.8208Z" fill="#1D723F"/>
<path d="M285.783 117.548L289.774 120.269L290.047 118.52L286.055 115.897L285.783 117.548Z" fill="#1D723F"/>
<path d="M147.337 251.147L55.977 194.695C55.2512 194.21 54.8883 193.529 54.8883 192.849C54.8883 191.975 55.4326 191.198 56.3399 190.615L75.3013 178.858C76.7529 177.983 78.8396 177.886 80.1097 178.664L171.379 235.115C172.104 235.601 172.467 236.281 172.467 236.961C172.467 237.836 171.923 238.613 171.016 239.196L152.145 250.952C151.329 251.438 150.421 251.633 149.423 251.633C148.698 251.73 147.881 251.535 147.337 251.147ZM76.2086 180.607L57.1564 192.266C56.7028 192.558 56.6121 192.752 56.6121 192.849C56.6121 192.849 56.7028 192.946 56.8842 193.044L148.153 249.495C148.879 249.981 150.331 249.884 151.238 249.301L170.199 237.544C170.653 237.253 170.744 237.058 170.744 236.961C170.744 236.961 170.653 236.864 170.471 236.767L79.2025 180.315C78.8396 180.121 78.386 180.024 77.9323 180.024C77.2973 180.121 76.6622 180.218 76.2086 180.607Z" fill="#2ECC71"/>
<path d="M93.0834 146.211C95.4422 147.668 97.7104 149.806 99.797 152.235C102.609 142.616 111.138 139.604 121.299 145.822C129.645 150.972 136.994 161.174 140.805 171.959C142.075 171.959 143.526 172.445 144.978 173.416C150.421 176.817 154.867 184.979 154.867 191.78C154.867 191.877 154.867 192.071 154.867 192.169C156.409 192.266 158.133 192.849 159.947 194.015C166.933 198.29 172.558 208.88 172.558 217.431C172.558 226.078 166.933 229.576 159.947 225.204L93.0834 183.91C84.646 178.663 77.8417 166.032 77.8417 155.538C77.8417 145.239 84.646 141.061 93.0834 146.211Z" fill="url(#paint3_linear_3016_262)"/>
<path d="M93.0834 146.211C94.4442 147.086 95.8051 148.154 97.0753 149.32L104.515 144.657C108.597 141.547 114.585 141.742 121.208 145.823C129.555 150.972 136.903 161.174 140.714 171.959C141.984 171.959 143.436 172.445 144.887 173.417C150.331 176.817 154.776 184.979 154.776 191.78C154.776 191.878 154.776 192.072 154.776 192.169C156.318 192.266 158.042 192.849 159.857 194.015C166.842 198.29 172.467 208.881 172.467 217.431C172.467 221.706 171.107 224.718 168.838 226.176H168.748L150.421 237.544L146.429 216.945L92.9019 183.91C84.4645 178.663 77.6602 166.032 77.6602 155.539C77.8416 145.24 84.646 141.062 93.0834 146.211Z" fill="url(#paint4_radial_3016_262)"/>
<path d="M63.6885 156.705L82.2871 145.142C85.0995 143.394 88.91 143.588 93.174 146.211C94.5349 147.086 95.8958 148.154 97.1659 149.32L104.605 144.657C108.688 141.547 114.676 141.742 121.299 145.823C129.645 150.972 136.994 161.174 140.804 171.959C142.075 171.959 143.526 172.445 144.978 173.417C150.421 176.817 154.867 184.979 154.867 191.78C154.867 191.878 154.867 192.072 154.867 192.169C156.409 192.266 158.133 192.849 159.947 194.015C166.933 198.29 172.558 208.881 172.558 217.431C172.558 221.706 171.197 224.718 168.929 226.176H168.838L150.512 237.544L146.52 216.945L92.9926 183.91C86.1882 179.635 80.3819 170.502 78.3859 161.66L63.6885 156.705Z" fill="#2ECC71"/>
<path d="M74.757 157.677C77.1159 159.134 79.384 161.272 81.4707 163.701C84.2831 154.082 92.8112 151.069 102.972 157.288C111.319 162.437 118.668 172.64 122.478 183.425C123.748 183.425 125.2 183.91 126.651 184.882C132.095 188.283 136.54 196.444 136.54 203.246C136.54 203.343 136.54 203.537 136.54 203.634C138.083 203.731 139.807 204.314 141.621 205.48C148.607 209.755 154.232 220.346 154.232 228.896C154.232 237.544 148.607 241.042 141.621 236.669L74.757 195.375C66.3196 190.129 59.5153 177.498 59.5153 167.004C59.5153 156.705 66.3196 152.43 74.757 157.677Z" fill="#87E8AE"/>
<path d="M80.8356 164.089C78.8397 161.66 76.5716 159.522 74.122 158.065C70.0394 155.539 66.229 155.247 63.5072 156.802C66.3197 154.762 70.3116 154.956 74.7571 157.676C77.0252 159.037 79.2026 160.98 81.1078 163.312C81.017 163.603 80.9263 163.798 80.8356 164.089Z" fill="#DDDDDD"/>
<path d="M153.687 229.382C153.687 220.735 148.062 210.241 141.077 205.966C139.262 204.8 137.538 204.217 135.996 204.12C135.996 204.023 135.996 203.829 135.996 203.731C135.996 196.93 131.551 188.768 126.107 185.368C124.565 184.396 123.204 184.007 121.934 183.91C118.033 173.125 110.775 162.923 102.428 157.773C96.3494 153.984 90.7245 153.595 86.7326 156.025C90.8152 153.207 96.6216 153.401 103.063 157.385C111.41 162.534 118.758 172.737 122.569 183.522C123.839 183.522 125.291 184.007 126.742 184.979C132.186 188.38 136.631 196.541 136.631 203.343C136.631 203.44 136.631 203.634 136.631 203.731C138.173 203.829 139.897 204.412 141.712 205.577C148.698 209.853 154.322 220.443 154.322 228.994C154.322 233.463 152.871 236.475 150.421 237.835C152.417 236.281 153.687 233.366 153.687 229.382Z" fill="#DDDDDD"/>
<path d="M205.4 274.174L207.033 273.008L161.308 243.471L160.401 245.123L205.4 274.174Z" fill="#2ECC71"/>
<path d="M271.811 272.522C271.448 272.522 271.176 272.328 270.994 272.037C270.722 271.551 270.904 270.968 271.357 270.676L310.278 248.037L253.847 212.865C253.394 212.573 253.303 211.99 253.485 211.504C253.757 211.019 254.301 210.921 254.755 211.116L312.546 247.163C312.818 247.357 313 247.649 313 248.037C313 248.426 312.818 248.718 312.546 248.912L272.174 272.328C272.083 272.425 271.902 272.522 271.811 272.522Z" fill="#2ECC71"/>
<path d="M240.42 334.706C240.239 334.706 240.148 334.706 239.967 334.609L174.01 293.801C173.738 293.607 173.556 293.315 173.556 292.927C173.556 292.538 173.738 292.246 174.01 292.052L239.967 251.244C240.239 251.05 240.602 251.05 240.874 251.244L306.831 292.052C307.103 292.246 307.284 292.538 307.284 292.927C307.284 293.315 307.103 293.607 306.831 293.801L240.874 334.609C240.783 334.609 240.602 334.706 240.42 334.706ZM176.278 292.927L240.42 332.569L304.562 292.927L240.42 253.284L176.278 292.927Z" fill="#2ECC71"/>
<path d="M240.42 320.035L284.24 292.927L240.42 265.818L196.691 292.927L240.42 320.035Z" fill="#2ECC71"/>
<path d="M229.261 277.672C229.261 277.672 228.535 278.449 227.719 279.421C226.902 280.393 224.815 281.656 223.817 282.239C222.82 282.822 218.737 286.028 217.83 289.332C216.922 292.635 219.826 293.121 222.82 292.635C225.813 292.149 228.717 289.234 229.533 288.166C230.35 287.097 233.253 284.765 236.973 282.822C240.692 280.878 238.515 278.061 238.515 278.061L229.261 277.672Z" fill="#160A5B"/>
<path d="M256.388 288.166C256.388 288.166 256.932 289.623 257.114 291.566C257.204 293.51 257.386 297.59 257.476 298.756C257.567 299.922 257.476 302.934 255.48 305.655C253.394 308.375 252.396 309.541 249.765 308.375C247.134 307.209 247.315 302.448 247.86 300.019C248.404 297.59 248.948 292.149 248.948 291.566C248.948 290.983 249.13 290.595 249.13 290.595L256.388 288.166Z" fill="#160A5B"/>
<path d="M221.459 221.706C221.459 221.706 221.549 243.374 225.995 255.033C225.995 255.033 229.17 265.235 229.261 277.283C229.261 277.283 228.444 279.324 229.533 281.073C230.622 282.822 237.517 284.473 238.787 279.032C240.057 273.494 239.876 263.098 238.696 258.725C237.517 254.353 239.513 242.499 239.513 242.499C239.513 242.499 241.418 243.859 243.686 252.507C245.954 261.154 247.678 264.458 248.495 266.887C249.311 269.316 249.765 283.793 249.039 290.886C249.039 290.886 254.664 291.858 256.297 289.04C258.021 286.222 258.837 271.356 258.565 266.595C258.293 261.835 256.751 246.58 257.113 241.916C257.476 237.252 258.474 233.463 257.567 228.702C256.66 223.941 227.356 212.767 227.356 212.767L221.459 221.706Z" fill="#24126A"/>
<path d="M257.113 241.916C257.476 237.252 258.474 233.463 257.567 228.702C257.204 226.953 252.849 224.233 247.587 221.609C238.515 220.443 227.084 219.18 226.267 219.277C225.541 219.374 223.636 220.055 222.094 220.735L221.459 221.706C221.459 221.706 221.459 223.067 221.549 225.204C223.636 225.981 227.719 225.301 227.719 225.301C228.263 226.856 231.62 232.297 235.975 234.823C240.329 237.252 253.212 236.767 253.938 237.738C254.664 238.613 254.482 250.564 254.392 252.021C254.301 253.576 255.39 263.098 256.388 271.454C257.386 279.712 255.39 289.72 255.299 290.109C255.753 289.817 256.115 289.526 256.388 289.04C258.111 286.222 258.928 271.356 258.656 266.595C258.293 261.834 256.751 246.58 257.113 241.916Z" fill="#160A5B"/>
<path d="M233.071 151.069C233.071 151.069 226.449 152.527 224.271 153.013C223.908 153.11 223.636 153.401 223.455 153.693C222.82 155.442 221.096 160.688 222.094 168.656C223.364 178.372 222.729 184.785 222.729 184.785L219.281 201.594C219.281 201.594 215.108 217.626 215.38 218.111C215.743 218.597 223.999 225.69 226.63 224.816C229.261 223.941 228.445 222.289 228.445 222.289C228.445 222.289 230.35 234.046 239.785 234.143C249.311 234.24 257.023 234.532 258.747 230.451C260.47 226.37 258.837 209.075 257.295 202.177C255.753 195.278 252.124 181.578 252.124 181.578L266.367 165.449L254.755 155.442C254.755 155.442 252.033 149.709 250.944 148.932C249.765 148.154 249.13 148.737 249.13 148.737L233.071 151.069Z" fill="#453C9E"/>
<path d="M226.902 221.026C226.902 221.609 226.539 222.484 224.815 223.067C223.001 223.65 218.555 220.638 215.562 218.306C217.013 219.666 224.18 225.496 226.63 224.718C227.174 224.524 227.537 224.33 227.809 224.135C227.356 222.872 227.084 221.706 226.902 221.026Z" fill="#0F632D"/>
<path d="M258.747 229.091C256.932 233.366 248.767 233.171 238.787 232.977C236.247 232.977 234.251 232.103 232.618 230.937C234.342 232.783 236.61 234.143 239.876 234.143C249.402 234.24 257.113 234.532 258.837 230.451C259.382 229.091 259.563 226.37 259.563 222.969C259.472 225.69 259.2 227.925 258.747 229.091Z" fill="#0F632D"/>
<path d="M250.672 148.835C250.672 148.835 253.031 152.041 249.402 156.219C247.225 158.745 243.323 164.283 240.057 170.113C237.971 173.708 236.156 175.651 235.067 178.76C235.067 178.76 234.977 175.068 234.977 169.239C234.977 163.798 235.067 158.162 235.34 156.705C235.884 153.693 248.041 147.28 250.672 148.835Z" fill="#F0F6FF"/>
<path d="M241.418 158.065C241.418 158.065 240.148 158.842 239.694 158.745C239.241 158.648 237.88 157.191 237.88 157.191C237.88 157.191 234.432 156.996 234.069 155.442C233.707 153.887 233.525 152.235 233.162 151.458C232.799 150.584 231.438 146.6 231.438 145.045C231.438 143.491 231.62 140.576 230.985 139.021C230.35 137.467 229.896 122.309 243.505 123.086C257.113 123.864 252.577 138.924 252.577 138.924C252.577 138.924 253.575 139.41 252.94 141.353C252.305 143.296 252.124 143.491 251.851 144.462C251.489 145.434 251.398 146.017 250.491 146.794L250.218 148.543C250.218 148.543 250.763 151.264 249.039 153.887C247.315 156.608 241.418 158.065 241.418 158.065Z" fill="#FCD1C5"/>
<path d="M223.818 153.11C223.818 153.11 222.366 153.304 217.376 165.935C214.564 172.931 210.3 180.218 209.392 185.465C208.394 190.712 208.757 196.347 209.755 196.833C210.662 197.222 227.446 204.509 232.709 206.744C232.981 206.841 233.344 206.646 233.344 206.355L234.977 197.61L224.543 192.946C224.543 192.946 222.638 190.226 220.733 189.254C220.733 189.254 222.91 185.173 222.82 184.008C222.729 182.842 223.273 171.085 222.184 166.324C221.096 161.466 223.818 153.11 223.818 153.11Z" fill="#24126A"/>
<path d="M229.261 186.922C229.261 186.922 227.809 185.853 227.446 185.659C227.084 185.465 225.178 184.785 224.815 184.59C224.543 184.493 223.455 184.493 222.82 184.59C222.638 184.59 222.457 184.687 222.366 184.882C221.912 185.756 220.551 188.283 220.733 189.351C220.733 189.351 224.18 191.78 224.543 192.849L225.088 192.946C225.088 192.946 227.537 187.602 229.261 186.922Z" fill="#FCD1C5"/>
<path d="M257.295 202.177C256.932 200.525 256.478 198.485 255.934 196.347L234.432 205.577C234.432 205.577 240.602 214.128 251.851 213.933C254.936 213.836 257.204 212.767 258.837 211.796C258.384 207.909 257.839 204.411 257.295 202.177Z" fill="#24126A"/>
<path d="M266.458 165.449C266.458 165.449 260.833 166.13 256.116 173.708C251.398 181.287 247.86 190.129 247.86 190.129L247.678 191.1C247.224 193.724 244.593 195.181 242.325 194.015C237.608 191.586 230.531 187.894 229.261 186.825C229.261 186.825 224.997 189.254 223.636 195.181C222.638 199.942 222.82 199.942 222.82 199.942C222.82 199.942 241.509 209.95 248.858 210.047C256.206 210.144 266.004 184.688 267.184 179.344C268.363 174 269.633 167.004 266.458 165.449Z" fill="#24126A"/>
<path d="M266.458 165.449C266.458 165.449 260.833 166.13 256.116 173.708C251.398 181.287 247.86 190.129 247.86 190.129L247.678 191.1C247.224 193.724 244.593 195.181 242.325 194.015C237.608 191.586 230.531 187.894 229.261 186.825C229.261 186.825 224.997 189.254 223.636 195.181C222.638 199.942 222.82 199.942 222.82 199.942C222.82 199.942 241.509 209.95 248.858 210.047C256.206 210.144 266.004 184.688 267.184 179.344C268.363 174 269.633 167.004 266.458 165.449Z" fill="#4846A5"/>
<path d="M244.956 195.278C244.956 195.278 247.315 197.707 248.404 196.444C249.493 195.181 249.13 194.987 249.13 194.987C249.13 194.987 251.307 194.987 251.579 193.626C251.851 192.169 252.94 192.946 253.031 191.392C253.122 189.74 251.307 190.031 251.307 190.031L244.956 195.278Z" fill="#453C9E"/>
<path d="M242.144 193.918C242.144 193.918 242.779 193.238 243.686 192.558C244.593 191.78 245.954 188.671 246.226 188.38C246.499 188.088 249.402 185.853 250.763 185.853C252.124 185.853 251.035 187.505 250.763 187.7C250.4 187.894 249.039 188.574 249.039 188.574C249.039 188.574 247.587 189.74 247.497 189.934C247.315 190.129 251.307 189.74 251.942 190.129C252.577 190.517 252.396 191.683 251.942 191.975C251.489 192.266 251.126 192.266 251.126 192.266C251.126 192.266 251.579 193.529 250.309 194.112C249.13 194.695 248.858 194.307 248.858 194.307C248.858 194.307 248.676 196.541 246.771 196.056L242.144 193.918Z" fill="#FCD1C5"/>
<path d="M230.985 131.248C230.985 131.248 229.08 137.272 233.797 135.718C238.515 134.163 242.87 131.345 244.321 132.511C245.41 133.386 245.319 135.912 245.229 137.078C245.229 137.467 245.319 137.855 245.501 138.244L246.862 140.479C247.043 140.77 247.134 141.062 247.134 141.353L247.225 142.908C247.225 143.296 247.497 143.588 247.86 143.588H248.222C248.585 143.588 248.858 143.394 248.948 143.005L249.402 140.77C249.402 140.77 250.581 137.855 252.849 139.021C252.849 139.021 254.482 136.787 254.029 132.026C253.666 127.167 251.761 122.212 242.96 121.143C233.979 120.075 230.985 131.248 230.985 131.248Z" fill="#AA8383"/>
<path d="M243.686 163.409L242.416 162.243C242.416 162.243 241.146 163.312 240.692 164.478C240.148 165.644 240.602 169.239 240.602 169.239L240.148 169.919L239.694 168.947L239.422 164.575C239.422 164.575 239.966 161.369 239.966 161.271C240.057 161.174 242.507 161.66 242.507 161.66C242.507 161.66 243.233 162.535 243.686 163.409Z" fill="#C4CCD6"/>
<path d="M237.426 158.94C237.426 158.94 235.975 159.037 235.34 159.523C235.34 159.523 236.791 159.62 237.063 159.717C237.335 159.717 237.426 158.94 237.426 158.94Z" fill="#C4CCD6"/>
<path d="M240.148 159.425L242.416 161.854C242.416 161.854 240.329 162.826 239.694 164.769C239.694 164.769 237.154 165.255 236.882 164.186C236.7 163.215 236.973 160.688 236.7 159.522C236.428 158.454 240.148 159.425 240.148 159.425Z" fill="#24126A"/>
<path d="M236.973 164.089C236.973 164.089 236.519 166.13 235.975 167.004C235.43 167.878 234.977 168.753 234.977 168.753L234.795 180.898C234.795 180.898 239.15 171.862 240.148 170.016C240.148 170.016 240.148 165.547 239.694 164.769C239.331 163.895 236.973 164.089 236.973 164.089Z" fill="#24126A"/>
<path d="M248.585 146.503C245.682 154.859 237.88 157.191 237.88 157.191C237.88 157.191 239.241 158.648 239.694 158.745C240.148 158.842 241.418 158.065 241.418 158.065C241.418 158.065 247.315 156.705 249.13 154.081C250.853 151.458 250.309 148.737 250.309 148.737L250.581 146.989C249.22 147.28 248.585 146.503 248.585 146.503Z" fill="#E2B1A6"/>
<path d="M254.664 156.608C254.664 156.608 253.484 160.591 253.394 160.688C253.212 160.883 250.672 160.494 250.672 160.494L251.851 163.02C251.851 163.02 238.515 177.595 235.702 185.465C235.702 185.465 242.053 175.457 253.122 163.7L251.67 161.174L254.301 161.757L254.664 156.608Z" fill="#24126A"/>
<path d="M233.434 152.43L232.709 153.207L233.525 154.081L231.076 156.316C231.076 156.316 229.987 172.542 232.618 183.425C232.618 183.425 228.898 173.417 230.168 155.83L232.799 153.984L231.983 153.11L233.434 152.43Z" fill="#24126A"/>
<path d="M239.513 242.499L236.337 238.71C237.789 241.139 235.793 251.73 235.521 254.159C235.249 256.588 237.154 261.737 237.698 267.664C238.333 273.591 236.61 282.044 236.61 282.044C237.608 281.461 238.333 280.49 238.696 278.935C239.967 273.397 239.785 263 238.606 258.628C237.517 254.353 239.513 242.499 239.513 242.499Z" fill="#160A5B"/>
<path d="M248.858 210.047C256.206 210.144 266.004 184.688 267.184 179.344C267.365 178.469 267.547 177.498 267.728 176.623C267.728 176.72 265.642 182.161 263.736 187.117C261.74 192.072 251.67 206.84 246.68 207.618C242.144 208.395 226.176 199.845 223.092 198.193C222.729 200.039 222.91 200.039 222.91 200.039C222.91 200.039 241.509 209.95 248.858 210.047Z" fill="#0F632D"/>
<path d="M248.041 143.491C248.404 143.491 248.676 143.296 248.767 142.908L249.22 140.673C249.22 140.673 250.4 137.758 252.668 138.924C252.668 138.924 254.21 136.786 253.938 132.317C251.216 136.398 245.41 138.147 245.41 138.147L246.771 140.381C246.952 140.673 247.043 140.964 247.043 141.256L247.134 142.81C247.134 143.199 247.406 143.491 247.769 143.491H248.041Z" fill="#936D6D"/>
<path d="M185.532 33.4056L227.9 59.6395C229.896 60.9026 231.438 64.1089 231.438 66.9267V110.164C231.438 112.982 229.805 114.245 227.9 113.079L177.82 82.1811L185.532 33.4056Z" fill="#0F632D"/>
<path d="M146.157 8.72633L148.244 7.17173C148.879 6.68592 149.786 6.58876 150.784 7.26889L222.91 51.8665C224.906 53.1296 226.449 56.336 226.449 59.1537V102.391C226.449 103.848 225.995 104.917 225.269 105.403L223.092 107.055L223.001 105.403C222.91 105.403 222.91 105.306 222.82 105.306L150.694 60.7083C148.698 59.4452 147.155 56.2388 147.155 53.4211V10.0866C147.155 9.69796 147.155 9.30931 147.246 8.92066L146.157 8.72633Z" fill="#1E7742"/>
<path d="M226.267 57.3076L207.215 69.0642L202.407 66.1493L223.999 52.741C225.088 53.9069 225.904 55.6558 226.267 57.3076Z" fill="#34E27A"/>
<path d="M148.607 62.2629L220.733 106.86C222.729 108.124 224.271 106.763 224.271 103.946V60.7083C224.271 57.8906 222.638 54.587 220.733 53.4211L148.607 8.82347C146.611 7.56035 145.069 8.92063 145.069 11.7383V54.9757C145.069 57.7934 146.702 61.0969 148.607 62.2629Z" fill="#2ECC71"/>
<path d="M223.908 104.237V60.9997C223.908 58.1819 222.275 54.8784 220.37 53.7125L148.244 9.11499C147.427 8.62918 146.792 8.53201 146.157 8.8235C146.792 8.33769 147.7 8.33769 148.607 8.92067L220.733 53.5182C222.729 54.7813 224.271 57.9876 224.271 60.8053V104.043C224.271 105.791 223.727 106.86 222.82 107.249C223.455 106.666 223.908 105.694 223.908 104.237Z" fill="white"/>
<path d="M155.321 35.0573L214.201 71.3961C214.654 71.6876 215.017 71.7848 215.29 71.3961C215.29 71.299 215.29 71.2018 215.29 71.1046V61.5827C215.29 60.8054 214.836 59.9309 214.382 59.6394L155.048 23.0092C154.958 23.0092 154.958 22.912 154.867 22.912C154.413 23.0091 154.413 23.3978 154.413 24.0779L154.232 33.2112C154.323 33.9885 154.776 34.7658 155.321 35.0573Z" fill="white"/>
<path d="M155.23 55.8502L214.201 92.1889C214.654 92.4804 215.199 92.7719 215.29 92.1889C215.29 92.0918 215.29 91.9946 215.29 91.8974V82.3755C215.29 81.5982 214.836 80.7238 214.382 80.4323L155.048 43.802C154.958 43.802 154.958 43.7048 154.867 43.7048C154.413 43.5105 154.323 44.1907 154.323 44.8708V53.9069C154.323 54.6842 154.685 55.4615 155.23 55.8502Z" fill="white"/>
<path d="M154.867 22.9121C154.867 23.0092 154.867 23.1064 154.867 23.2036V32.7255C154.867 33.5028 155.321 34.3772 155.774 34.6687L215.108 71.2989C215.199 71.2989 215.199 71.2989 215.29 71.396C215.199 71.979 214.836 72.1733 214.382 71.8818L155.048 35.2517C154.504 34.9602 154.141 34.0857 154.141 33.3084V23.7865C154.141 23.1064 154.413 22.7178 154.867 22.9121Z" fill="#DDDDDD"/>
<path d="M154.867 43.705C154.867 43.8021 154.867 43.8993 154.867 43.9965V53.5184C154.867 54.2957 155.321 55.1701 155.774 55.4616L215.108 92.0918C215.199 92.0918 215.199 92.0918 215.29 92.189C215.199 92.772 214.836 92.9663 214.382 92.6748L155.048 56.0446C154.504 55.7531 154.141 54.8787 154.141 54.1014V44.5794C154.141 43.8993 154.413 43.6078 154.867 43.705Z" fill="#DDDDDD"/>
<path d="M198.324 57.1132L197.598 58.5706L196.237 56.7245L197.326 55.5585L195.784 53.8096L196.328 52.3522L197.78 54.1983L197.598 51.9635L199.322 53.0323L199.141 54.9756L200.592 54.8784L201.137 56.9188L199.594 56.7245L200.592 59.1536L199.231 59.3479L198.324 57.1132Z" fill="#2ECC71"/>
<path d="M191.52 52.9353L190.794 54.3927L189.433 52.5466L190.522 51.3807L188.979 49.6317L189.524 48.1743L190.975 50.0204L190.794 47.7856L192.518 48.8544L192.336 50.7977L193.788 50.7005L194.332 52.741L192.79 52.5466L193.788 54.9757L192.427 55.17L191.52 52.9353Z" fill="#2ECC71"/>
<path d="M184.715 48.7571L183.99 50.2145L182.629 48.3685L183.717 47.2026L182.175 45.4537L182.719 43.9963L184.171 45.8423L183.99 43.6077L185.713 44.6764L185.532 46.6196L186.984 46.5225L187.528 48.5628L185.986 48.3685L186.984 50.7975L185.623 50.9918L184.715 48.7571Z" fill="#2ECC71"/>
<path d="M177.911 44.482L177.185 45.9395L175.824 44.0934L176.913 42.9274L175.371 41.1785L175.915 39.7211L177.367 41.5672L177.185 39.3324L178.909 40.4012L178.728 42.3445L180.179 42.2473L180.724 44.2877L179.181 44.0934L180.179 46.5225L178.818 46.7168L177.911 44.482Z" fill="#2ECC71"/>
<path d="M171.107 40.3042L170.381 41.7616L169.02 39.9155L170.109 38.7496L168.566 37.0006L169.111 35.5432L170.562 37.3893L170.381 35.1545L172.105 36.2233L171.923 38.1666L173.375 38.0694L173.919 40.1099L172.377 39.9155L173.375 42.3446L172.014 42.5389L171.107 40.3042Z" fill="#2ECC71"/>
<path d="M198.324 78.0032L197.598 79.4606L196.237 77.6146L197.326 76.4486L195.693 74.6997L196.237 73.2423L197.689 75.0883L197.508 72.8536L199.231 73.9224L199.05 75.8656L200.502 75.7685L201.046 77.8089L199.504 77.6146L200.502 80.0436L199.141 80.2379L198.324 78.0032Z" fill="#2ECC71"/>
<path d="M191.52 73.728L190.794 75.1855L189.433 73.3394L190.522 72.1734L188.979 70.4245L189.524 68.967L190.975 70.8131L190.794 68.5784L192.518 69.6472L192.336 71.5904L193.788 71.4933L194.332 73.5337L192.79 73.3394L193.788 75.7684L192.427 75.9628L191.52 73.728Z" fill="#2ECC71"/>
<path d="M184.715 69.5499L183.99 71.0074L182.629 69.1613L183.717 67.9954L182.175 66.2465L182.719 64.789L184.171 66.6351L183.99 64.4004L185.713 65.4692L185.532 67.4124L186.984 67.3152L187.528 69.3556L185.986 69.1613L186.984 71.5903L185.623 71.7847L184.715 69.5499Z" fill="#2ECC71"/>
<path d="M177.911 65.3719L177.185 66.8294L175.824 64.9833L176.913 63.8173L175.371 62.0684L175.915 60.6109L177.367 62.457L177.185 60.2223L178.909 61.2911L178.728 63.2343L180.179 63.1372L180.724 65.1776L179.181 64.9833L180.179 67.4124L178.818 67.6067L177.911 65.3719Z" fill="#2ECC71"/>
<path d="M171.107 61.0967L170.381 62.5541L169.02 60.7081L170.109 59.5422L168.566 57.7933L169.111 56.3359L170.562 58.1819L170.381 55.9473L172.105 57.016L171.923 58.9592L173.375 58.8621L173.919 60.9024L172.377 60.7081L173.375 63.1371L172.014 63.3314L171.107 61.0967Z" fill="#2ECC71"/>
<path d="M80.0191 119.783C79.7469 119.783 79.4747 119.686 79.2025 119.589L41.2797 96.0754C40.7353 95.7839 40.4631 95.2009 40.4631 94.5208C40.4631 93.9378 40.7353 93.3548 41.2797 92.9662L79.2025 69.55C79.7469 69.2585 80.3819 69.2585 80.8356 69.55L118.758 92.9662C119.303 93.2577 119.575 93.8406 119.575 94.5208C119.575 95.1037 119.303 95.6867 118.758 96.0754L80.8356 119.491C80.5634 119.686 80.2912 119.783 80.0191 119.783ZM42.4591 94.6179L80.0191 117.84L117.579 94.6179L80.0191 71.3961L42.4591 94.6179Z" fill="#2ECC71"/>
<path d="M114.131 86.0676V78.6832L80.0191 98.893L45.9066 78.6832V86.0676L80.0191 107.152L114.131 86.0676Z" fill="#1D5D61"/>
<path d="M80.0191 99.8647L45.9066 78.6833L80.0191 57.599L114.131 78.6833L80.0191 99.8647Z" fill="#2ECC71"/>
<path opacity="0.5" d="M80.0191 99.1846L46.3602 78.3917L45.9066 78.6832L80.0191 99.8647L114.131 78.6832L113.678 78.3917L80.0191 99.1846Z" fill="white"/>
<path d="M80.0191 91.8002L58.8802 78.6833L80.0191 65.6636L101.067 78.6833L80.0191 91.8002Z" fill="#0F054C"/>
<path opacity="0.5" d="M80.0191 91.8002L58.8803 78.6833L80.0191 65.6636L101.067 78.6833L80.0191 91.8002Z" fill="url(#paint5_linear_3016_262)"/>
<path opacity="0.5" d="M80.0192 47.3969L101.067 60.5138V78.6832L80.0192 65.6634V47.3969Z" fill="url(#paint6_linear_3016_262)"/>
<path opacity="0.5" d="M80.0191 65.6634L58.8802 78.6832V60.5138L80.0191 47.3969V65.6634Z" fill="url(#paint7_linear_3016_262)"/>
<path opacity="0.5" d="M80.0191 73.5337L58.8802 60.5139L80.0191 47.3969L101.067 60.5139L80.0191 73.5337Z" fill="#0D562C"/>
<path opacity="0.5" d="M80.0192 73.5338V91.8003L101.067 78.6834V60.514L80.0192 73.5338Z" fill="#06A549"/>
<path opacity="0.5" d="M58.8803 60.514V78.6834L80.0192 91.8003V73.5338L58.8803 60.514Z" fill="#2ECC71"/>
<defs>
<linearGradient id="paint0_linear_3016_262" x1="184.691" y1="84.5836" x2="208.608" y2="45.9043" gradientUnits="userSpaceOnUse">
<stop stop-color="#C0BFF6"/>
<stop offset="0.2938" stop-color="#C5C4F7"/>
<stop offset="0.6399" stop-color="#D3D2F9"/>
<stop offset="1" stop-color="#E9E9FD"/>
</linearGradient>
<linearGradient id="paint1_linear_3016_262" x1="300.213" y1="113.556" x2="107.444" y2="113.556" gradientUnits="userSpaceOnUse">
<stop stop-color="#C0BFF6"/>
<stop offset="0.2938" stop-color="#C5C4F7"/>
<stop offset="0.6399" stop-color="#D3D2F9"/>
<stop offset="1" stop-color="#E9E9FD"/>
</linearGradient>
<linearGradient id="paint2_linear_3016_262" x1="312.901" y1="98.4017" x2="263.557" y2="98.4017" gradientUnits="userSpaceOnUse">
<stop stop-color="#C0BFF6"/>
<stop offset="0.2938" stop-color="#C5C4F7"/>
<stop offset="0.6399" stop-color="#D3D2F9"/>
<stop offset="1" stop-color="#E9E9FD"/>
</linearGradient>
<linearGradient id="paint3_linear_3016_262" x1="172.635" y1="205.424" x2="77.8529" y2="205.424" gradientUnits="userSpaceOnUse">
<stop stop-color="#5761D7"/>
<stop offset="0.1779" stop-color="#5C66D9"/>
<stop offset="0.3876" stop-color="#6A73DF"/>
<stop offset="0.6134" stop-color="#8289E8"/>
<stop offset="0.849" stop-color="#A3A7F5"/>
<stop offset="1" stop-color="#BCBEFF"/>
</linearGradient>
<radialGradient id="paint4_radial_3016_262" cx="0" cy="0" r="1" gradientUnits="userSpaceOnUse" gradientTransform="translate(150.36 174.956) rotate(180) scale(45.2126 48.4209)">
<stop stop-color="#2B237C"/>
<stop offset="1" stop-color="#180D5B"/>
</radialGradient>
<linearGradient id="paint5_linear_3016_262" x1="58.8981" y1="78.7171" x2="101.097" y2="78.7171" gradientUnits="userSpaceOnUse">
<stop stop-color="#42E8E0"/>
<stop offset="0.1507" stop-color="#43E3E0"/>
<stop offset="0.3285" stop-color="#45D5DF"/>
<stop offset="0.5199" stop-color="#49BDDD"/>
<stop offset="0.7209" stop-color="#4E9CDB"/>
<stop offset="0.9274" stop-color="#5472D8"/>
<stop offset="1" stop-color="#5761D7"/>
</linearGradient>
<linearGradient id="paint6_linear_3016_262" x1="79.997" y1="63.0683" x2="101.097" y2="63.0683" gradientUnits="userSpaceOnUse">
<stop stop-color="#42E8E0"/>
<stop offset="0.1507" stop-color="#43E3E0"/>
<stop offset="0.3285" stop-color="#45D5DF"/>
<stop offset="0.5199" stop-color="#49BDDD"/>
<stop offset="0.7209" stop-color="#4E9CDB"/>
<stop offset="0.9274" stop-color="#5472D8"/>
<stop offset="1" stop-color="#5761D7"/>
</linearGradient>
<linearGradient id="paint7_linear_3016_262" x1="58.898" y1="63.0681" x2="79.9976" y2="63.0681" gradientUnits="userSpaceOnUse">
<stop stop-color="#42E8E0"/>
<stop offset="0.1507" stop-color="#43E3E0"/>
<stop offset="0.3285" stop-color="#45D5DF"/>
<stop offset="0.5199" stop-color="#49BDDD"/>
<stop offset="0.7209" stop-color="#4E9CDB"/>
<stop offset="0.9274" stop-color="#5472D8"/>
<stop offset="1" stop-color="#5761D7"/>
</linearGradient>
</defs>
</svg>
