<svg width="306" height="330" viewBox="0 0 306 330" fill="none" xmlns="http://www.w3.org/2000/svg">
<path d="M153.085 329.393C113.913 329.393 74.9108 322.362 45.1058 308.159C16.1524 294.378 0.142822 275.957 0.142822 256.41C0.142822 236.864 16.1524 218.442 45.1058 204.661C104.716 176.256 201.625 176.256 261.064 204.661C290.018 218.442 305.857 236.723 305.857 256.41C305.857 275.957 289.848 294.378 260.894 308.159C231.259 322.362 192.087 329.393 153.085 329.393ZM152.915 184.271C114.083 184.271 75.0812 191.302 45.4465 205.505C16.8336 219.146 1.16472 237.286 1.16472 256.41C1.16472 275.676 16.8336 293.675 45.4465 307.316C104.716 335.581 201.114 335.581 260.383 307.316C288.996 293.675 304.665 275.535 304.665 256.41C304.665 237.145 288.996 219.146 260.383 205.505C230.748 191.302 191.917 184.271 152.915 184.271Z" fill="#2ECC71"/>
<path d="M230.238 293.113C187.659 313.503 118.511 313.503 75.7624 293.113C33.1838 272.723 33.1838 239.817 75.7624 219.427C118.341 199.037 187.489 199.037 230.238 219.427C272.816 239.817 272.816 272.863 230.238 293.113Z" fill="#0F632D"/>
<path d="M222.573 54.0552L110.676 0.759356C108.803 -0.0843775 107.27 -0.224993 105.907 0.337496L98.2433 3.99367L103.182 6.52487V222.802C103.182 227.302 106.418 232.505 110.506 234.473L221.04 287.207L219.507 291.847L227.171 288.191C228.704 287.488 229.726 285.801 229.726 283.269V65.7268C229.896 61.2269 226.66 56.0239 222.573 54.0552Z" fill="#1E7742"/>
<path d="M214.738 291.566L103.012 238.13C98.9246 236.161 95.6887 230.958 95.6887 226.458V9.05617C95.6887 4.55627 98.9246 2.58757 103.012 4.41565L214.909 57.7114C218.996 59.6801 222.232 64.8831 222.232 69.383V286.925C222.232 291.425 218.826 293.535 214.738 291.566Z" fill="#38E57E"/>
<path d="M222.232 287.066L95.6887 226.739V8.91541L222.232 69.2423V287.066Z" fill="#2ECC71"/>
<path opacity="0.4" d="M201.965 291.285L89.0466 237.427C84.7887 235.458 82.234 231.662 82.234 227.584V22.8377C82.234 20.0253 85.9809 18.1972 89.0466 19.6034L201.965 73.4617C206.223 75.4304 208.777 79.2272 208.777 83.3053V288.192C208.777 290.864 204.86 292.692 201.965 291.285Z" fill="#EFEFEF"/>
<path d="M204.179 292.129C203.328 292.129 202.476 291.988 201.624 291.566L88.706 237.708C84.2778 235.598 81.5528 231.661 81.5528 227.583V22.8371C81.5528 21.2902 82.4044 20.0246 84.1075 19.3215C85.6403 18.6184 87.5138 18.6184 89.0467 19.3215L201.965 73.1798C206.393 75.2891 209.118 79.2266 209.118 83.3046V288.191C209.118 289.738 208.267 291.004 206.564 291.707C205.882 291.988 205.031 292.129 204.179 292.129ZM86.6622 19.4621C85.981 19.4621 85.2997 19.6028 84.6185 19.884C83.4263 20.4465 82.5747 21.5715 82.5747 22.6965V227.583C82.5747 231.52 85.1294 235.036 89.2169 237.005L202.135 290.863C203.328 291.425 204.86 291.425 206.223 290.863C207.415 290.3 208.267 289.175 208.267 288.051V83.164C208.267 79.2266 205.712 75.711 201.624 73.7423L88.706 19.884C88.0248 19.6028 87.3435 19.4621 86.6622 19.4621Z" fill="#EFEFEF"/>
<path d="M167.221 40.2743L150.53 32.2589C150.019 31.9777 149.508 31.2746 149.508 30.5715C149.508 30.009 150.019 29.7277 150.53 29.8684L167.221 37.8837C167.732 38.165 168.243 38.8681 168.243 39.5712C168.243 40.2743 167.732 40.5555 167.221 40.2743Z" fill="#1C7540"/>
<path opacity="0.2" d="M174.034 163.881C176.248 165.006 178.121 163.881 178.121 161.35V85.6952C178.121 83.164 176.248 80.2109 174.034 79.0859L82.4046 35.3525C82.2343 36.1963 82.064 37.1806 82.064 38.0243V120.007L174.034 163.881Z" fill="#041860"/>
<path d="M105.227 135.897V137.725C103.353 137.022 100.799 136.6 97.9032 136.882C87.5141 137.444 75.4218 144.335 70.9936 152.069C69.8014 154.178 69.1201 156.147 69.2904 157.975L67.2466 157.412L69.4608 160.225C71.3342 162.615 75.0811 164.022 80.3609 163.6C90.75 163.037 102.842 156.147 107.271 148.413C109.485 144.616 109.485 141.241 107.611 138.85L105.227 135.897Z" fill="#F4A856"/>
<path d="M105.056 145.46C100.458 153.194 88.536 159.944 78.1468 160.647C67.7576 161.209 62.9888 155.584 67.5873 147.85C72.1858 140.116 84.1078 133.366 94.497 132.663C104.886 131.96 109.485 137.725 105.056 145.46Z" fill="#FCCC6B"/>
<path d="M105.056 145.46C100.458 153.194 88.536 159.944 78.1468 160.647C67.7576 161.209 62.9888 155.584 67.5873 147.85C72.1858 140.116 84.1078 133.366 94.497 132.663C104.886 131.96 109.485 137.725 105.056 145.46Z" fill="url(#paint0_radial_3016_72)"/>
<path d="M92.7939 154.319C88.7064 156.709 83.7673 158.256 79.3391 158.537C75.0813 158.819 71.675 157.834 69.9718 155.725C68.2687 153.616 68.2687 150.663 70.1422 147.569C73.8891 141.1 84.1079 135.335 92.9642 134.772C97.2221 134.491 100.628 135.475 102.332 137.585C104.035 139.694 104.035 142.647 102.161 145.741C100.288 148.975 96.7111 151.928 92.7939 154.319ZM79.85 139.132C75.7625 141.382 72.3562 144.335 70.4828 147.569C68.6093 150.663 68.6093 153.475 70.1422 155.444C71.8453 157.412 74.9109 158.397 79.1688 158.116C87.8548 157.553 97.9034 151.928 101.65 145.46C103.524 142.366 103.524 139.553 101.991 137.585C100.288 135.616 97.2221 134.632 92.9642 134.913C88.7064 135.194 83.9376 136.882 79.85 139.132Z" fill="#F4A856"/>
<path d="M101.991 145.6C98.2439 152.069 88.0251 157.834 79.3391 158.256C70.6531 158.819 66.7358 153.897 70.4827 147.428C74.2297 140.96 84.4485 135.194 93.1345 134.772C101.821 134.35 105.738 139.131 101.991 145.6Z" fill="url(#paint1_radial_3016_72)"/>
<path d="M70.9936 148.131C74.7405 141.663 84.9593 135.897 93.6453 135.475C97.7328 135.194 100.799 136.179 102.502 137.866C100.969 135.757 97.7329 134.491 93.1344 134.772C84.4484 135.335 74.2295 140.96 70.4826 147.428C68.4388 150.803 68.6091 153.756 70.4826 155.725C69.1201 153.897 69.1201 151.225 70.9936 148.131Z" fill="#F4A856"/>
<path d="M104.546 144.897C99.9473 152.631 88.0254 159.381 77.6362 160.084C72.6971 160.366 68.9502 159.241 67.0767 157.131C68.9502 159.662 72.6971 161.069 78.1471 160.787C88.5363 160.225 100.629 153.334 105.057 145.6C107.441 141.522 107.271 138.147 105.057 135.757C106.76 137.866 106.59 141.1 104.546 144.897Z" fill="#FCE586"/>
<path d="M101.82 154.6C104.205 152.631 106.078 150.522 107.27 148.272C109.484 144.475 109.484 141.1 107.611 138.71L105.227 135.897C105.227 135.897 105.227 135.757 105.056 135.757L104.886 135.616C102.842 133.507 99.2656 132.241 94.1562 132.522C88.3655 132.944 81.8935 135.194 76.6138 138.569L95.3483 154.6H101.82V154.6Z" fill="#F4A856"/>
<path d="M162.282 85.414L29.2665 21.9933C28.2446 21.4309 27.2227 21.4308 26.5414 21.8527L24.4976 22.8371C24.4976 22.8371 25.0086 22.8371 25.3492 22.9777C25.1789 23.3996 25.0086 23.962 25.0086 24.6652V100.32C25.0086 102.851 26.882 105.804 29.0961 106.929L162.112 170.35C162.282 170.49 162.623 170.49 162.793 170.631V171.475L164.837 170.49C165.688 170.069 166.199 169.084 166.199 167.678V91.8826C166.369 89.3514 164.496 86.3983 162.282 85.414Z" fill="white"/>
<path d="M160.238 171.054L27.2228 107.633C25.0087 106.508 23.1353 103.555 23.1353 101.024V25.3689C23.1353 22.8377 25.0087 21.7127 27.2228 22.8377L160.238 86.2583C162.452 87.3833 164.326 90.3364 164.326 92.8676V168.522C164.496 171.054 162.623 172.179 160.238 171.054Z" fill="#2ECC71"/>
<path d="M59.923 107.492L34.7164 95.5388V92.7263L59.923 104.679V107.492Z" fill="white"/>
<path d="M90.9205 122.257L65.714 110.304V107.492L90.9205 119.585V122.257Z" fill="white"/>
<path d="M121.917 137.163L96.7108 125.069V122.257L121.917 134.351V137.163Z" fill="white"/>
<path d="M152.915 151.928L127.708 139.835V137.022L152.915 149.116V151.928Z" fill="white"/>
<path opacity="0.2" d="M160.239 86.2584L27.3934 22.9786C25.1793 21.8536 23.3058 22.9786 23.3058 25.5098V101.164C23.3058 101.586 23.3059 102.149 23.4762 102.571C30.6294 98.3519 59.2422 85.2741 114.254 110.305C134.18 119.445 151.042 118.18 164.496 112.274V92.8677C164.496 90.3365 162.623 87.3834 160.239 86.2584Z" fill="#00FF67"/>
<path opacity="0.2" d="M78.3173 82.4616C97.0519 80.4929 112.551 75.7118 125.494 69.8057L27.3934 22.9786C25.1793 21.8536 23.3058 22.9786 23.3058 25.5098V97.9301C33.0138 91.4614 49.8749 85.5553 78.3173 82.4616Z" fill="#1D723F"/>
<path d="M108.463 265.551L107.271 267.098C106.249 265.551 104.375 264.145 101.821 262.879C92.794 258.52 78.3172 258.52 69.2906 262.738C66.7359 263.863 65.0327 265.27 63.8405 266.817L62.478 265.41V268.785C62.3077 271.598 64.5218 274.551 69.1202 276.801C78.1469 281.16 92.6236 281.16 101.65 276.941C106.078 274.832 108.463 272.02 108.463 269.207V265.551Z" fill="#F4A856"/>
<path d="M101.65 273.285C92.6236 277.504 77.9766 277.504 69.1202 273.144C60.0936 268.785 60.2639 261.895 69.1202 257.535C78.1469 253.317 92.7939 253.317 101.65 257.676C110.847 262.035 110.677 268.926 101.65 273.285Z" fill="#FCCC6B"/>
<path d="M101.65 273.285C92.6236 277.504 77.9766 277.504 69.1202 273.144C60.0936 268.785 60.2639 261.895 69.1202 257.535C78.1469 253.317 92.7939 253.317 101.65 257.676C110.847 262.035 110.677 268.926 101.65 273.285Z" fill="url(#paint2_radial_3016_72)"/>
<path d="M85.6406 274.832C80.5312 274.832 75.5921 273.848 71.6748 272.019C67.9279 270.191 65.8842 267.801 65.8842 265.27C65.8842 262.738 67.9279 260.348 71.6748 258.66C79.339 255.004 91.6016 255.145 99.2658 258.801C103.013 260.629 105.056 263.02 105.056 265.551C105.056 268.082 103.013 270.473 99.2658 272.16C95.5189 273.848 90.5797 274.832 85.6406 274.832ZM85.3 256.411C80.3609 256.411 75.5921 257.254 71.8452 259.082C68.2686 260.77 66.2248 263.02 66.2248 265.41C66.2248 267.801 68.0982 270.051 71.6748 271.879C79.1687 275.535 91.261 275.535 98.9251 272.019C102.502 270.332 104.545 268.082 104.545 265.692C104.545 263.301 102.672 261.051 99.0954 259.223C95.3485 257.254 90.4094 256.411 85.3 256.411Z" fill="#F4A856"/>
<path d="M99.0956 272.019C91.6017 275.535 79.3391 275.535 71.6749 271.879C64.1811 268.223 64.1811 262.457 71.6749 258.801C79.1688 255.285 91.4314 255.285 99.0956 258.941C106.76 262.598 106.76 268.363 99.0956 272.019Z" fill="url(#paint3_radial_3016_72)"/>
<path d="M71.845 259.645C79.3388 256.129 91.6014 256.129 99.2656 259.785C102.842 261.473 104.716 263.723 104.886 265.973C105.056 263.442 103.183 260.91 99.2656 259.082C91.7718 255.426 79.5091 255.426 71.845 258.942C67.9277 260.77 65.8839 263.301 66.2246 265.832C66.3949 263.442 68.2684 261.332 71.845 259.645Z" fill="#F4A856"/>
<path d="M101.65 272.441C92.6236 276.66 77.9766 276.66 69.1202 272.301C64.8624 270.191 62.6483 267.52 62.478 264.848C62.3077 267.801 64.5218 270.754 69.1202 273.004C78.1469 277.363 92.6236 277.363 101.65 273.144C106.419 270.895 108.633 267.941 108.463 264.988C108.293 267.801 106.078 270.473 101.65 272.441Z" fill="#FCE586"/>
<path d="M112.55 260.77L111.358 262.317C110.336 260.77 108.463 259.364 105.908 258.098C96.8813 253.739 82.4046 253.739 73.3779 257.957C70.8232 259.082 69.12 260.488 67.9278 262.035L66.5653 260.629V264.004C66.395 266.816 68.6091 269.77 73.2076 272.02C82.2342 276.379 96.711 276.379 105.738 272.16C110.166 270.051 112.55 267.238 112.55 264.426V260.77Z" fill="#F4A856"/>
<path d="M105.738 268.504C96.711 272.723 82.064 272.723 73.2076 268.363C64.181 264.004 64.3513 257.114 73.2076 252.754C82.2343 248.536 96.8814 248.536 105.738 252.895C114.764 257.395 114.764 264.285 105.738 268.504Z" fill="#FCCC6B"/>
<path d="M105.738 268.504C96.711 272.723 82.064 272.723 73.2076 268.363C64.181 264.004 64.3513 257.114 73.2076 252.754C82.2343 248.536 96.8814 248.536 105.738 252.895C114.764 257.395 114.764 264.285 105.738 268.504Z" fill="url(#paint4_radial_3016_72)"/>
<path d="M89.5578 270.051C84.4483 270.051 79.5092 269.066 75.592 267.238C71.845 265.41 69.8013 263.02 69.8013 260.488C69.8013 257.957 71.845 255.567 75.592 253.879C83.2561 250.223 95.5188 250.364 103.183 254.02C106.93 255.848 108.974 258.238 108.974 260.77C108.974 263.301 106.93 265.691 103.183 267.379C99.436 269.207 94.4969 270.051 89.5578 270.051ZM89.3874 251.629C84.4483 251.629 79.6795 252.473 75.9326 254.301C72.356 255.988 70.3122 258.238 70.3122 260.629C70.3122 263.02 72.1857 265.27 75.7623 267.098C83.2561 270.754 95.3484 270.754 103.013 267.238C106.589 265.551 108.633 263.301 108.633 260.91C108.633 258.52 106.76 256.27 103.183 254.442C99.2657 252.614 94.3266 251.629 89.3874 251.629Z" fill="#F4A856"/>
<path d="M103.013 267.379C95.5187 270.894 83.2561 270.895 75.5919 267.238C68.0981 263.582 68.0981 257.817 75.5919 254.16C83.0858 250.645 95.3484 250.645 103.013 254.301C110.677 257.957 110.677 263.723 103.013 267.379Z" fill="url(#paint5_radial_3016_72)"/>
<path d="M75.7627 254.864C83.2565 251.348 95.5192 251.348 103.183 255.004C106.76 256.692 108.633 258.942 108.804 261.192C108.974 258.66 107.101 256.129 103.183 254.301C95.6895 250.645 83.4268 250.645 75.7627 254.16C71.8455 255.989 69.8017 258.52 70.1423 261.051C70.3127 258.801 72.1861 256.551 75.7627 254.864Z" fill="#F4A856"/>
<path d="M105.738 267.801C96.711 272.02 82.0639 272.02 73.2076 267.66C68.9497 265.551 66.7357 262.879 66.5653 260.207C66.395 263.16 68.6091 266.113 73.2076 268.363C82.2342 272.723 96.711 272.723 105.738 268.504C110.506 266.254 112.721 263.301 112.55 260.348C112.21 263.16 109.995 265.832 105.738 267.801Z" fill="#FCE586"/>
<path d="M142.866 283.972L141.674 285.519C140.652 283.973 138.779 282.566 136.224 281.301C127.197 276.941 112.72 276.941 103.694 281.16C101.139 282.285 99.436 283.691 98.2438 285.238L96.8813 283.832V287.207C96.7109 290.019 98.9251 292.972 103.524 295.222C112.55 299.582 127.027 299.582 136.054 295.363C140.482 293.254 142.866 290.441 142.866 287.629V283.972Z" fill="#F4A856"/>
<path d="M136.053 291.707C127.027 295.925 112.38 295.925 103.523 291.566C94.4968 287.207 94.6671 280.316 103.523 275.957C112.55 271.738 127.197 271.738 136.053 276.098C145.08 280.598 145.08 287.488 136.053 291.707Z" fill="#FCCC6B"/>
<path d="M136.053 291.707C127.027 295.925 112.38 295.925 103.523 291.566C94.4968 287.207 94.6671 280.316 103.523 275.957C112.55 271.738 127.197 271.738 136.053 276.098C145.08 280.598 145.08 287.488 136.053 291.707Z" fill="url(#paint6_radial_3016_72)"/>
<path d="M119.873 293.254C114.764 293.254 109.825 292.269 105.908 290.441C102.161 288.613 100.117 286.222 100.117 283.691C100.117 281.16 102.161 278.769 105.908 277.082C113.572 273.426 125.834 273.566 133.499 277.223C137.246 279.051 139.289 281.441 139.289 283.972C139.289 286.504 137.246 288.894 133.499 290.582C129.752 292.41 124.813 293.254 119.873 293.254ZM119.703 274.832C114.764 274.832 109.995 275.676 106.248 277.504C102.672 279.191 100.628 281.441 100.628 283.832C100.628 286.222 102.501 288.472 106.078 290.3C113.572 293.957 125.664 293.957 133.328 290.441C136.905 288.754 138.949 286.504 138.949 284.113C138.949 281.723 137.075 279.473 133.499 277.645C129.581 275.816 124.642 274.832 119.703 274.832Z" fill="#F4A856"/>
<path d="M133.499 290.441C126.005 293.957 113.742 293.957 106.078 290.301C98.5845 286.644 98.5845 280.879 106.078 277.223C113.572 273.707 125.835 273.707 133.499 277.363C140.993 281.019 140.993 286.926 133.499 290.441Z" fill="url(#paint7_radial_3016_72)"/>
<path d="M106.078 278.066C113.572 274.551 125.835 274.551 133.499 278.207C137.076 279.894 138.949 282.144 139.119 284.394C139.29 281.863 137.416 279.332 133.499 277.504C126.005 273.848 113.742 273.848 106.078 277.363C102.161 279.191 100.117 281.723 100.458 284.254C100.628 282.004 102.502 279.754 106.078 278.066Z" fill="#F4A856"/>
<path d="M136.054 291.004C127.027 295.222 112.38 295.222 103.524 290.863C99.2657 288.754 97.0516 286.082 96.8813 283.41C96.7109 286.363 98.9251 289.316 103.524 291.566C112.55 295.925 127.027 295.925 136.054 291.707C140.822 289.457 143.036 286.504 142.866 283.551C142.696 286.363 140.311 289.035 136.054 291.004Z" fill="#FCE586"/>
<path d="M96.7113 290.582L95.5191 292.128C94.4972 290.582 92.6237 289.175 90.069 287.91C81.0424 283.551 66.5657 283.551 57.539 287.769C54.9843 288.894 53.2812 290.3 52.089 291.847L50.7265 290.441V293.816C50.5562 296.628 52.7702 299.581 57.3687 301.831C66.3954 306.191 80.8721 306.191 89.8987 301.972C94.3269 299.863 96.7113 297.05 96.7113 294.238V290.582Z" fill="#F4A856"/>
<path d="M89.8988 298.316C80.8722 302.535 66.2251 302.535 57.3688 298.175C48.3422 293.816 48.5125 286.926 57.3688 282.566C66.3955 278.348 81.0425 278.348 89.8988 282.707C99.0958 287.066 98.9255 294.097 89.8988 298.316Z" fill="#FCCC6B"/>
<path d="M89.8988 298.316C80.8722 302.535 66.2251 302.535 57.3688 298.175C48.3422 293.816 48.5125 286.926 57.3688 282.566C66.3955 278.348 81.0425 278.348 89.8988 282.707C99.0958 287.066 98.9255 294.097 89.8988 298.316Z" fill="url(#paint8_radial_3016_72)"/>
<path d="M73.8892 299.863C68.7798 299.863 63.8407 298.878 59.9235 297.05C56.1766 295.222 54.1328 292.832 54.1328 290.3C54.1328 287.769 56.1766 285.379 59.9235 283.691C67.5876 280.035 79.8502 280.176 87.5144 283.832C91.2613 285.66 93.3051 288.05 93.3051 290.582C93.3051 293.113 91.2613 295.503 87.5144 297.191C83.5971 299.019 78.8283 299.863 73.8892 299.863ZM73.5486 281.441C68.6095 281.441 63.8407 282.285 60.0938 284.113C56.5172 285.801 54.4734 288.051 54.4734 290.441C54.4734 292.832 56.3469 295.082 59.9235 296.91C67.4173 300.566 79.5096 300.566 87.1738 297.05C90.7504 295.363 92.7941 293.113 92.7941 290.722C92.7941 288.332 90.9207 286.082 87.1738 284.254C83.5972 282.426 78.4878 281.441 73.5486 281.441Z" fill="#F4A856"/>
<path d="M87.3441 297.05C79.8503 300.566 67.5877 300.566 59.9235 296.91C52.4297 293.254 52.4297 287.488 59.9235 283.832C67.4174 280.316 79.68 280.316 87.3441 283.972C95.0083 287.629 95.0083 293.535 87.3441 297.05Z" fill="url(#paint9_radial_3016_72)"/>
<path d="M60.0935 284.676C67.5873 281.16 79.8499 281.16 87.5141 284.816C91.0907 286.504 92.9642 288.754 93.1345 291.004C93.3048 288.472 91.4313 285.941 87.5141 284.113C80.0203 280.457 67.7577 280.457 60.0935 283.972C56.1763 285.8 54.1325 288.332 54.4731 290.863C54.6434 288.613 56.5169 286.363 60.0935 284.676Z" fill="#F4A856"/>
<path d="M89.8987 297.613C80.8721 301.831 66.225 301.831 57.3687 297.472C53.1109 295.363 50.8968 292.691 50.7265 290.019C50.5562 292.972 52.7702 295.925 57.3687 298.175C66.3954 302.535 80.8721 302.535 89.8987 298.316C94.6675 296.066 96.8816 293.113 96.7113 290.16C96.541 292.972 94.3269 295.644 89.8987 297.613Z" fill="#FCE586"/>
<path d="M118.511 283.551L117.319 285.097C116.297 283.551 114.424 282.144 111.869 280.879C102.842 276.519 88.3657 276.519 79.339 280.738C76.7843 281.863 75.0812 283.269 73.889 284.816L72.5265 283.41V286.785C72.3561 289.597 74.5702 292.55 79.1687 294.8C88.1954 299.16 102.672 299.16 111.699 294.941C116.127 292.832 118.511 290.019 118.511 287.207V283.551Z" fill="#F4A856"/>
<path d="M111.699 291.285C102.672 295.503 88.0248 295.503 79.1684 291.144C70.1418 286.785 70.1418 279.894 79.1684 275.535C88.1951 271.317 102.842 271.317 111.699 275.676C120.895 280.176 120.725 287.066 111.699 291.285Z" fill="#FCCC6B"/>
<path d="M111.699 291.285C102.672 295.503 88.0248 295.503 79.1684 291.144C70.1418 286.785 70.1418 279.894 79.1684 275.535C88.1951 271.317 102.842 271.317 111.699 275.676C120.895 280.176 120.725 287.066 111.699 291.285Z" fill="url(#paint10_radial_3016_72)"/>
<path d="M95.6892 292.832C90.5798 292.832 85.6407 291.847 81.7234 290.019C77.9765 288.191 75.9327 285.801 75.9327 283.269C75.9327 280.738 77.9765 278.348 81.7234 276.66C89.3876 273.004 101.65 273.145 109.314 276.801C113.061 278.629 115.105 281.019 115.105 283.551C115.105 286.082 113.061 288.472 109.314 290.16C105.567 291.988 100.628 292.832 95.6892 292.832ZM95.3486 274.41C90.4095 274.41 85.6407 275.254 81.8937 277.082C78.3171 278.769 76.2734 281.019 76.2734 283.41C76.2734 285.801 78.1468 288.05 81.7234 289.878C89.2173 293.535 101.31 293.535 108.974 290.019C112.55 288.332 114.594 286.082 114.594 283.691C114.594 281.301 112.721 279.051 109.144 277.223C105.397 275.395 100.458 274.41 95.3486 274.41Z" fill="#F4A856"/>
<path d="M109.144 290.16C101.65 293.675 89.387 293.675 81.7229 290.019C74.2291 286.363 74.2291 280.598 81.7229 276.941C89.2167 273.426 101.479 273.426 109.144 277.082C116.808 280.738 116.808 286.504 109.144 290.16Z" fill="url(#paint11_radial_3016_72)"/>
<path d="M81.8935 277.644C89.3873 274.129 101.65 274.129 109.314 277.785C112.891 279.473 114.764 281.723 114.934 283.973C115.105 281.441 113.231 278.91 109.314 277.082C101.82 273.426 89.5576 273.426 81.8935 276.941C77.9763 278.769 75.9325 281.301 76.2731 283.832C76.4434 281.582 78.3169 279.332 81.8935 277.644Z" fill="#F4A856"/>
<path d="M111.699 290.582C102.672 294.8 88.025 294.8 79.1687 290.441C74.9108 288.332 72.6968 285.66 72.5265 282.988C72.3561 285.941 74.5702 288.894 79.1687 291.144C88.1954 295.503 102.672 295.503 111.699 291.285C116.468 289.035 118.682 286.082 118.511 283.129C118.341 285.941 116.127 288.613 111.699 290.582Z" fill="#FCE586"/>
<path d="M124.472 279.754L123.28 281.301C122.258 279.754 120.385 278.348 117.83 277.082C108.803 272.723 94.3266 272.723 85.3 276.941C82.7452 278.066 81.0421 279.473 79.8499 281.019L78.4874 279.613V282.988C78.3171 285.801 80.5312 288.754 85.1296 291.004C94.1563 295.363 108.633 295.363 117.66 291.144C122.088 289.035 124.472 286.222 124.472 283.41V279.754Z" fill="#F4A856"/>
<path d="M117.66 287.488C108.633 291.707 93.9859 291.707 85.1295 287.347C76.1029 282.988 76.1029 276.098 85.1295 271.738C94.1562 267.52 108.803 267.52 117.66 271.879C126.856 276.379 126.686 283.269 117.66 287.488Z" fill="#FCCC6B"/>
<path d="M117.66 287.488C108.633 291.707 93.9859 291.707 85.1295 287.347C76.1029 282.988 76.1029 276.098 85.1295 271.738C94.1562 267.52 108.803 267.52 117.66 271.879C126.856 276.379 126.686 283.269 117.66 287.488Z" fill="url(#paint12_radial_3016_72)"/>
<path d="M101.65 289.035C96.5408 289.035 91.6017 288.051 87.6844 286.222C83.9375 284.394 81.8937 282.004 81.8937 279.473C81.8937 276.941 83.9375 274.551 87.6844 272.863C95.3486 269.207 107.611 269.348 115.275 273.004C119.022 274.832 121.066 277.223 121.066 279.754C121.066 282.285 119.022 284.676 115.275 286.363C111.528 288.191 106.589 289.035 101.65 289.035ZM101.31 270.613C96.3705 270.613 91.6017 271.457 87.8547 273.285C84.2781 274.973 82.2344 277.223 82.2344 279.613C82.2344 282.004 84.1078 284.254 87.6844 286.082C95.1783 289.738 107.271 289.738 114.935 286.222C118.511 284.535 120.555 282.285 120.555 279.894C120.555 277.504 118.682 275.254 115.105 273.426C111.358 271.598 106.419 270.613 101.31 270.613Z" fill="#F4A856"/>
<path d="M115.105 286.223C107.611 289.738 95.3482 289.738 87.684 286.082C80.1902 282.426 80.1902 276.66 87.684 273.004C95.1779 269.488 107.44 269.488 115.105 273.145C122.769 276.941 122.769 282.707 115.105 286.223Z" fill="url(#paint13_radial_3016_72)"/>
<path d="M87.8544 273.848C95.3482 270.332 107.611 270.332 115.275 273.988C118.852 275.676 120.725 277.926 120.895 280.176C121.066 277.644 119.192 275.113 115.275 273.285C107.781 269.629 95.5185 269.629 87.8544 273.145C83.9371 274.973 81.8934 277.504 82.234 280.035C82.4043 277.785 84.2778 275.535 87.8544 273.848Z" fill="#F4A856"/>
<path d="M117.66 286.785C108.633 291.004 93.986 291.004 85.1296 286.644C80.8718 284.535 78.6577 281.863 78.4874 279.191C78.3171 282.144 80.5312 285.097 85.1296 287.347C94.1563 291.707 108.633 291.707 117.66 287.488C122.428 285.238 124.643 282.285 124.472 279.332C124.302 282.144 122.088 284.816 117.66 286.785Z" fill="#FCE586"/>
<path d="M127.708 272.442L126.516 273.988C125.494 272.442 123.621 271.035 121.066 269.77C112.039 265.411 97.5625 265.411 88.5358 269.629C85.9811 270.754 84.278 272.16 83.0858 273.707L81.7232 272.301V275.676C81.5529 278.488 83.767 281.441 88.3655 283.691C97.3921 288.051 111.869 288.051 120.895 283.832C125.324 281.723 127.708 278.91 127.708 276.098V272.442Z" fill="#F4A856"/>
<path d="M120.896 280.176C111.869 284.394 97.2218 284.394 88.3655 280.035C79.3388 275.676 79.5091 268.785 88.3655 264.426C97.3921 260.207 112.039 260.207 120.896 264.567C129.922 269.066 129.922 275.957 120.896 280.176Z" fill="#FCCC6B"/>
<path d="M120.896 280.176C111.869 284.394 97.2218 284.394 88.3655 280.035C79.3388 275.676 79.5091 268.785 88.3655 264.426C97.3921 260.207 112.039 260.207 120.896 264.567C129.922 269.066 129.922 275.957 120.896 280.176Z" fill="url(#paint14_radial_3016_72)"/>
<path d="M104.715 281.723C99.606 281.723 94.667 280.738 90.7497 278.91C87.0028 277.082 84.959 274.691 84.959 272.16C84.959 269.629 87.0028 267.238 90.7497 265.551C98.4139 261.895 110.676 262.035 118.341 265.691C122.088 267.52 124.131 269.91 124.131 272.441C124.131 274.973 122.088 277.363 118.341 279.051C114.594 280.879 109.655 281.723 104.715 281.723ZM104.545 263.301C99.606 263.301 94.8372 264.145 91.0903 265.973C87.5137 267.66 85.47 269.91 85.47 272.301C85.47 274.691 87.3434 276.941 90.92 278.769C98.4138 282.426 110.506 282.426 118.17 278.91C121.747 277.223 123.791 274.973 123.791 272.582C123.791 270.191 121.917 267.941 118.341 266.113C114.423 264.285 109.484 263.301 104.545 263.301Z" fill="#F4A856"/>
<path d="M118.341 278.91C110.847 282.425 98.5844 282.425 90.9203 278.769C83.4265 275.113 83.4265 269.348 90.9203 265.692C98.4141 262.176 110.677 262.176 118.341 265.832C125.835 269.488 125.835 275.394 118.341 278.91Z" fill="url(#paint15_radial_3016_72)"/>
<path d="M90.9204 266.535C98.4142 263.02 110.677 263.02 118.341 266.676C121.918 268.363 123.791 270.613 123.961 272.863C124.132 270.332 122.258 267.801 118.341 265.973C110.847 262.317 98.5845 262.317 90.9204 265.832C87.0032 267.66 84.9594 270.191 85.3001 272.723C85.4704 270.473 87.3438 268.223 90.9204 266.535Z" fill="#F4A856"/>
<path d="M120.895 279.473C111.869 283.691 97.2218 283.691 88.3655 279.332C84.1076 277.223 81.8935 274.551 81.7232 271.879C81.5529 274.832 83.767 277.785 88.3655 280.035C97.3921 284.394 111.869 284.394 120.895 280.176C125.664 277.926 127.878 274.973 127.708 272.02C127.538 274.832 125.153 277.504 120.895 279.473Z" fill="#FCE586"/>
<path d="M143.547 275.535L141.844 276.801C141.163 275.113 139.8 273.426 137.586 271.738C129.922 265.973 115.616 263.442 105.738 266.113C103.013 266.816 100.969 267.941 99.4359 269.207L98.4141 267.52L97.5625 270.754C96.7109 273.566 98.2437 276.801 102.161 279.613C109.825 285.379 124.132 287.91 134.01 285.238C138.949 283.972 141.844 281.582 142.525 278.769L143.547 275.535Z" fill="#F4A856"/>
<path d="M135.032 282.004C125.153 284.676 110.847 282.145 103.183 276.379C95.5186 270.613 97.2217 263.864 107.1 261.192C116.978 258.52 131.285 261.051 138.949 266.817C146.613 272.442 144.91 279.332 135.032 282.004Z" fill="#FCCC6B"/>
<path d="M135.032 282.004C125.153 284.676 110.847 282.145 103.183 276.379C95.5186 270.613 97.2217 263.864 107.1 261.192C116.978 258.52 131.285 261.051 138.949 266.817C146.613 272.442 144.91 279.332 135.032 282.004Z" fill="url(#paint16_radial_3016_72)"/>
<path d="M118.852 280.738C113.913 279.894 109.144 278.066 105.908 275.676C102.672 273.285 101.309 270.613 101.991 268.223C102.672 265.691 105.227 263.863 109.314 262.738C117.659 260.488 129.752 262.598 136.224 267.519C139.46 269.91 140.822 272.582 140.141 274.972C139.46 277.504 136.905 279.332 132.817 280.457C128.73 281.582 123.62 281.582 118.852 280.738ZM123.28 262.598C118.511 261.754 113.572 261.754 109.484 262.879C105.567 263.863 103.012 265.832 102.501 268.223C101.82 270.613 103.183 273.144 106.248 275.394C112.72 280.175 124.642 282.285 132.817 280.035C136.735 279.05 139.289 277.082 139.8 274.691C140.482 272.301 139.119 269.769 136.053 267.519C132.647 265.269 128.049 263.441 123.28 262.598Z" fill="#F4A856"/>
<path d="M132.818 280.316C124.472 282.566 112.55 280.457 106.078 275.535C99.6063 270.754 101.139 264.988 109.314 262.738C117.66 260.488 129.582 262.598 136.054 267.52C142.525 272.301 141.163 278.066 132.818 280.316Z" fill="url(#paint17_radial_3016_72)"/>
<path d="M109.144 263.582C117.489 261.332 129.411 263.441 135.883 268.363C138.949 270.613 140.311 273.144 139.8 275.394C140.652 273.004 139.46 270.191 136.053 267.66C129.581 262.879 117.659 260.77 109.314 262.879C104.886 264.004 102.501 266.254 101.991 268.645C102.842 266.395 105.227 264.566 109.144 263.582Z" fill="#F4A856"/>
<path d="M135.202 281.301C125.323 283.973 111.017 281.441 103.353 275.676C99.606 272.863 98.0731 269.91 98.5841 267.238C97.5622 270.051 99.0951 273.285 103.183 276.379C110.847 282.144 125.153 284.676 135.031 282.004C140.141 280.598 143.206 278.066 143.717 275.254C142.866 277.785 139.97 280.035 135.202 281.301Z" fill="#FCE586"/>
<path d="M108.463 195.38L106.419 196.224C106.419 194.396 105.568 192.427 104.205 190.318C98.9253 182.865 86.3221 176.959 75.9329 176.959C73.0376 176.959 70.6531 177.381 68.7797 178.225L68.4391 176.396L66.3953 179.35C64.5218 181.74 64.8625 185.256 67.4172 189.052C72.6969 196.505 85.3002 202.411 95.6894 202.411C100.969 202.411 104.546 200.865 106.249 198.474L108.463 195.38Z" fill="#F4A856"/>
<path d="M97.9036 199.458C87.5144 199.458 74.9112 193.552 69.6314 186.099C64.3517 178.646 68.6095 172.6 78.9987 172.6C89.3879 172.6 101.991 178.506 107.271 185.959C112.551 193.271 108.293 199.318 97.9036 199.458Z" fill="#FCCC6B"/>
<path d="M97.9036 199.458C87.5144 199.458 74.9112 193.552 69.6314 186.099C64.3517 178.646 68.6095 172.6 78.9987 172.6C89.3879 172.6 101.991 178.506 107.271 185.959C112.551 193.271 108.293 199.318 97.9036 199.458Z" fill="url(#paint18_radial_3016_72)"/>
<path d="M82.9161 194.115C78.488 192.006 74.741 189.193 72.5269 186.099C70.3129 183.006 69.9722 180.193 71.505 177.943C73.0379 175.693 76.2739 174.568 80.5317 174.568C89.3881 174.568 100.118 179.631 104.376 185.818C106.59 188.912 106.93 191.724 105.398 193.974C103.865 196.224 100.629 197.349 96.3709 197.349C92.1131 197.349 87.174 196.224 82.9161 194.115ZM93.8162 178.084C89.5584 176.115 84.7896 174.85 80.5317 174.85C76.4442 174.85 73.3785 175.975 71.8457 178.084C70.4832 180.193 70.8238 183.006 72.8676 185.959C77.2958 192.146 87.8552 197.068 96.5413 197.068C100.629 197.068 103.694 195.943 105.227 193.834C106.59 191.724 106.249 188.912 104.205 185.959C101.821 182.865 98.0741 180.053 93.8162 178.084Z" fill="#F4A856"/>
<path d="M96.3704 197.209C87.6844 197.209 76.9546 192.287 72.5264 185.959C68.0982 179.771 71.6748 174.709 80.3609 174.568C89.0469 174.568 99.7767 179.49 104.205 185.818C108.633 192.146 105.056 197.209 96.3704 197.209Z" fill="url(#paint19_radial_3016_72)"/>
<path d="M80.0207 175.412C88.7067 175.412 99.4365 180.334 103.865 186.662C105.908 189.615 106.249 192.287 105.057 194.255C106.76 192.146 106.59 189.193 104.376 185.959C99.9474 179.771 89.388 174.709 80.5316 174.709C75.9331 174.709 72.8675 176.115 71.5049 178.365C72.8675 176.537 75.9331 175.412 80.0207 175.412Z" fill="#F4A856"/>
<path d="M98.4148 198.755C88.0257 198.755 75.4224 192.849 70.1426 185.396C67.5879 181.881 67.2472 178.646 68.7801 176.256C66.9066 178.787 67.0769 182.162 69.802 186.099C75.0817 193.552 87.685 199.458 98.0742 199.458C103.524 199.458 107.271 197.771 108.804 195.099C106.931 197.349 103.354 198.755 98.4148 198.755Z" fill="#FCE586"/>
<path d="M104.034 228.708L103.864 230.536C101.991 229.692 99.6063 229.13 96.5406 229.13C86.1515 228.989 73.3779 234.895 68.0981 242.348C66.5653 244.458 65.884 246.286 65.7137 248.114L63.6699 247.411L65.7137 250.364C67.4169 252.895 70.9935 254.442 76.2732 254.583C86.6624 254.723 99.436 248.817 104.716 241.364C107.441 237.708 107.611 234.333 106.078 231.802L104.034 228.708Z" fill="#F4A856"/>
<path d="M102.672 238.27C97.3921 245.583 84.6186 251.489 74.2294 251.489C63.8402 251.348 59.7527 245.301 65.0324 237.989C70.3122 230.677 83.0857 224.77 93.4749 224.77C103.864 224.77 108.122 230.817 102.672 238.27Z" fill="#FCCC6B"/>
<path d="M102.672 238.27C97.3921 245.583 84.6186 251.489 74.2294 251.489C63.8402 251.348 59.7527 245.301 65.0324 237.989C70.3122 230.677 83.0857 224.77 93.4749 224.77C103.864 224.77 108.122 230.817 102.672 238.27Z" fill="url(#paint20_radial_3016_72)"/>
<path d="M89.558 246.145C85.1298 248.254 80.1907 249.379 75.7625 249.379C71.5047 249.379 68.2687 248.114 66.7359 245.864C65.2031 243.614 65.5437 240.801 67.7578 237.708C72.186 231.52 83.086 226.458 91.7721 226.599C96.0299 226.599 99.2659 227.864 100.799 230.114C102.332 232.364 101.991 235.177 99.7769 238.27C97.7331 241.364 93.8159 244.176 89.558 246.145ZM78.4876 230.114C74.2297 232.083 70.4828 234.895 68.439 237.848C66.3953 240.801 65.8843 243.614 67.4171 245.723C68.7796 247.833 71.8453 248.958 76.1032 249.098C84.7892 249.239 95.3487 244.317 99.7769 238.13C101.821 235.177 102.332 232.364 100.799 230.255C99.4363 228.146 96.3706 227.021 92.1127 226.88C87.6846 226.88 82.7454 228.146 78.4876 230.114Z" fill="#F4A856"/>
<path d="M99.7766 238.13C95.3484 244.317 84.6186 249.239 75.9326 249.239C67.2466 249.098 63.67 244.036 68.2685 237.848C72.6967 231.661 83.4264 226.739 92.1124 226.739C100.628 226.88 104.205 231.942 99.7766 238.13Z" fill="url(#paint21_radial_3016_72)"/>
<path d="M68.609 238.551C73.0372 232.364 83.767 227.442 92.453 227.442C96.5406 227.442 99.6062 228.708 100.969 230.536C99.6062 228.286 96.5405 226.88 91.942 226.739C83.256 226.599 72.5262 231.661 68.098 237.848C65.7136 241.083 65.5433 244.036 67.2464 246.145C66.0542 244.176 66.3949 241.504 68.609 238.551Z" fill="#F4A856"/>
<path d="M102.331 237.567C97.0515 244.88 84.2779 250.786 73.8888 250.786C68.9497 250.786 65.3731 249.38 63.6699 246.989C65.2027 249.661 68.9497 251.348 74.3997 251.348C84.7889 251.489 97.5624 245.583 102.842 238.13C105.567 234.333 105.738 230.817 103.864 228.286C105.227 230.817 104.886 234.052 102.331 237.567Z" fill="#FCE586"/>
<path d="M234.154 186.803L178.632 137.585L123.109 133.929C123.109 133.929 114.253 196.084 178.632 262.036C243.181 257.536 234.154 186.803 234.154 186.803Z" fill="#17994C"/>
<path d="M123.11 133.929L110.677 139.835L166.199 143.632L178.632 137.585L123.11 133.929Z" fill="#1B5633"/>
<path d="M221.722 192.849L166.199 143.632L143.377 141.663L110.677 139.835C110.677 139.835 101.82 201.99 166.199 267.942C230.578 263.442 221.722 192.849 221.722 192.849Z" fill="#2ECC71"/>
<path d="M221.722 192.849L166.199 143.632L110.677 139.975C112.21 139.272 112.21 139.272 112.21 139.272L168.584 143.069L224.106 192.287C224.106 192.287 231.6 251.348 183.571 264.988C228.875 249.942 221.722 192.849 221.722 192.849Z" fill="white"/>
<path d="M214.909 193.552L165.007 149.256L144.399 147.569L114.934 145.881C114.934 145.881 106.93 201.849 164.836 261.051C223.084 257.113 214.909 193.552 214.909 193.552Z" fill="#87E8AE"/>
<defs>
<radialGradient id="paint0_radial_3016_72" cx="0" cy="0" r="1" gradientUnits="userSpaceOnUse" gradientTransform="translate(70.9001 147.609) rotate(-46.085) scale(29.5346 30.2937)">
<stop stop-color="#FCE586"/>
<stop offset="0.2273" stop-color="#FCDB7B"/>
<stop offset="0.6161" stop-color="#FCD06F"/>
<stop offset="1" stop-color="#FCCC6B"/>
</radialGradient>
<radialGradient id="paint1_radial_3016_72" cx="0" cy="0" r="1" gradientUnits="userSpaceOnUse" gradientTransform="translate(103.899 152.431) rotate(-46.0853) scale(70.2575 72.0634)">
<stop stop-color="#FCE586"/>
<stop offset="0.2273" stop-color="#FCDB7B"/>
<stop offset="0.6161" stop-color="#FCD06F"/>
<stop offset="1" stop-color="#FCCC6B"/>
</radialGradient>
<radialGradient id="paint2_radial_3016_72" cx="0" cy="0" r="1" gradientUnits="userSpaceOnUse" gradientTransform="translate(72.1277 259.121) rotate(-14.2301) scale(32.4635 27.56)">
<stop stop-color="#FCE586"/>
<stop offset="0.2273" stop-color="#FCDB7B"/>
<stop offset="0.6161" stop-color="#FCD06F"/>
<stop offset="1" stop-color="#FCCC6B"/>
</radialGradient>
<radialGradient id="paint3_radial_3016_72" cx="0" cy="0" r="1" gradientUnits="userSpaceOnUse" gradientTransform="translate(96.0382 278.506) rotate(-14.2302) scale(77.2259 65.5616)">
<stop stop-color="#FCE586"/>
<stop offset="0.2273" stop-color="#FCDB7B"/>
<stop offset="0.6161" stop-color="#FCD06F"/>
<stop offset="1" stop-color="#FCCC6B"/>
</radialGradient>
<radialGradient id="paint4_radial_3016_72" cx="0" cy="0" r="1" gradientUnits="userSpaceOnUse" gradientTransform="translate(76.0846 254.458) rotate(-14.2301) scale(32.4638 27.5603)">
<stop stop-color="#FCE586"/>
<stop offset="0.2273" stop-color="#FCDB7B"/>
<stop offset="0.6161" stop-color="#FCD06F"/>
<stop offset="1" stop-color="#FCCC6B"/>
</radialGradient>
<radialGradient id="paint5_radial_3016_72" cx="0" cy="0" r="1" gradientUnits="userSpaceOnUse" gradientTransform="translate(99.9948 273.843) rotate(-14.2301) scale(77.2258 65.5612)">
<stop stop-color="#FCE586"/>
<stop offset="0.2273" stop-color="#FCDB7B"/>
<stop offset="0.6161" stop-color="#FCD06F"/>
<stop offset="1" stop-color="#FCCC6B"/>
</radialGradient>
<radialGradient id="paint6_radial_3016_72" cx="0" cy="0" r="1" gradientUnits="userSpaceOnUse" gradientTransform="translate(106.46 277.634) rotate(-14.2301) scale(32.4635 27.56)">
<stop stop-color="#FCE586"/>
<stop offset="0.2273" stop-color="#FCDB7B"/>
<stop offset="0.6161" stop-color="#FCD06F"/>
<stop offset="1" stop-color="#FCCC6B"/>
</radialGradient>
<radialGradient id="paint7_radial_3016_72" cx="0" cy="0" r="1" gradientUnits="userSpaceOnUse" gradientTransform="translate(130.371 297.02) rotate(-14.2302) scale(77.2258 65.5616)">
<stop stop-color="#FCE586"/>
<stop offset="0.2273" stop-color="#FCDB7B"/>
<stop offset="0.6161" stop-color="#FCD06F"/>
<stop offset="1" stop-color="#FCCC6B"/>
</radialGradient>
<radialGradient id="paint8_radial_3016_72" cx="0" cy="0" r="1" gradientUnits="userSpaceOnUse" gradientTransform="translate(60.365 284.235) rotate(-14.2301) scale(32.4635 27.56)">
<stop stop-color="#FCE586"/>
<stop offset="0.2273" stop-color="#FCDB7B"/>
<stop offset="0.6161" stop-color="#FCD06F"/>
<stop offset="1" stop-color="#FCCC6B"/>
</radialGradient>
<radialGradient id="paint9_radial_3016_72" cx="0" cy="0" r="1" gradientUnits="userSpaceOnUse" gradientTransform="translate(84.2755 303.621) rotate(-14.2301) scale(77.2258 65.5612)">
<stop stop-color="#FCE586"/>
<stop offset="0.2273" stop-color="#FCDB7B"/>
<stop offset="0.6161" stop-color="#FCD06F"/>
<stop offset="1" stop-color="#FCCC6B"/>
</radialGradient>
<radialGradient id="paint10_radial_3016_72" cx="0" cy="0" r="1" gradientUnits="userSpaceOnUse" gradientTransform="translate(82.1731 277.237) rotate(-14.23) scale(32.4636 27.56)">
<stop stop-color="#FCE586"/>
<stop offset="0.2273" stop-color="#FCDB7B"/>
<stop offset="0.6161" stop-color="#FCD06F"/>
<stop offset="1" stop-color="#FCCC6B"/>
</radialGradient>
<radialGradient id="paint11_radial_3016_72" cx="0" cy="0" r="1" gradientUnits="userSpaceOnUse" gradientTransform="translate(106.083 296.622) rotate(-14.2301) scale(77.2259 65.5614)">
<stop stop-color="#FCE586"/>
<stop offset="0.2273" stop-color="#FCDB7B"/>
<stop offset="0.6161" stop-color="#FCD06F"/>
<stop offset="1" stop-color="#FCCC6B"/>
</radialGradient>
<radialGradient id="paint12_radial_3016_72" cx="0" cy="0" r="1" gradientUnits="userSpaceOnUse" gradientTransform="translate(88.1347 273.433) rotate(-14.2302) scale(32.4635 27.5603)">
<stop stop-color="#FCE586"/>
<stop offset="0.2273" stop-color="#FCDB7B"/>
<stop offset="0.6161" stop-color="#FCD06F"/>
<stop offset="1" stop-color="#FCCC6B"/>
</radialGradient>
<radialGradient id="paint13_radial_3016_72" cx="0" cy="0" r="1" gradientUnits="userSpaceOnUse" gradientTransform="translate(112.045 292.819) rotate(-14.2302) scale(77.226 65.5618)">
<stop stop-color="#FCE586"/>
<stop offset="0.2273" stop-color="#FCDB7B"/>
<stop offset="0.6161" stop-color="#FCD06F"/>
<stop offset="1" stop-color="#FCCC6B"/>
</radialGradient>
<radialGradient id="paint14_radial_3016_72" cx="0" cy="0" r="1" gradientUnits="userSpaceOnUse" gradientTransform="translate(91.2927 266.117) rotate(-14.2302) scale(32.4636 27.5603)">
<stop stop-color="#FCE586"/>
<stop offset="0.2273" stop-color="#FCDB7B"/>
<stop offset="0.6161" stop-color="#FCD06F"/>
<stop offset="1" stop-color="#FCCC6B"/>
</radialGradient>
<radialGradient id="paint15_radial_3016_72" cx="0" cy="0" r="1" gradientUnits="userSpaceOnUse" gradientTransform="translate(115.203 285.502) rotate(-14.2299) scale(77.2257 65.5604)">
<stop stop-color="#FCE586"/>
<stop offset="0.2273" stop-color="#FCDB7B"/>
<stop offset="0.6161" stop-color="#FCD06F"/>
<stop offset="1" stop-color="#FCCC6B"/>
</radialGradient>
<radialGradient id="paint16_radial_3016_72" cx="0" cy="0" r="1" gradientUnits="userSpaceOnUse" gradientTransform="translate(109.569 263.129) rotate(-4.348) scale(32.8742 27.216)">
<stop stop-color="#FCE586"/>
<stop offset="0.2273" stop-color="#FCDB7B"/>
<stop offset="0.6161" stop-color="#FCD06F"/>
<stop offset="1" stop-color="#FCCC6B"/>
</radialGradient>
<radialGradient id="paint17_radial_3016_72" cx="0" cy="0" r="1" gradientUnits="userSpaceOnUse" gradientTransform="translate(128.167 286.145) rotate(-4.34804) scale(78.2027 64.7431)">
<stop stop-color="#FCE586"/>
<stop offset="0.2273" stop-color="#FCDB7B"/>
<stop offset="0.6161" stop-color="#FCD06F"/>
<stop offset="1" stop-color="#FCCC6B"/>
</radialGradient>
<radialGradient id="paint18_radial_3016_72" cx="0" cy="0" r="1" gradientUnits="userSpaceOnUse" gradientTransform="translate(80.5906 175.076) rotate(10.3069) scale(32.6751 27.3819)">
<stop stop-color="#FCE586"/>
<stop offset="0.2273" stop-color="#FCDB7B"/>
<stop offset="0.6161" stop-color="#FCD06F"/>
<stop offset="1" stop-color="#FCCC6B"/>
</radialGradient>
<radialGradient id="paint19_radial_3016_72" cx="0" cy="0" r="1" gradientUnits="userSpaceOnUse" gradientTransform="translate(89.8418 201.67) rotate(10.3069) scale(77.7288 65.1368)">
<stop stop-color="#FCE586"/>
<stop offset="0.2273" stop-color="#FCDB7B"/>
<stop offset="0.6161" stop-color="#FCD06F"/>
<stop offset="1" stop-color="#FCCC6B"/>
</radialGradient>
<radialGradient id="paint20_radial_3016_72" cx="0" cy="0" r="1" gradientUnits="userSpaceOnUse" gradientTransform="translate(68.5537 237.982) rotate(-41.1414) scale(30.0242 29.7997)">
<stop stop-color="#FCE586"/>
<stop offset="0.2273" stop-color="#FCDB7B"/>
<stop offset="0.6161" stop-color="#FCD06F"/>
<stop offset="1" stop-color="#FCCC6B"/>
</radialGradient>
<radialGradient id="paint21_radial_3016_72" cx="0" cy="0" r="1" gradientUnits="userSpaceOnUse" gradientTransform="translate(100.933 245.113) rotate(-41.1412) scale(71.4221 70.888)">
<stop stop-color="#FCE586"/>
<stop offset="0.2273" stop-color="#FCDB7B"/>
<stop offset="0.6161" stop-color="#FCD06F"/>
<stop offset="1" stop-color="#FCCC6B"/>
</radialGradient>
</defs>
</svg>
