<svg width="307" height="340" viewBox="0 0 307 340" fill="none" xmlns="http://www.w3.org/2000/svg">
<path d="M302.911 284.889L212.987 337.296C208.964 339.654 202.865 339.916 199.362 337.82L2.38415 222.919C-1.11941 220.954 -0.600297 217.416 3.4223 215.058L93.3468 162.652C97.3694 160.293 103.468 160.031 106.972 162.128L303.949 277.028C307.453 278.994 306.934 282.531 302.911 284.889Z" fill="#0F632D"/>
<path d="M306.285 252.004L287.729 248.729L106.972 143.262C103.468 141.296 97.3696 141.427 93.347 143.786L9.52125 192.654L0.0487061 190.951V200.646C0.0487061 201.956 0.827257 203.136 2.38439 204.053L199.362 318.953C202.865 320.919 208.964 320.788 212.987 318.429L302.911 266.023C305.117 264.713 306.285 263.01 306.285 261.438V252.004Z" fill="#1E7742"/>
<path d="M302.912 256.459L212.987 308.865C208.965 311.223 202.866 311.486 199.362 309.389L2.38485 194.488C-1.1187 192.523 -0.599595 188.986 3.423 186.628L93.3475 134.221C97.3701 131.863 103.469 131.601 106.972 133.697L303.95 248.598C307.453 250.563 306.934 254.101 302.912 256.459Z" fill="#38E57E"/>
<path d="M302.911 255.28L212.987 307.686C208.964 310.044 202.865 310.306 199.362 308.21L2.38435 193.309C1.08673 192.523 0.308183 191.606 0.0486611 190.558C-0.210861 191.999 0.56769 193.571 2.38435 194.62L199.362 309.52C202.865 311.485 208.964 311.354 212.987 308.996L302.911 256.59C305.377 255.149 306.545 253.184 306.155 251.48C306.026 252.79 304.858 254.101 302.911 255.28Z" fill="white"/>
<path d="M303.041 248.074L198.713 308.996L3.29285 195.144L107.751 134.221L303.041 248.074Z" fill="#2ECC71"/>
<path d="M61.8148 158.066L47.9304 166.189C47.2816 166.582 46.3732 166.582 45.8541 166.32L45.7244 166.189C45.2054 165.927 45.2053 165.403 45.8541 165.01L59.7386 156.887C60.3874 156.494 61.2958 156.494 61.8148 156.756L61.9445 156.887C62.5933 157.149 62.4636 157.673 61.8148 158.066Z" fill="#1C7540"/>
<path d="M28.7262 196.061L27.0392 197.109L22.887 194.619L24.5738 193.702L28.7262 196.061Z" fill="white"/>
<path d="M31.9702 194.226L30.2833 195.275L26.131 192.785L27.8179 191.737L31.9702 194.226Z" fill="white"/>
<path d="M35.2142 192.261L33.3975 193.309L29.2451 190.951L31.0618 189.903L35.2142 192.261Z" fill="white"/>
<path d="M38.4582 190.427L36.6415 191.475L32.4891 188.986L34.3058 188.069L38.4582 190.427Z" fill="white"/>
<path opacity="0.6" d="M156.8 222.264C143.175 230.256 121.116 230.256 107.491 222.264C93.866 214.272 93.866 201.432 107.491 193.44C121.116 185.448 143.175 185.448 156.8 193.44C170.425 201.432 170.425 214.272 156.8 222.264Z" fill="#17994C"/>
<path d="M132.146 239.689C118.261 239.689 104.377 236.545 93.8661 230.387C83.4852 224.36 77.9055 216.368 77.9055 207.721C77.9055 199.205 83.615 191.082 93.8661 185.055C115.017 172.74 149.404 172.74 170.555 185.055C180.936 191.082 186.516 199.074 186.516 207.721C186.516 216.237 180.806 224.36 170.555 230.387C159.915 236.676 146.03 239.689 132.146 239.689ZM132.146 176.932C118.391 176.932 104.766 179.946 94.2555 186.103C84.2639 191.999 78.6841 199.729 78.6841 207.852C78.6841 216.106 84.2639 223.836 94.2555 229.601C115.147 241.785 149.144 241.785 169.906 229.601C179.898 223.705 185.478 215.975 185.478 207.852C185.478 199.598 179.898 191.868 169.906 186.103C159.525 179.946 145.9 176.932 132.146 176.932Z" fill="white"/>
<path d="M273.326 87.9729L123.582 0.585399C122.414 -0.0696793 121.376 -0.200691 120.467 0.323372L118.261 1.63353C118.261 1.63353 118.78 1.76454 119.299 1.76454C119.04 2.41962 118.91 3.20572 118.91 4.12283V108.411C118.91 111.949 120.986 115.879 123.582 117.451L273.456 204.839C273.715 204.97 273.975 205.101 274.234 205.232V206.411L276.44 205.101C277.478 204.577 277.997 203.136 277.997 201.301V97.0129C277.997 93.4755 275.921 89.414 273.326 87.9729Z" fill="#EFEFEF"/>
<path d="M271.25 206.019L121.375 118.631C118.78 117.19 116.704 113.129 116.704 109.591V5.43396C116.704 1.89654 118.78 0.324348 121.375 1.89653L271.25 89.2839C273.845 90.7251 275.921 94.7866 275.921 98.324V202.612C275.921 205.888 273.715 207.46 271.25 206.019Z" fill="#2ECC71"/>
<path d="M158.098 118.5L129.68 101.861V98.0612L158.098 114.569V118.5Z" fill="white"/>
<path d="M193.004 138.807L164.586 122.299V118.368L193.004 135.007V138.807Z" fill="white"/>
<path d="M228.039 159.245L199.491 142.606V138.807L228.039 155.315V159.245Z" fill="white"/>
<path d="M262.945 179.553L234.527 163.045V159.114L262.945 175.753V179.553Z" fill="white"/>
<path d="M150.442 42.9033L116.704 40.152V109.721C116.704 113.259 118.78 117.189 121.375 118.761L186.256 156.494C202.995 132.518 199.232 95.8336 199.232 95.8336L150.442 42.9033Z" fill="#1E773E"/>
<path d="M187.684 103.826L138.893 50.8954L90.1031 46.965C90.1031 46.965 82.3174 113.783 138.893 184.531C195.469 179.815 187.684 103.826 187.684 103.826Z" fill="#17994C"/>
<path d="M90.1031 46.965L79.0734 53.3847L127.863 57.4462L138.893 51.0264L90.1031 46.965Z" fill="#1B5633"/>
<path d="M176.654 110.245L127.863 57.3151L107.75 55.2189L79.0732 53.2537C79.0732 53.2537 71.2875 120.072 127.863 190.82C184.569 186.235 176.654 110.245 176.654 110.245Z" fill="#2ECC71"/>
<path d="M176.654 110.245L127.863 57.3152L79.0732 53.3847C80.5006 52.5986 80.5006 52.5986 80.5006 52.5986L129.94 56.6601L178.73 109.59C178.73 109.59 185.218 173.002 143.175 187.545C183.012 171.692 176.654 110.245 176.654 110.245Z" fill="white"/>
<path d="M170.684 111.031L126.825 63.4729L108.788 61.6386L82.966 59.9354C82.966 59.9354 75.9588 119.941 126.825 183.614C177.821 179.291 170.684 111.031 170.684 111.031Z" fill="#87E8AE"/>
<path d="M205.461 276.504C205.071 276.504 204.812 276.242 204.812 275.849C204.812 275.456 205.071 275.194 205.461 275.063C215.712 274.277 226.093 271.133 234.527 266.154C243.61 260.782 249.19 255.542 250.747 250.432C250.877 250.039 251.266 249.908 251.656 250.039C252.045 250.17 252.175 250.563 252.045 250.956C250.228 256.459 244.649 261.962 235.176 267.464C226.482 272.443 216.101 275.718 205.461 276.504Z" fill="white"/>
<path d="M251.915 247.681C251.526 247.681 251.266 247.419 251.266 247.026C251.137 242.964 248.152 239.165 242.702 235.889C230.764 228.946 215.063 228.946 198.713 236.02C198.324 236.151 197.935 236.02 197.805 235.627C197.675 235.234 197.805 234.841 198.194 234.71C215.063 227.504 231.024 227.504 243.481 234.71C249.32 238.117 252.564 242.309 252.694 246.895C252.564 247.419 252.305 247.681 251.915 247.681Z" fill="white"/>
<path d="M195.08 276.504C189.241 275.98 184.18 274.539 180.417 272.312C176.135 269.822 173.54 266.547 172.761 262.617C172.631 262.093 172.761 261.568 173.15 261.044C173.799 260.258 175.097 259.865 176.524 259.865C178.081 259.996 179.379 260.651 179.638 261.7C180.417 264.32 182.363 266.678 185.348 268.381C195.988 274.539 216.49 272.705 231.024 264.189C240.367 258.686 245.427 253.184 245.427 248.074C245.427 244.536 242.962 241.13 238.161 238.379C225.833 231.173 209.224 232.745 192.485 242.571C186.386 246.109 182.104 250.432 180.287 254.756C179.898 255.673 178.73 256.197 177.303 256.328C175.875 256.328 174.707 255.804 174.188 255.018C173.929 254.494 173.799 253.97 174.059 253.446C176.524 248.336 181.455 243.619 188.462 239.558C188.851 239.427 189.241 239.427 189.37 239.82C189.5 240.213 189.5 240.606 189.111 240.737C182.363 244.668 177.562 249.253 175.226 254.101C175.226 254.232 175.226 254.232 175.226 254.363C175.486 254.756 176.135 255.018 177.173 255.018C178.211 255.018 178.73 254.625 178.86 254.363C180.806 249.777 185.348 245.192 191.706 241.523C208.964 231.435 226.093 229.994 238.809 237.331C244 240.344 246.725 244.143 246.725 248.205C246.725 253.839 241.664 259.734 231.673 265.499C216.75 274.146 195.599 276.111 184.569 269.691C181.195 267.726 178.989 265.106 178.211 262.224C178.081 261.831 177.303 261.438 176.264 261.438C175.226 261.438 174.318 261.7 174.059 262.093C173.929 262.224 173.929 262.355 173.929 262.486C174.578 265.892 177.043 268.905 180.936 271.133C184.569 273.229 189.37 274.67 194.95 275.194C195.339 275.194 195.599 275.587 195.599 275.98C195.729 276.242 195.469 276.504 195.08 276.504Z" fill="white"/>
<path d="M212.208 269.429C211.17 269.429 210.003 269.036 209.483 268.381C209.094 267.857 208.964 267.333 209.094 266.809C209.354 266.023 210.132 265.499 211.17 265.237C215.842 264.32 220.254 262.617 224.146 260.389C230.505 256.721 234.008 253.052 234.527 249.777C234.787 248.205 234.138 246.633 232.84 245.192C232.321 244.668 232.192 244.143 232.321 243.619C232.451 242.833 233.1 242.309 234.138 241.916C235.825 241.261 237.901 241.654 238.809 242.702C240.626 244.668 241.534 246.895 241.405 249.253C241.145 252.659 238.68 256.197 234.138 259.734C233.879 259.996 233.359 259.865 233.23 259.603C232.97 259.341 233.1 258.817 233.359 258.686C237.642 255.411 239.848 252.266 240.107 249.253C240.237 247.288 239.588 245.454 237.901 243.75C237.382 243.226 235.825 242.833 234.657 243.357C234.008 243.619 233.749 243.881 233.749 244.012C233.749 244.012 233.749 244.143 233.879 244.406C235.565 246.109 236.214 248.074 235.955 250.039C235.436 253.839 231.673 257.769 224.925 261.699C220.902 264.058 216.361 265.761 211.56 266.678C210.911 266.809 210.522 267.071 210.522 267.333C210.522 267.333 210.522 267.464 210.651 267.595C211.041 267.988 212.079 268.25 213.117 268.119C218.437 266.94 223.498 264.975 227.78 262.486C228.169 262.355 228.558 262.355 228.688 262.748C228.818 263.141 228.818 263.534 228.429 263.665C224.017 266.285 218.697 268.25 213.376 269.429C212.987 269.298 212.598 269.429 212.208 269.429Z" fill="white"/>
<path d="M201.438 270.478H201.308C196.248 270.347 191.965 269.298 188.851 267.464C185.218 265.368 183.401 262.486 183.401 259.079C183.401 253.839 187.943 248.074 195.469 243.619C207.537 236.675 219.475 234.317 229.337 237.331C230.375 237.593 231.153 238.248 231.283 239.034C231.413 239.558 231.283 240.213 230.894 240.737C229.985 241.785 228.039 242.178 226.352 241.654C219.345 239.558 210.521 240.999 201.568 245.847C201.178 245.978 201.049 246.24 201.049 246.371C201.049 246.502 201.179 246.633 201.438 246.764C202.217 247.157 203.514 247.157 204.293 246.764C213.246 241.916 221.681 241.13 227.26 244.405C229.466 245.716 230.764 247.419 230.764 249.384C230.764 252.528 227.65 256.066 221.551 259.603C213.116 264.451 202.087 266.023 196.896 263.01C195.21 262.093 194.301 260.782 194.042 259.079C193.782 256.983 194.69 254.625 196.896 252.266C197.026 252.135 197.026 252.004 197.026 252.004C197.026 251.873 196.767 251.611 196.377 251.48C195.339 251.087 193.912 251.349 193.523 251.873C191.187 254.494 190.019 257.114 190.408 259.472C190.668 261.306 191.836 262.879 193.912 264.058C195.988 265.237 198.843 266.023 202.087 266.154C203.774 266.285 205.071 267.071 205.201 268.25C205.201 268.774 205.071 269.167 204.682 269.56C203.644 270.084 202.606 270.478 201.438 270.478ZM220.383 237.331C212.857 237.331 204.552 239.82 196.118 244.667C188.981 248.86 184.699 254.101 184.699 258.817C184.699 261.699 186.386 264.189 189.5 266.023C192.485 267.726 196.507 268.774 201.308 268.905C202.217 268.905 202.865 268.643 203.125 268.381C203.255 268.25 203.255 268.25 203.255 268.119C203.255 267.726 202.606 267.333 201.438 267.202C197.934 266.94 194.95 266.154 192.614 264.844C190.279 263.403 188.851 261.568 188.462 259.341C188.073 256.59 189.241 253.576 191.966 250.694C192.874 249.646 194.95 249.384 196.377 250.039C197.156 250.432 197.675 250.956 197.805 251.48C197.934 252.004 197.805 252.528 197.415 252.921C195.599 254.887 194.69 256.983 194.95 258.555C195.08 259.734 195.858 260.651 197.156 261.437C201.957 264.32 212.468 262.748 220.513 258.031C226.093 254.756 229.077 251.611 229.077 248.991C229.077 247.55 228.169 246.24 226.352 245.191C221.162 242.178 213.246 243.095 204.682 247.681C203.514 248.336 201.698 248.336 200.53 247.681C199.881 247.288 199.492 246.633 199.492 245.978C199.492 245.322 199.881 244.667 200.659 244.274C210.002 239.296 219.215 237.724 226.482 239.951C227.779 240.344 229.077 239.951 229.596 239.427C229.726 239.165 229.726 239.165 229.726 239.034C229.596 238.772 229.337 238.51 228.688 238.248C226.222 237.724 223.368 237.331 220.383 237.331Z" fill="white"/>
<path d="M204.682 261.306C202.995 261.306 201.698 261.044 200.66 260.389C199.622 259.734 198.973 258.817 198.973 257.638C198.973 255.149 201.568 252.135 205.98 249.646C213.117 245.454 219.345 244.405 223.108 246.502C224.665 247.419 225.054 248.598 225.054 249.384C225.054 251.349 223.238 253.708 219.605 256.066C218.437 256.852 216.49 256.852 215.322 256.197C214.674 255.804 214.284 255.28 214.284 254.625C214.284 253.97 214.544 253.445 215.193 253.052C218.177 251.087 218.177 250.301 218.177 250.301C217.399 249.777 214.803 250.17 210.262 252.921C207.148 254.756 205.85 256.328 205.85 256.721C205.85 257.114 205.59 257.376 205.201 257.376C204.812 257.376 204.552 257.114 204.552 256.721C204.552 254.887 208.445 252.397 209.743 251.611C212.857 249.777 217.009 247.812 218.956 248.991C219.475 249.253 219.734 249.646 219.734 250.17C219.734 250.825 219.345 252.004 216.101 254.101C215.841 254.232 215.841 254.363 215.841 254.494C215.841 254.625 215.971 254.756 216.231 254.887C217.009 255.411 218.437 255.28 219.085 254.887C223.368 252.004 224.016 250.17 224.016 249.384C224.016 248.729 223.497 248.074 222.719 247.55C221.162 246.633 216.49 245.061 207.018 250.694C203.125 252.921 200.66 255.673 200.66 257.507C200.66 258.162 200.919 258.686 201.698 259.079C203.385 259.996 206.629 259.996 210.392 258.948C210.781 258.817 211.17 259.079 211.17 259.472C211.3 259.865 211.04 260.258 210.651 260.258C208.315 261.044 206.369 261.306 204.682 261.306Z" fill="white"/>
<path d="M193.393 237.593C193.263 237.593 193.263 237.593 193.134 237.593L175.226 227.111C174.967 226.98 174.967 226.718 175.097 226.456C175.226 226.194 175.486 226.194 175.746 226.325L193.653 236.806C193.912 236.937 193.912 237.199 193.782 237.462C193.653 237.593 193.523 237.593 193.393 237.593Z" fill="white"/>
<path d="M130.113 215.828L120.611 220.604L118.912 219.75L118.864 216.069C118.851 215.355 118.813 214.754 118.749 214.265C118.679 213.773 118.519 213.355 118.269 213.011C118.026 212.663 117.629 212.351 117.079 212.075C116.401 211.734 115.694 211.575 114.958 211.597C114.216 211.616 113.525 211.787 112.885 212.108C112.277 212.414 111.835 212.758 111.56 213.141C111.285 213.517 111.093 213.955 110.984 214.453L108.258 214.328C108.316 213.964 108.428 213.602 108.594 213.242C108.767 212.879 109.049 212.519 109.439 212.162C109.823 211.801 110.367 211.444 111.071 211.091C111.96 210.643 112.888 210.338 113.854 210.174C114.814 210.007 115.748 209.978 116.657 210.087C117.572 210.193 118.403 210.434 119.152 210.811C119.907 211.19 120.454 211.616 120.793 212.089C121.132 212.562 121.337 213.096 121.408 213.691C121.472 214.283 121.484 214.955 121.446 215.707L121.388 218.12L121.494 218.173L128.136 214.834L130.113 215.828ZM138.789 208.37L136.889 209.325L139.97 210.873L137.743 211.993L134.662 210.444L128.28 213.652L126.571 212.794L123.702 204.906L125.899 203.801L135.017 208.384L136.918 207.429L138.789 208.37ZM132.791 209.503L129.307 207.752C129.019 207.607 128.731 207.459 128.443 207.308C128.155 207.151 127.88 206.999 127.617 206.855C127.355 206.71 127.115 206.577 126.898 206.454C126.674 206.329 126.488 206.226 126.341 206.146L126.264 206.184C126.399 206.374 126.526 206.573 126.648 206.782C126.763 206.988 126.862 207.196 126.946 207.405L128.5 211.66L132.791 209.503ZM135.709 198.909L144.51 208.592L142.398 209.653L133.597 199.97L135.709 198.909ZM152.39 204.631L145.844 195.802L138.559 199.464L136.582 198.47L146.295 193.588L147.84 194.364L154.818 203.41L152.39 204.631Z" fill="white"/>
</svg>
