<svg width="62" height="62" viewBox="0 0 62 62" fill="none" xmlns="http://www.w3.org/2000/svg">
<rect x="2.71748" y="2.71753" width="28.5338" height="46.1975" rx="2" fill="#2ECC71"/>
<rect x="59.1057" y="2.71753" width="21.74" height="44.1594" rx="2" transform="rotate(90 59.1057 2.71753)" fill="#2ECC71"/>
<path d="M7.08397 22.4131C7.2595 22.5886 7.48994 22.6769 7.72038 22.6769C7.95081 22.6769 8.18125 22.5891 8.35725 22.4131C8.70877 22.0616 8.70877 21.4914 8.35725 21.1399L6.17114 18.9537L8.35725 16.7681C8.70877 16.4161 8.70877 15.8464 8.35725 15.4948C8.00572 15.1433 7.4355 15.1433 7.08397 15.4948L4.26147 18.3173C4.09251 18.4863 3.99771 18.7153 3.99771 18.9537C3.99771 19.1926 4.09251 19.4217 4.26147 19.5906L7.08397 22.4131Z" fill="black"/>
<path d="M16.0179 18.9535L13.8318 21.1396C13.4803 21.4911 13.4803 22.0613 13.8323 22.4129C14.0078 22.5884 14.2382 22.6766 14.4687 22.6766C14.6991 22.6766 14.9295 22.5884 15.1051 22.4129L17.928 19.5899C18.2796 19.2384 18.2796 18.6681 17.928 18.3171L15.1051 15.4941C14.7535 15.1426 14.1838 15.1426 13.8323 15.4941C13.4803 15.8461 13.4803 16.4159 13.8323 16.7674L16.0179 18.9535Z" fill="black"/>
<path d="M9.75253 22.6144C9.86047 22.6566 9.97217 22.6768 10.0815 22.6768C10.441 22.6768 10.7803 22.46 10.9197 22.1057L13.1373 16.4602C13.3194 15.9974 13.0913 15.4751 12.6285 15.293C12.1663 15.1113 11.6434 15.339 11.4618 15.8017L9.24378 21.4472C9.06215 21.91 9.28978 22.4328 9.75253 22.6144Z" fill="black"/>
<path d="M5.40744 27.9585H11.4725C11.9695 27.9585 12.3727 27.5554 12.3727 27.0579C12.3727 26.5609 11.9695 26.1577 11.4725 26.1577H5.40744C4.90996 26.1577 4.50728 26.5609 4.50728 27.0579C4.50728 27.5554 4.90996 27.9585 5.40744 27.9585Z" fill="black"/>
<path d="M25.4415 26.1577H14.7785C14.2815 26.1577 13.8783 26.5609 13.8783 27.0579C13.8783 27.5554 14.2815 27.9585 14.7785 27.9585H25.4415C25.939 27.9585 26.3421 27.5554 26.3421 27.0579C26.3421 26.5609 25.939 26.1577 25.4415 26.1577Z" fill="black"/>
<path d="M5.40744 31.7556H7.99106C8.48807 31.7556 8.89122 31.3525 8.89122 30.855C8.89122 30.358 8.48807 29.9548 7.99106 29.9548H5.40744C4.90996 29.9548 4.50728 30.358 4.50728 30.855C4.50728 31.3525 4.90996 31.7556 5.40744 31.7556Z" fill="black"/>
<path d="M22.1478 29.9548C21.6503 29.9548 21.2477 30.358 21.2477 30.855C21.2477 31.3525 21.6503 31.7556 22.1478 31.7556H23.721C24.2185 31.7556 24.6216 31.3525 24.6216 30.855C24.6216 30.358 24.2185 29.9548 23.721 29.9548H22.1478Z" fill="black"/>
<path d="M19.7781 30.855C19.7781 30.358 19.375 29.9548 18.878 29.9548H11.1501C10.6526 29.9548 10.25 30.358 10.25 30.855C10.25 31.3525 10.6526 31.7556 11.1501 31.7556H18.878C19.375 31.7556 19.7781 31.3525 19.7781 30.855Z" fill="black"/>
<path d="M25.6757 30.855C25.6757 31.3525 26.0788 31.7556 26.5758 31.7556H29.5227C30.0202 31.7556 30.4234 31.3525 30.4234 30.855C30.4234 30.358 30.0202 29.9548 29.5227 29.9548H26.5758C26.0788 29.9548 25.6757 30.358 25.6757 30.855Z" fill="black"/>
<path d="M20.7727 19.6758H23.881C24.3785 19.6758 24.7816 19.2726 24.7816 18.7752C24.7816 18.2781 24.3785 17.875 23.881 17.875H20.7727C20.2752 17.875 19.8721 18.2781 19.8721 18.7752C19.8721 19.2726 20.2752 19.6758 20.7727 19.6758Z" fill="black"/>
<path d="M27.3625 19.6758H46.3282C46.8257 19.6758 47.2284 19.2726 47.2284 18.7752C47.2284 18.2781 46.8257 17.875 46.3282 17.875H27.3625C26.865 17.875 26.4618 18.2781 26.4618 18.7752C26.4618 19.2726 26.865 19.6758 27.3625 19.6758V19.6758Z" fill="black"/>
<path d="M43.4475 21.8362H35.7647C35.2677 21.8362 34.8645 22.2393 34.8645 22.7368C34.8645 23.2338 35.2677 23.637 35.7647 23.637H43.4475C43.9445 23.637 44.3477 23.2338 44.3477 22.7368C44.3477 22.2393 43.9445 21.8362 43.4475 21.8362Z" fill="black"/>
<path d="M32.884 21.8362H30.2431C29.7457 21.8362 29.343 22.2393 29.343 22.7368C29.343 23.2338 29.7457 23.637 30.2431 23.637H32.884C33.3815 23.637 33.7842 23.2338 33.7842 22.7368C33.7842 22.2393 33.3815 21.8362 32.884 21.8362Z" fill="black"/>
<path d="M20.7727 23.637H27.2423C27.7393 23.637 28.1425 23.2338 28.1425 22.7368C28.1425 22.2393 27.7393 21.8362 27.2423 21.8362H20.7727C20.2752 21.8362 19.8721 22.2393 19.8721 22.7368C19.8721 23.2338 20.2752 23.637 20.7727 23.637Z" fill="black"/>
<path d="M18.8893 33.7202H12.8247C12.3272 33.7202 11.924 34.1234 11.924 34.6204C11.924 35.1174 12.3272 35.5205 12.8247 35.5205H18.8893C19.3863 35.5205 19.7894 35.1174 19.7894 34.6204C19.7894 34.1234 19.3863 33.7202 18.8893 33.7202Z" fill="black"/>
<path d="M10.0669 33.7202H5.40744C4.90996 33.7202 4.50728 34.1234 4.50728 34.6204C4.50728 35.1174 4.90996 35.5205 5.40744 35.5205H10.0669C10.5644 35.5205 10.967 35.1174 10.967 34.6204C10.967 34.1234 10.5644 33.7202 10.0669 33.7202Z" fill="black"/>
<path d="M29.8832 33.7202H21.9606C21.4631 33.7202 21.0604 34.1234 21.0604 34.6204C21.0604 35.1174 21.4631 35.5205 21.9606 35.5205H29.8832C30.3802 35.5205 30.7833 35.1174 30.7833 34.6204C30.7833 34.1234 30.3802 33.7202 29.8832 33.7202V33.7202Z" fill="black"/>
<path d="M40.5973 29.0955H36.265C35.768 29.0955 35.3648 29.4986 35.3648 29.9956C35.3648 30.4931 35.768 30.8962 36.265 30.8962H40.5973C41.0948 30.8962 41.4975 30.4931 41.4975 29.9956C41.4975 29.4986 41.0948 29.0955 40.5973 29.0955V29.0955Z" fill="black"/>
<path d="M48.1149 30.8962H54.2306C54.7281 30.8962 55.1312 30.4931 55.1312 29.9956C55.1312 29.4986 54.7281 29.0955 54.2306 29.0955H48.1149C47.6174 29.0955 47.2147 29.4986 47.2147 29.9956C47.2147 30.4931 47.6179 30.8962 48.1149 30.8962Z" fill="black"/>
<path d="M45.0568 29.0955H43.6554C43.1579 29.0955 42.7547 29.4986 42.7547 29.9956C42.7547 30.4931 43.1579 30.8962 43.6554 30.8962H45.0568C45.5542 30.8962 45.9569 30.4931 45.9569 29.9956C45.9569 29.4986 45.5542 29.0955 45.0568 29.0955Z" fill="black"/>
<path d="M36.265 40.7073H40.5973C41.0948 40.7073 41.4975 40.3046 41.4975 39.8071C41.4975 39.3101 41.0948 38.907 40.5973 38.907H36.265C35.768 38.907 35.3648 39.3101 35.3648 39.8071C35.3648 40.3046 35.768 40.7073 36.265 40.7073V40.7073Z" fill="black"/>
<path d="M48.1149 40.7073H54.2306C54.7281 40.7073 55.1312 40.3046 55.1312 39.8071C55.1312 39.3101 54.7281 38.907 54.2306 38.907H48.1149C47.6174 38.907 47.2147 39.3101 47.2147 39.8071C47.2147 40.3046 47.6179 40.7073 48.1149 40.7073Z" fill="black"/>
<path d="M43.6555 40.7073H45.0569C45.5543 40.7073 45.9575 40.3046 45.9575 39.8071C45.9575 39.3101 45.5543 38.907 45.0569 38.907H43.6555C43.158 38.907 42.7553 39.3101 42.7553 39.8071C42.7553 40.3046 43.158 40.7073 43.6555 40.7073Z" fill="black"/>
<path d="M40.5973 48.718H36.265C35.768 48.718 35.3648 49.1212 35.3648 49.6182C35.3648 50.1152 35.768 50.5183 36.265 50.5183H40.5973C41.0948 50.5183 41.4975 50.1152 41.4975 49.6182C41.4975 49.1212 41.0948 48.718 40.5973 48.718V48.718Z" fill="black"/>
<path d="M54.2306 48.718H48.1149C47.6174 48.718 47.2147 49.1212 47.2147 49.6182C47.2147 50.1152 47.6174 50.5183 48.1149 50.5183H54.2306C54.7281 50.5183 55.1312 50.1152 55.1312 49.6182C55.1312 49.1212 54.7281 48.718 54.2306 48.718V48.718Z" fill="black"/>
<path d="M45.0568 48.718H43.6554C43.1579 48.718 42.7547 49.1212 42.7547 49.6182C42.7547 50.1152 43.1579 50.5183 43.6554 50.5183H45.0568C45.5542 50.5183 45.9569 50.1152 45.9569 49.6182C45.9569 49.1212 45.5542 48.718 45.0568 48.718Z" fill="black"/>
<path d="M57.553 0H3.96249C1.77779 0 0 1.77732 0 3.96249V47.5236C0 49.7083 1.77779 51.4856 3.96249 51.4856H7.35053C7.84754 51.4856 8.25069 51.0829 8.25069 50.5854C8.25069 50.0884 7.84754 49.6853 7.35053 49.6853H3.96249C2.77041 49.6853 1.80079 48.7157 1.80079 47.5236V44.1083H34.6003V45.6599H33.8865C32.9098 45.6599 32.1157 46.454 32.1157 47.4306V49.6853H12.8242C12.3272 49.6853 11.9241 50.0884 11.9241 50.5854C11.9241 51.0829 12.3272 51.4856 12.8242 51.4856H21.4804V54.7145H18.7621C16.9486 54.7145 15.4736 56.1901 15.4736 58.0031V59.9479C15.4736 60.7754 16.1466 61.4484 16.974 61.4484H44.4725C45.2999 61.4484 45.9729 60.7754 45.9729 59.9479V58.0031C45.9729 56.1901 44.4979 54.7145 42.6844 54.7145H39.9661V53.5764H56.6097C57.5858 53.5764 58.3799 52.7823 58.3799 51.8057V51.3819C60.1347 50.9745 61.4465 49.3999 61.4465 47.5236L61.5145 3.96202C61.515 1.77732 59.7377 0 57.553 0V0ZM33.9165 41.9649V37.6495H56.5796V41.9649H33.9165ZM36.4006 35.8487V33.9545H54.095V35.8487H36.4006ZM54.095 43.7652V45.6599H36.4006V43.7652H54.095ZM23.2807 51.4856H32.1157V51.8061C32.1157 52.7823 32.9098 53.5764 33.8865 53.5764H38.1658V54.7145H23.2807V51.4856ZM42.6849 56.5153C43.5052 56.5153 44.1726 57.1827 44.1726 58.0031V59.648H17.2739V58.0031C17.2739 57.1827 17.9417 56.5153 18.7621 56.5153H42.6849ZM56.5796 51.7756H33.9165V47.4607H56.5796V51.7756ZM59.6462 47.5236C59.6462 48.3956 59.1262 49.147 58.3804 49.4882V47.4302C58.3804 46.454 57.5858 45.6599 56.6097 45.6599H55.8958V44.1083H59.6462V47.5236ZM59.6462 42.308H58.3508C58.3691 42.2062 58.3804 37.6195 58.3804 37.6195C58.3804 36.6428 57.5858 35.8487 56.6097 35.8487H55.8958V33.9545H56.6097C57.5858 33.9545 58.3804 33.16 58.3804 32.1838V27.8083C58.3804 26.8321 57.5858 26.0375 56.6097 26.0375H51.5245C51.0271 26.0375 50.6244 26.4407 50.6244 26.9382C50.6244 27.4352 51.0271 27.8383 51.5245 27.8383H56.5796V32.1537H33.9165V27.8383H45.9227C46.4202 27.8383 46.8229 27.4352 46.8229 26.9382C46.8229 26.4407 46.4202 26.0375 45.9227 26.0375H33.8865C32.9098 26.0375 32.1157 26.8321 32.1157 27.8083V32.1838C32.1157 33.16 32.9098 33.9545 33.8865 33.9545H34.6003V35.8487H33.8865C32.9098 35.8487 32.1157 36.6433 32.1157 37.6195C32.1157 37.6195 32.127 42.2062 32.1453 42.308H1.80079V12.2465H59.6462V42.308ZM59.6462 10.4457H1.86696V3.96202C1.86696 2.77041 2.83658 1.80079 4.02866 1.80079H57.4845C58.6765 1.80079 59.6462 2.77041 59.6462 3.96249V10.4457Z" fill="black"/>
<path d="M6.63953 3.45557C5.18275 3.45557 3.99771 4.64061 3.99771 6.09738C3.99771 7.55416 5.18275 8.73967 6.63953 8.73967C8.0963 8.73967 9.28181 7.55416 9.28181 6.09738C9.28181 4.64061 8.0963 3.45557 6.63953 3.45557ZM6.63953 6.93888C6.17584 6.93888 5.79803 6.56154 5.79803 6.09738C5.79803 5.63369 6.17584 5.25589 6.63953 5.25589C7.10369 5.25589 7.48102 5.63369 7.48102 6.09738C7.48102 6.56154 7.10369 6.93888 6.63953 6.93888Z" fill="black"/>
<path d="M13.3664 3.45557C11.9096 3.45557 10.7241 4.64061 10.7241 6.09738C10.7241 7.55416 11.9096 8.73967 13.3664 8.73967C14.8231 8.73967 16.0082 7.55416 16.0082 6.09738C16.0082 4.64061 14.8227 3.45557 13.3664 3.45557ZM13.3664 6.93888C12.9022 6.93888 12.5249 6.56154 12.5249 6.09738C12.5249 5.63369 12.9022 5.25589 13.3664 5.25589C13.8301 5.25589 14.2079 5.63369 14.2079 6.09738C14.2079 6.56154 13.8301 6.93888 13.3664 6.93888Z" fill="black"/>
<path d="M20.0926 3.45557C18.6358 3.45557 17.4508 4.64061 17.4508 6.09738C17.4508 7.55416 18.6358 8.73967 20.0926 8.73967C21.5494 8.73967 22.7349 7.55416 22.7349 6.09738C22.7349 4.64061 21.5494 3.45557 20.0926 3.45557ZM20.0926 6.93888C19.6289 6.93888 19.2511 6.56154 19.2511 6.09738C19.2511 5.63369 19.6289 5.25589 20.0926 5.25589C20.5568 5.25589 20.9341 5.63369 20.9341 6.09738C20.9341 6.56154 20.5568 6.93888 20.0926 6.93888Z" fill="black"/>
</svg>
