<svg width="74" height="48" viewBox="0 0 74 48" fill="none" xmlns="http://www.w3.org/2000/svg">
<path d="M3.95999 3.68066H58.8634C59.3715 3.68066 59.7835 4.09264 59.7835 4.60083C59.7835 5.10903 59.3716 5.521 58.8634 5.521H3.95999V3.68066Z" fill="#2ECC71"/>
<path d="M8.86755 9.81519H63.4642C64.1418 9.81519 64.6911 10.3645 64.6911 11.0421C64.6911 11.7197 64.1418 12.269 63.4642 12.269H8.86755V9.81519Z" fill="#2ECC71"/>
<path d="M13.7751 16.563H69.5986V42.9411H13.7751V16.563Z" fill="#2ECC71"/>
<rect x="4.57338" y="3.68066" width="33.126" height="0.613444" rx="0.306722" transform="rotate(90 4.57338 3.68066)" fill="#2ECC71"/>
<rect x="9.48093" y="9.81519" width="34.3529" height="0.613444" rx="0.306722" transform="rotate(90 9.48093 9.81519)" fill="#2ECC71"/>
<path fill-rule="evenodd" clip-rule="evenodd" d="M1.13593 0.0837085C0.899648 0.212652 0.499712 0.607083 0.3847 0.824596C0.294791 0.994651 0.279297 3.40767 0.279297 17.2703C0.279297 29.1164 0.301867 33.5603 0.362726 33.6779C0.485336 33.9148 0.882813 34.316 1.11358 34.4358C1.41512 34.5924 3.13039 34.5832 3.29085 34.4243C3.39647 34.3196 3.40787 32.8018 3.40787 18.8191C3.40787 4.83638 3.41927 3.31858 3.52489 3.21385C3.63089 3.10882 6.32042 3.09789 32.012 3.09789C57.7035 3.09789 60.393 3.10882 60.499 3.21385C60.5855 3.29961 60.616 3.48096 60.616 3.90979C60.616 4.74537 60.5704 4.72168 62.1803 4.72168C63.2902 4.72168 63.5299 4.70249 63.6276 4.60572C63.7273 4.50682 63.7446 4.23366 63.7446 2.75565C63.7446 1.62092 63.7158 0.965866 63.6612 0.86032C63.5386 0.623396 63.1411 0.222172 62.9103 0.102381C62.7378 0.0128517 58.3322 -0.00176191 31.9971 0.000157111C9.78315 0.0017809 1.24372 0.024957 1.13593 0.0837085ZM6.05226 6.3569C5.69269 6.54091 5.29566 6.90043 5.15205 7.17212C5.06206 7.34225 5.04687 9.74449 5.04836 23.5576L5.05014 39.7437L5.25343 40.1126C5.40501 40.3876 5.55146 40.5327 5.82901 40.6829C6.17353 40.8693 6.26604 40.8845 7.0712 40.8861C7.7644 40.8874 7.96486 40.8642 8.05819 40.7718C8.16382 40.6671 8.17522 39.1493 8.17522 25.1666C8.17522 11.1839 8.18661 9.6661 8.29224 9.56137C8.39824 9.45634 11.0878 9.44541 36.7793 9.44541C62.4708 9.44541 65.1604 9.45634 65.2664 9.56137C65.35 9.64426 65.3834 9.82184 65.3834 10.1835C65.3834 10.9341 65.3569 10.9216 66.9477 10.9216C68.0576 10.9216 68.2972 10.9024 68.3949 10.8056C68.5594 10.6426 68.5695 7.48041 68.4066 7.17212C68.259 6.89297 67.8608 6.53699 67.4907 6.35343L67.1771 6.19785L36.7637 6.20109L6.35022 6.20434L6.05226 6.3569ZM10.7079 12.701C10.3278 12.9271 10.1158 13.1372 9.95574 13.4466C9.81772 13.7133 9.81399 14.1412 9.81399 29.8911C9.81399 43.6884 9.82948 46.091 9.91939 46.261C10.0975 46.5978 10.5122 46.9359 10.9354 47.0892C11.3351 47.2339 11.6244 47.2353 41.5466 47.2353C71.4689 47.2353 71.7581 47.2339 72.1579 47.0892C72.5811 46.9359 72.9958 46.5978 73.1739 46.261C73.2638 46.091 73.2793 43.6884 73.2793 29.8911C73.2793 14.1412 73.2756 13.7133 73.1375 13.4466C72.9775 13.1372 72.7655 12.9271 72.3854 12.701L72.1247 12.5459H41.5466H10.9686L10.7079 12.701ZM70.0337 15.7613C70.1393 15.8659 70.1507 17.2429 70.1507 29.8165C70.1507 42.3901 70.1393 43.7671 70.0337 43.8718C69.9277 43.9768 67.2382 43.9877 41.5466 43.9877C15.8551 43.9877 13.1656 43.9768 13.0596 43.8718C12.954 43.7671 12.9426 42.3901 12.9426 29.8165C12.9426 17.2429 12.954 15.8659 13.0596 15.7613C13.1656 15.6562 15.8551 15.6453 41.5466 15.6453C67.2382 15.6453 69.9277 15.6562 70.0337 15.7613ZM16.1882 19.0088C16.0144 19.1811 16.0144 21.7046 16.1882 21.8769C16.3623 22.0494 19.0575 22.0494 19.2317 21.8769C19.4054 21.7046 19.4054 19.1811 19.2317 19.0088C19.1335 18.9116 18.8876 18.8929 17.7099 18.8929C16.5322 18.8929 16.2863 18.9116 16.1882 19.0088ZM21.8441 18.9786C21.2809 19.286 20.8389 20.0007 20.8377 20.6065C20.8356 21.6258 20.1532 22.6947 19.1997 23.1726C18.7167 23.4146 17.9668 23.6166 17.5512 23.6166C17.0423 23.6166 16.5486 23.9942 16.2282 24.6285C16.0732 24.9351 16.0711 25.004 16.0711 29.7962C16.0711 34.4445 16.0775 34.6702 16.2179 35.0509C16.2986 35.2696 16.441 35.5298 16.5345 35.6291C16.788 35.8986 17.3671 36.164 17.7014 36.164C18.067 36.164 18.8509 36.3582 19.2049 36.5363C20.0087 36.9408 20.8385 38.1759 20.8385 38.9677C20.8385 39.4407 21.0564 40.092 21.3018 40.3528C21.3952 40.4521 21.6298 40.6131 21.823 40.7106L22.1744 40.8878H26.9761C31.242 40.8878 31.7909 40.8749 31.8949 40.7718C32.0687 40.5996 32.0687 38.076 31.8949 37.9038C31.7915 37.8014 31.3299 37.7878 27.9435 37.7878H24.1093L23.9294 37.6097C23.8306 37.5116 23.7267 37.3373 23.6986 37.2222C23.6181 36.8919 23.1856 36.077 22.8795 35.6789C22.461 35.1344 21.4249 34.1667 20.9658 33.8915C20.743 33.758 20.3299 33.5662 20.0478 33.4655C19.7657 33.3647 19.493 33.2268 19.4418 33.1591C19.3707 33.065 19.3487 32.2845 19.3487 29.8534C19.3487 27.4199 19.3706 26.6431 19.4418 26.5524C19.493 26.4872 19.6951 26.3813 19.891 26.317C21.0567 25.9345 22.208 25.0291 22.9963 23.875C23.4213 23.2527 23.555 23.002 23.7116 22.5337C23.7771 22.3377 23.8845 22.1359 23.9504 22.0851C24.0426 22.014 24.9543 21.9928 27.924 21.9928C31.3281 21.9928 31.7915 21.9793 31.8949 21.8769C32.0687 21.7046 32.0687 19.1811 31.8949 19.0088C31.7908 18.9057 31.2357 18.8931 26.8855 18.8951C23.4677 18.8967 21.9482 18.9219 21.8441 18.9786ZM39.7961 18.9654C39.6732 18.9992 39.2542 19.0981 38.865 19.1852C37.0794 19.585 34.8707 20.8261 33.5488 22.1725C32.8255 22.9091 31.7023 24.5594 31.404 25.3239C30.7832 26.9146 30.6383 27.4396 30.5102 28.5618C30.2544 30.8026 30.6136 32.8075 31.6309 34.8184C32.1708 35.8856 32.7557 36.6776 33.6807 37.5942C34.7886 38.6919 35.8465 39.4132 37.1517 39.9604C37.418 40.072 37.7533 40.2143 37.8966 40.2766C38.742 40.6435 40.0301 40.8386 41.6211 40.8407C42.8811 40.8423 43.401 40.7834 44.3773 40.5282C45.2022 40.3126 45.3461 40.2631 45.7722 40.0492C45.9855 39.9421 46.2011 39.8545 46.2512 39.8545C46.3567 39.8545 47.1577 39.3898 47.9293 38.8809C48.5984 38.4396 49.9662 37.0992 50.5679 36.2951C51.608 34.9051 52.4025 32.9077 52.5871 31.2189C52.8074 29.2035 52.539 27.2835 51.8031 25.6094C51.7407 25.4674 51.6459 25.2352 51.5926 25.0936C51.397 24.5749 50.038 22.6487 49.4835 22.1043C48.6926 21.328 47.3761 20.4251 46.3468 19.9529C45.0959 19.3791 44.5578 19.1954 43.6324 19.0256C43.1147 18.9307 40.0949 18.8833 39.7961 18.9654ZM51.1984 19.0088C51.1007 19.1057 51.0813 19.3431 51.0813 20.4429C51.0813 21.5426 51.1007 21.78 51.1984 21.8769C51.3018 21.9793 51.7658 21.993 55.1649 21.9939C57.2822 21.9946 59.0587 22.0229 59.1128 22.0568C59.2211 22.1249 59.5732 22.8374 59.5732 22.9885C59.5732 23.1398 60.4135 24.3582 60.7731 24.7282C61.4829 25.4585 62.3859 26.0491 63.2023 26.317C63.3982 26.3813 63.6003 26.4872 63.6515 26.5524C63.7227 26.6431 63.7446 27.4199 63.7446 29.8534C63.7446 32.2838 63.7226 33.0653 63.6515 33.1604C63.6003 33.2289 63.362 33.3531 63.1219 33.4364C62.1682 33.7671 60.9798 34.6836 60.214 35.6789C59.9079 36.0767 59.4753 36.8916 59.3947 37.2222C59.3666 37.3373 59.2627 37.5116 59.1639 37.6097L58.984 37.7878H55.1497C51.7634 37.7878 51.3018 37.8014 51.1984 37.9038C51.0246 38.076 51.0246 40.5996 51.1984 40.7718C51.3024 40.8749 51.8513 40.8878 56.1172 40.8878H60.9189L61.2703 40.7106C61.4635 40.6131 61.6981 40.4521 61.7915 40.3528C62.0131 40.1173 62.2546 39.4553 62.2556 39.0805C62.2565 38.737 62.401 38.2273 62.6154 37.8109C62.8028 37.447 63.5344 36.7145 63.8884 36.5363C64.2424 36.3582 65.0263 36.164 65.3919 36.164C65.7262 36.164 66.3053 35.8986 66.5588 35.6291C66.6522 35.5298 66.7947 35.2696 66.8754 35.0509C67.0158 34.6705 67.0222 34.445 67.0222 29.8903C67.0222 25.3272 67.016 25.1109 66.8747 24.7277C66.7305 24.3371 66.3896 23.9088 66.091 23.7434C66.0091 23.698 65.7745 23.6379 65.5696 23.6098C64.2994 23.4355 63.712 23.1958 63.1219 22.6112C62.5931 22.0872 62.2573 21.3466 62.2556 20.7002C62.2538 20.0544 61.8021 19.2727 61.2715 18.9973C61.1041 18.9104 60.2533 18.8929 56.1929 18.8929C51.8582 18.8929 51.3024 18.9058 51.1984 19.0088ZM63.8616 19.0088C63.764 19.1057 63.7446 19.3431 63.7446 20.4429C63.7446 21.5426 63.764 21.78 63.8616 21.8769C64.0358 22.0494 66.731 22.0494 66.9051 21.8769C67.0789 21.7046 67.0789 19.1811 66.9051 19.0088C66.807 18.9116 66.5611 18.8929 65.3834 18.8929C64.2057 18.8929 63.9598 18.9116 63.8616 19.0088ZM42.9992 22.1258C43.4167 22.1932 43.9606 22.3637 44.8684 22.7119C45.5094 22.9577 46.9964 24.0311 47.3787 24.524C47.4797 24.6541 47.6664 24.8769 47.7936 25.019C48.3797 25.6737 49.1045 27.1732 49.3097 28.1558C49.3521 28.3588 49.4017 29.0666 49.4198 29.7288C49.4554 31.0319 49.4213 31.2567 48.9889 32.5677C48.4283 34.2676 46.8307 36.0448 45.0685 36.9288C43.7835 37.5733 41.983 37.8602 40.5038 37.6562C38.6569 37.4014 37.2583 36.7061 35.9151 35.3752C34.8116 34.2819 34.2063 33.1679 33.7622 31.4134C33.666 31.0332 33.6474 30.6811 33.6735 29.7288C33.7069 28.5089 33.7713 28.025 33.9713 27.4916C34.4138 26.3116 34.5856 25.9913 35.2401 25.1253C36.0303 24.0797 36.9452 23.3451 38.1905 22.7561C38.875 22.4324 39.7818 22.1421 40.1304 22.1353C40.2744 22.1324 40.4591 22.1002 40.541 22.0638C40.7211 21.9835 42.3767 22.0254 42.9992 22.1258ZM16.1882 37.9038C16.0905 38.0006 16.0711 38.2381 16.0711 39.3378C16.0711 40.4375 16.0905 40.675 16.1882 40.7718C16.3623 40.9443 19.0575 40.9443 19.2317 40.7718C19.4054 40.5996 19.4054 38.076 19.2317 37.9038C19.1335 37.8066 18.8876 37.7878 17.7099 37.7878C16.5322 37.7878 16.2863 37.8066 16.1882 37.9038ZM63.8616 37.9038C63.764 38.0006 63.7446 38.2381 63.7446 39.3378C63.7446 40.4375 63.764 40.675 63.8616 40.7718C64.0358 40.9443 66.731 40.9443 66.9051 40.7718C67.0789 40.5996 67.0789 38.076 66.9051 37.9038C66.807 37.8066 66.5611 37.7878 65.3834 37.7878C64.2057 37.7878 63.9598 37.8066 63.8616 37.9038Z" fill="black"/>
</svg>
