<svg width="58" height="62" viewBox="0 0 58 62" fill="none" xmlns="http://www.w3.org/2000/svg">
<path fill-rule="evenodd" clip-rule="evenodd" d="M5.95962 0.149211C5.42905 0.425881 5.48725 0.346103 1.84187 5.79697L0 8.55101V9.07439C0 9.67178 0.138221 10.0291 0.501567 10.3713C0.866573 10.7151 1.1636 10.8239 1.73708 10.8239C2.1944 10.8239 2.27952 10.8051 2.52314 10.6502C2.67341 10.5546 2.88685 10.373 2.99742 10.2468C3.10798 10.1204 3.88747 8.98767 4.72958 7.72948C6.46912 5.13045 6.51589 5.06722 6.65847 5.12196C6.75251 5.15807 6.7605 5.60918 6.7605 10.8901V16.619L6.94745 17.0111C7.23379 17.6116 7.79608 17.959 8.48135 17.959C8.95022 17.959 9.30392 17.8027 9.67495 17.4313C10.2502 16.8556 10.2022 17.6262 10.2022 8.97149V1.34736L10.0547 1.05722C9.86657 0.687236 9.51374 0.334109 9.14406 0.145827C8.86436 0.00337095 8.80831 -0.00167282 7.54613 0.00109512C6.29384 0.00380154 6.22623 0.010137 5.95962 0.149211ZM19.2367 0.0571305C19.1522 0.0841333 18.9586 0.143183 18.8065 0.188208C17.2532 0.648423 15.9618 1.8991 15.4777 3.41199C15.2382 4.16087 15.2418 4.06154 15.2418 9.71674C15.2418 15.5905 15.2269 15.2858 15.564 16.2792C15.7677 16.8797 16.0511 17.328 16.563 17.8596C17.2611 18.5847 17.9487 19.0345 18.6836 19.2467C18.8357 19.2907 19.0403 19.3511 19.1383 19.381C19.3705 19.4518 22.7904 19.4518 23.0226 19.381C23.1206 19.3511 23.3252 19.2907 23.4774 19.2467C24.1487 19.0527 25.2347 18.3898 25.6806 17.9017C25.9046 17.6565 26.5503 16.6643 26.5503 16.5653C26.5503 16.5166 26.5941 16.3919 26.6477 16.2883C26.9174 15.7663 26.9191 15.7257 26.9191 9.70924V3.98729L26.7652 3.52849C26.3912 2.41357 25.7917 1.5576 24.976 0.973933C24.2488 0.453622 23.8341 0.266017 22.9695 0.0659264C22.6319 -0.0121295 19.4763 -0.0196336 19.2367 0.0571305ZM36.5468 0.148103C36.0028 0.414809 36.1657 0.192636 32.4182 5.78012C30.8011 8.19124 30.7307 8.3046 30.579 8.74058C30.4554 9.09568 30.4599 9.25357 30.6048 9.65019C30.755 10.0615 31.0709 10.4351 31.4978 10.7063C31.7599 10.8729 32.7647 10.8756 33.0342 10.7105C33.4243 10.4715 33.7506 10.0387 35.3516 7.63685C36.5788 5.79556 37.0313 5.16231 37.1089 5.17732C37.2061 5.19602 37.2158 5.58944 37.2464 10.794C37.268 14.4591 37.3018 16.4648 37.3444 16.6058C37.516 17.1738 37.8503 17.5877 38.3326 17.8294C38.7147 18.0208 39.3629 18.0105 39.7507 17.8067C40.243 17.5482 40.519 17.2472 40.6877 16.7853C40.8057 16.4623 40.8088 16.2625 40.8088 8.97862C40.8088 1.7799 40.8045 1.4916 40.6917 1.18276C40.4989 0.655005 40.1525 0.308336 39.6252 0.115442C39.3492 0.0144427 39.1346 -0.00154979 38.0747 0.000110972C36.9067 0.00195626 36.8297 0.00939894 36.5468 0.148103ZM49.7204 0.0913299C48.5908 0.409335 48.0893 0.677641 47.4228 1.32042C46.6983 2.01917 46.2489 2.70734 46.0368 3.44275C45.9929 3.59498 45.9326 3.79981 45.9027 3.89786C45.8729 3.99597 45.8484 6.63443 45.8484 9.76121V15.4462L46.0023 15.905C46.3549 16.9561 46.9332 17.8331 47.6274 18.3694C48.0618 18.705 48.8445 19.1179 49.2902 19.2467C49.4423 19.2907 49.6469 19.3511 49.7449 19.381C49.9771 19.4518 53.397 19.4518 53.6292 19.381C53.7272 19.3511 53.9319 19.2907 54.084 19.2467C55.4826 18.8428 56.9337 17.3905 57.3373 15.9907C57.3812 15.8385 57.4415 15.6337 57.4714 15.5356C57.5012 15.4375 57.5257 12.8578 57.5257 9.80285C57.5257 3.83573 57.5408 4.1482 57.2036 3.15427C56.9923 2.53185 56.7073 2.08812 56.1691 1.54413C55.3932 0.759879 54.7459 0.391743 53.6046 0.085548C53.1725 -0.0303363 50.1366 -0.0258461 49.7204 0.0913299ZM22.4402 3.53741C22.9029 3.70029 23.1667 3.91557 23.3278 4.26169L23.4761 4.58068L23.4754 9.71674C23.4747 14.7542 23.4723 14.8581 23.3493 15.1296C23.1808 15.5016 23.0138 15.6717 22.6477 15.8445C22.3585 15.9809 22.2712 15.9896 21.1682 15.9901C19.6885 15.9909 19.4901 15.9351 19.0415 15.3917C18.6822 14.9565 18.6836 14.9777 18.6836 9.71674C18.6836 4.27418 18.6702 4.44474 19.1372 3.95002C19.5327 3.53101 19.8429 3.45228 21.1188 3.44705C21.9176 3.44379 22.2361 3.46557 22.4402 3.53741ZM53.1006 3.57063C53.4719 3.73861 53.7612 4.02408 53.9373 4.39615L54.0827 4.7037L54.0833 9.69041C54.084 15.3171 54.1072 15.0287 53.6149 15.5213C53.1956 15.941 52.9812 15.9909 51.5993 15.9901C50.4964 15.9896 50.409 15.9809 50.1199 15.8445C49.7537 15.6717 49.5868 15.5016 49.4182 15.1296C49.2953 14.8582 49.2928 14.7534 49.2915 9.73015C49.2904 5.55013 49.3055 4.57108 49.3736 4.40956C49.4954 4.12077 49.9968 3.64868 50.2933 3.5435C50.483 3.47627 50.8472 3.45154 51.6871 3.44896C52.7035 3.44582 52.8534 3.45874 53.1006 3.57063ZM3.87192 21.2507C2.74236 21.5687 2.24086 21.837 1.57433 22.4798C0.849856 23.1785 0.400467 23.8667 0.188372 24.6021C0.14449 24.7543 0.0841374 24.9592 0.0542683 25.0572C0.0244607 25.1553 0 27.7938 0 30.9206V36.6055L0.153894 37.0643C0.506423 38.1155 1.08475 38.9925 1.77893 39.5287C2.21332 39.8643 2.99607 40.2773 3.44171 40.406C3.59382 40.45 3.79848 40.5104 3.89644 40.5403C4.12863 40.6111 7.54858 40.6111 7.78078 40.5403C7.87874 40.5104 8.0834 40.4504 8.23551 40.407C9.62264 40.0111 11.0942 38.5383 11.4898 37.1501C11.5332 36.9978 11.5931 36.793 11.623 36.695C11.6528 36.5969 11.6772 34.0171 11.6772 30.9622C11.6772 25.0445 11.6902 25.3314 11.379 24.3766C10.9599 23.0906 9.65282 21.838 8.26624 21.3936C7.57157 21.171 7.42585 21.1575 5.7895 21.1652C4.67408 21.1703 4.05992 21.1978 3.87192 21.2507ZM34.5093 21.232C33.95 21.3659 33.7483 21.4377 33.2801 21.6691C33.0097 21.8028 32.6051 22.0538 32.3809 22.2269C31.9761 22.5395 31.3707 23.2702 31.0755 23.8025C30.8905 24.1362 30.6389 24.887 30.5705 25.3095C30.5055 25.7108 30.5055 36.0414 30.5705 36.4427C30.7379 37.4772 31.2838 38.5321 32.0155 39.2347C32.3366 39.543 33.3414 40.2256 33.4742 40.2256C33.5229 40.2256 33.6475 40.2694 33.751 40.323C34.2069 40.5589 34.556 40.5946 36.4083 40.5946C37.3988 40.5946 38.2894 40.5701 38.3874 40.5403C38.4854 40.5104 38.69 40.45 38.8421 40.4061C40.0207 40.0657 41.1213 39.1007 41.7442 37.8616C42.0296 37.2939 42.0889 37.1289 42.1774 36.658C42.2714 36.1574 42.3118 25.8424 42.2215 25.4017C41.8491 23.5844 40.9909 22.4127 39.4874 21.6692C39.0084 21.4322 38.8147 21.3649 38.2113 21.2253C37.8521 21.1422 34.8617 21.1476 34.5093 21.232ZM21.2034 21.8008C20.8721 21.9751 20.6711 22.1868 20.1792 22.8798C19.5475 23.7695 15.5077 29.8575 15.371 30.1257C15.0128 30.8284 15.3634 31.7948 16.1604 32.3016C16.404 32.4565 16.4892 32.4753 16.946 32.4753C17.5317 32.4753 17.8925 32.3344 18.2307 31.9734C18.3365 31.8604 19.1745 30.6383 20.0928 29.2575C21.3335 27.3921 21.7894 26.7522 21.8671 26.7672C21.9643 26.7859 21.9738 27.1858 22.003 32.507C22.0271 36.9235 22.0522 38.2786 22.1128 38.4552C22.2475 38.8471 22.5927 39.2124 23.0605 39.4582C23.8036 39.8486 24.8947 39.4692 25.2934 38.6819L25.444 38.3843V30.6296V22.8749L25.3145 22.6159C25.1374 22.262 24.8545 21.9748 24.5088 21.7979C24.2275 21.654 24.1784 21.6497 22.8494 21.6525C21.5312 21.6552 21.4696 21.6608 21.2034 21.8008ZM51.8352 21.7908C51.2363 22.114 51.1777 22.1923 48.2537 26.5869L45.8484 30.2017V30.7255C45.8484 31.1577 45.8743 31.2999 45.9966 31.5393C46.1733 31.8853 46.4603 32.1685 46.814 32.3457C47.164 32.5211 48.0007 32.5304 48.2768 32.3619C48.7037 32.1014 49.1467 31.521 50.7153 29.1672C51.9434 27.3243 52.396 26.6907 52.4737 26.7057C52.571 26.7244 52.5804 27.1294 52.6089 32.5377C52.6435 39.0781 52.6008 38.547 53.1348 39.0814C53.5093 39.4561 53.8599 39.6105 54.3369 39.6105C54.9575 39.6105 55.578 39.1909 55.9031 38.5515L56.0507 38.2613V30.6372C56.0507 21.9825 56.0987 22.753 55.5234 22.1773C55.0284 21.6819 54.8952 21.6492 53.3874 21.6524C52.1661 21.655 52.0712 21.6635 51.8352 21.7908ZM7.1113 24.7007C7.53285 24.8233 7.89816 25.1421 8.0909 25.5555L8.23428 25.863L8.2349 30.8584C8.23551 35.7388 8.23262 35.8615 8.10995 36.1896C7.97308 36.5556 7.6294 36.9169 7.2781 37.0638C7.12384 37.1283 6.75693 37.15 5.82521 37.1495C4.64415 37.1489 4.56254 37.1413 4.2714 37.0039C3.90523 36.831 3.73831 36.6609 3.56979 36.2889C3.44687 36.0175 3.44435 35.9127 3.44306 30.8895C3.44195 26.6848 3.45683 25.7313 3.52597 25.5689C3.64643 25.286 4.03681 24.9171 4.39432 24.7484C4.679 24.614 4.77776 24.6033 5.73696 24.6027C6.50648 24.6023 6.85932 24.6274 7.1113 24.7007ZM37.7229 24.7022C38.2462 24.8544 38.572 25.1932 38.7212 25.7403C38.8319 26.1463 38.8386 26.4364 38.8386 30.8761C38.8386 35.2743 38.8311 35.6089 38.7241 36.0011C38.6611 36.2318 38.5444 36.4933 38.4647 36.5823C37.9997 37.1012 37.8175 37.1502 36.3575 37.1495C35.2528 37.1489 35.1676 37.1405 34.878 37.0033C34.5345 36.8404 34.212 36.531 34.1135 36.2696C34.0694 36.1524 34.0483 34.401 34.0483 30.8534V25.6104L34.2234 25.3369C34.6203 24.7169 34.9238 24.6123 36.3436 24.6064C37.1282 24.6031 37.4622 24.6263 37.7229 24.7022ZM19.1138 42.6219C19.0293 42.6489 18.8357 42.7071 18.6836 42.7512C17.9474 42.9646 17.2609 43.4137 16.563 44.1386C16.0511 44.6702 15.7677 45.1185 15.564 45.719C15.2268 46.7126 15.2418 46.4056 15.2418 52.3061C15.2418 55.3272 15.2663 57.8792 15.2961 57.9773C15.326 58.0754 15.3863 58.2802 15.4303 58.4324C15.4742 58.5847 15.6273 58.9463 15.7704 59.236C16.2991 60.3064 16.9341 60.9419 18.0036 61.471C18.9521 61.9403 19.3058 62 21.1398 62C22.7508 62 22.8545 61.9873 23.7656 61.6776C24.4302 61.4517 24.855 61.1696 25.514 60.5164C26.035 60 26.1518 59.8434 26.432 59.2862C26.6086 58.935 26.7801 58.5508 26.8132 58.4324C26.8776 58.2023 26.9916 56.411 26.9777 55.849C26.9731 55.663 26.97 55.1302 26.9708 54.665C26.9715 54.1998 26.9722 53.6531 26.9722 53.4501C26.9722 53.2472 26.9722 52.6936 26.9722 52.22C26.9722 51.7463 26.9722 51.1927 26.9722 50.9898C26.9722 50.7868 26.9715 50.2401 26.9708 49.7749C26.97 49.3098 26.9733 48.777 26.9781 48.5909C26.9918 48.0564 26.8789 46.3678 26.8135 46.1305C26.7809 46.0121 26.7083 45.8266 26.6523 45.7184C26.5962 45.6101 26.5503 45.4816 26.5503 45.4329C26.5503 45.2871 25.8567 44.2765 25.538 43.958C25.0328 43.453 24.3753 43.0529 23.631 42.7975L22.955 42.5655L21.1112 42.569C20.0971 42.571 19.1983 42.5948 19.1138 42.6219ZM34.2291 42.6552C34.075 42.6975 33.862 42.7771 33.7558 42.832C33.6496 42.887 33.5229 42.932 33.4742 42.932C33.3414 42.932 32.3366 43.6145 32.0155 43.9228C31.2838 44.6254 30.7379 45.6803 30.5705 46.7148C30.5055 47.1162 30.5055 57.4467 30.5705 57.8481C30.8172 59.3723 31.8496 60.7724 33.245 61.4752C33.4962 61.6017 33.963 61.7715 34.2823 61.8526C34.8181 61.9886 34.9813 62 36.3908 62C37.8341 62 38.0815 61.9788 38.7499 61.798C39.3361 61.6395 40.3622 61.0266 40.8368 60.5518C41.5107 59.8772 41.9817 58.9262 42.2215 57.7558C42.3118 57.3152 42.2714 47.0002 42.1774 46.4995C42.0889 46.0286 42.0296 45.8636 41.7442 45.2959C41.1213 44.0569 40.0207 43.0919 38.8421 42.7515C38.69 42.7075 38.4854 42.6471 38.3874 42.6172C38.106 42.5314 34.5618 42.5638 34.2291 42.6552ZM6.06103 43.1807C5.78391 43.286 5.56456 43.4395 5.36138 43.6701C5.31664 43.7209 4.45246 44.9941 3.44091 46.4995C2.42941 48.005 1.30766 49.6658 0.948129 50.1901C0.125499 51.3901 0 51.6582 0 52.2166C0 52.7472 0.139696 53.0903 0.499785 53.4443C0.817037 53.7562 0.960728 53.8337 1.4162 53.9387C1.70961 54.0064 1.79737 54.0035 2.04917 53.9179C2.45203 53.7811 2.77531 53.6096 2.90849 53.4622C3.04997 53.3056 3.72878 52.3152 5.29089 49.9863C6.19704 48.6353 6.5484 48.1578 6.62535 48.1726C6.72245 48.1913 6.73192 48.6007 6.7605 54.0354L6.79122 59.8779L6.9241 60.124C7.09102 60.433 7.3915 60.7186 7.72602 60.8862C7.92514 60.986 8.09913 61.0158 8.48092 61.0158C9.27583 61.0158 9.73333 60.7165 10.0582 59.9838L10.2022 59.6591V52.0316V44.4042L10.05 44.114C9.79166 43.6213 9.49094 43.345 9.02944 43.1762C8.74058 43.0705 8.54852 43.0557 7.52959 43.0608C6.55037 43.0658 6.3124 43.0852 6.06103 43.1807ZM51.9095 43.1807C51.6324 43.286 51.413 43.4395 51.2098 43.6701C51.1651 43.7209 50.3009 44.9941 49.2894 46.4995C48.2779 48.005 47.1561 49.6658 46.7966 50.1901C45.9739 51.3901 45.8484 51.6582 45.8484 52.2166C45.8484 52.7472 45.9881 53.0903 46.3482 53.4443C46.6655 53.7562 46.8092 53.8337 47.2647 53.9387C47.6311 54.0232 47.8982 53.9684 48.4174 53.7018C48.73 53.5414 48.7895 53.4672 49.753 52.0354C52.2487 48.327 52.3713 48.1529 52.4748 48.1728C52.5706 48.1913 52.5805 48.6248 52.6089 54.0354L52.6397 59.8779L52.7725 60.124C52.9395 60.433 53.2399 60.7186 53.5745 60.8862C53.7764 60.9874 53.9472 61.0158 54.3525 61.0158C54.8613 61.0158 54.8796 61.0106 55.2615 60.7544C55.5885 60.535 55.6832 60.4287 55.8504 60.0932L56.0497 59.6934L56.0502 52.0488L56.0507 44.4042L55.8985 44.114C55.6401 43.6213 55.3394 43.345 54.8779 43.1762C54.589 43.0705 54.397 43.0557 53.378 43.0608C52.3988 43.0658 52.1609 43.0852 51.9095 43.1807ZM22.6169 46.1357C22.9886 46.3043 23.1586 46.4714 23.3313 46.8379L23.4761 47.1454L23.4767 52.2681C23.4774 57.919 23.5002 57.5874 23.079 58.054C22.7044 58.469 22.3745 58.5555 21.1644 58.5555C19.8856 58.5555 19.5775 58.4807 19.1679 58.0707C18.6652 57.5677 18.6836 57.7893 18.6836 52.2061C18.6836 46.6787 18.659 46.9719 19.1645 46.4637C19.6019 46.0238 19.6501 46.0125 21.0805 46.0112C22.2186 46.0103 22.3671 46.0223 22.6169 46.1357ZM37.8017 46.1023C38.2844 46.2704 38.572 46.5991 38.7241 47.1565C38.8311 47.5486 38.8386 47.8832 38.8386 52.2815C38.8386 56.7211 38.8319 57.0113 38.7212 57.4172C38.6248 57.7708 38.556 57.8927 38.3353 58.1014C37.9177 58.4963 37.5861 58.5671 36.2643 58.5439C35.1917 58.525 35.1706 58.522 34.8118 58.3388C34.5458 58.2029 34.394 58.0727 34.2481 57.8551L34.0483 57.5574V52.3033C34.0483 47.9896 34.0634 47.0138 34.1326 46.8513C34.2529 46.5687 34.6358 46.2122 34.9318 46.1072C35.3051 45.9747 37.425 45.9711 37.8017 46.1023Z" fill="black"/>
<rect x="19.1752" y="3.83496" width="3.83505" height="11.5052" rx="1.91753" fill="#2ECC71"/>
<rect x="49.8557" y="3.83496" width="3.83505" height="11.5052" rx="1.91753" fill="#2ECC71"/>
<rect x="34.5154" y="24.9277" width="3.83505" height="11.5052" rx="1.91753" fill="#2ECC71"/>
<rect x="34.5154" y="46.6599" width="3.83505" height="11.5052" rx="1.91753" fill="#2ECC71"/>
<rect x="19.1752" y="46.6599" width="3.83505" height="11.5052" rx="1.91753" fill="#2ECC71"/>
<rect x="3.83505" y="24.9277" width="3.83505" height="11.5052" rx="1.91753" fill="#2ECC71"/>
</svg>
