<svg width="66" height="57" viewBox="0 0 66 57" fill="none" xmlns="http://www.w3.org/2000/svg">
<path fill-rule="evenodd" clip-rule="evenodd" d="M17.3852 0.0286219C17.3579 0.0549157 17.0558 0.0994332 16.7138 0.127549C16.3718 0.155665 15.91 0.206886 15.6876 0.241315C15.0724 0.336663 12.8624 0.903541 12.6225 1.02752C12.5456 1.06729 12.3064 1.15424 12.0909 1.22069C11.8755 1.28714 11.4829 1.44673 11.2185 1.57533C10.9542 1.70394 10.701 1.80911 10.656 1.80911C10.611 1.80911 10.3752 1.9221 10.132 2.06021C9.88889 2.19831 9.39809 2.47648 9.04133 2.67831C8.50821 2.97997 6.9507 4.05684 6.82589 4.21018C6.80736 4.23289 6.62602 4.38291 6.42284 4.54354C5.95212 4.91568 5.19466 5.64664 4.8042 6.10567C4.63742 6.30177 4.43579 6.5265 4.3562 6.60512C4.11326 6.84509 3.64052 7.46416 3.06838 8.2915C2.56471 9.01986 1.50966 10.9424 1.25951 11.5877C0.869798 12.5931 0.615132 13.3764 0.492348 13.9472C0.0793175 15.8676 0 16.5856 0 18.4054C0 21.1215 0.311071 22.701 1.39402 25.4839C1.62537 26.0784 2.54793 27.7671 2.98563 28.3971C3.42386 29.028 4.43707 30.3028 4.66572 30.511C4.72469 30.5647 4.90886 30.7688 5.07498 30.9647C5.32102 31.2549 31.0018 56.0978 31.5699 56.5952C31.822 56.8159 32.4092 57 32.8614 57C33.1645 57 33.3591 56.9529 33.6933 56.799C34.0988 56.612 35.0627 55.6965 47.4167 43.7643C54.7246 36.7058 60.8402 30.7704 61.0069 30.5744C61.1735 30.3785 61.3474 30.1798 61.3933 30.1331C62.1534 29.3593 63.8148 26.686 64.2825 25.4839C65.0568 23.4943 65.3321 22.4646 65.601 20.5532C65.7016 19.8375 65.7016 16.8432 65.601 16.1275C65.4633 15.1491 65.3154 14.3514 65.1907 13.9147C64.9448 13.0539 64.8478 12.7405 64.7474 12.4828C64.6846 12.3217 64.5597 11.9901 64.4699 11.7459C63.9714 10.3908 62.2417 7.54135 61.3933 6.67776C61.3474 6.63103 61.1735 6.43226 61.0069 6.23603C60.6196 5.78019 59.8627 5.04885 59.3887 4.67279C59.1857 4.51171 58.953 4.31698 58.8716 4.24012C58.511 3.8996 57.4039 3.14639 56.4246 2.57528C55.8603 2.24622 54.4076 1.5329 54.0167 1.39297C53.877 1.34299 53.6111 1.24315 53.4258 1.17116C52.588 0.845551 51.4622 0.514601 50.6965 0.368814C49.2462 0.0925994 48.5062 0.03077 46.6531 0.03077C45.6709 0.03077 44.6096 0.0646134 44.2945 0.105941C43.3195 0.233961 42.5051 0.373305 42.0033 0.498005C41.7687 0.556255 39.8722 1.18002 39.3239 1.37917C38.7381 1.59199 36.9714 2.48579 36.3805 2.86828C35.7869 3.25247 34.5706 4.11991 34.3811 4.29414C34.3294 4.34165 34.1214 4.51217 33.9187 4.67305C33.716 4.834 33.4149 5.09011 33.2496 5.24227C33.0843 5.39444 32.8985 5.51888 32.8367 5.51888C32.775 5.51888 32.5594 5.36509 32.3577 5.17719C32.156 4.98929 31.8253 4.70384 31.6228 4.54289C31.4203 4.382 31.215 4.21402 31.1666 4.1697C30.8421 3.87233 29.684 3.0938 28.7949 2.57528C28.2306 2.24622 26.7779 1.5329 26.3869 1.39297C26.2472 1.34299 25.9662 1.23735 25.7624 1.15828C24.9878 0.857787 24.8761 0.822707 23.6733 0.502235C23.226 0.383002 22.3705 0.234416 21.4157 0.109976C20.7764 0.0266694 17.4566 -0.0403667 17.3852 0.0286219ZM21.1799 4.00731C22.0704 4.16527 22.3208 4.21766 22.7972 4.34601C23.0752 4.42092 23.4694 4.52512 23.6733 4.57764C24.9344 4.90254 27.8317 6.44469 28.6955 7.25082C28.8447 7.39003 29.1317 7.63572 29.3332 7.7968C29.5347 7.95789 30.1657 8.5368 30.7355 9.08331C31.3051 9.62982 31.8521 10.1155 31.951 10.1626C32.0498 10.2097 32.3002 10.286 32.5075 10.3321C32.853 10.409 32.9201 10.4039 33.3161 10.2709C33.5537 10.1911 33.8177 10.0835 33.9027 10.0318C33.9878 9.98003 34.5495 9.46334 35.151 8.8835C35.7525 8.30374 36.4102 7.69755 36.6125 7.53647C36.8148 7.37539 37.0718 7.15944 37.1837 7.05661C37.4405 6.82049 38.4541 6.15748 39.0718 5.82145C40.3543 5.12389 40.3054 5.14582 41.4978 4.73293C42.0231 4.55109 43.2789 4.23445 44.025 4.09576C44.2288 4.05788 44.5169 4.00458 44.6652 3.97731C44.8134 3.95004 45.708 3.92772 46.6531 3.92772C47.5983 3.92772 48.4929 3.95004 48.6411 3.97731C48.7894 4.00458 49.0775 4.05788 49.2813 4.09576C49.9757 4.22482 51.3084 4.55571 51.66 4.68633C51.8529 4.75799 52.1248 4.85743 52.2643 4.90742C53.216 5.24807 54.9431 6.21521 55.9445 6.9681C56.4982 7.38443 57.8868 8.72737 58.4345 9.37625C59.0665 10.1249 60.2026 11.9707 60.495 12.7238C60.96 13.9212 61.1437 14.5244 61.3437 15.5092C61.3872 15.724 61.438 15.9583 61.4563 16.0299C61.706 17.0038 61.686 19.7355 61.4202 20.9437C61.3849 21.1048 61.3352 21.3537 61.31 21.4969C61.2669 21.7417 61.1883 22.0219 60.8534 23.124C60.7773 23.3746 60.6449 23.7165 60.5592 23.8839C60.4735 24.0514 60.3623 24.3035 60.3121 24.4443C60.1545 24.8859 59.0675 26.6196 58.467 27.387C58.0307 27.9443 56.6905 29.3304 55.5206 30.4339C55.1531 30.7806 54.7286 31.1932 54.5772 31.351C54.4257 31.5088 54.0012 31.9188 53.6337 32.2622C53.2662 32.6056 52.8417 33.0156 52.6903 33.1734C52.5388 33.3311 52.1143 33.7411 51.7468 34.0845C51.3793 34.4279 50.9548 34.8379 50.8033 34.9957C50.6519 35.1535 50.2267 35.5635 49.8583 35.9069C49.4899 36.2502 49.035 36.6887 48.8474 36.8812C48.6599 37.0736 48.2351 37.4836 47.9035 37.7923C47.5719 38.101 47.1474 38.5111 46.96 38.7035C46.7727 38.896 46.3481 39.306 46.0166 39.6147C45.685 39.9234 45.2605 40.3334 45.0731 40.5258C44.8858 40.7183 44.4612 41.1283 44.1297 41.437C43.7981 41.7457 43.3736 42.1557 43.1862 42.3481C42.9989 42.5406 42.5449 42.9799 42.1775 43.3244C41.81 43.6689 41.3854 44.0798 41.234 44.2376C41.0826 44.3953 40.658 44.8054 40.2906 45.1487C39.9231 45.4921 39.4985 45.9021 39.3471 46.0599C39.1957 46.2177 38.7711 46.6277 38.4037 46.9711C38.0362 47.3145 37.6116 47.7236 37.4602 47.8804C37.0733 48.2809 36.1462 49.1732 35.7953 49.4828C35.6329 49.626 35.3789 49.8757 35.2306 50.0376C35.0824 50.1995 34.7945 50.4631 34.591 50.6234C34.3874 50.7836 33.96 51.1675 33.6412 51.4764C33.3223 51.7854 32.9966 52.0717 32.9174 52.1127C32.784 52.1816 32.0051 51.446 22.4333 42.2114C16.7462 36.7248 11.9011 32.0591 11.6666 31.8434C10.6587 30.9164 7.49453 27.7679 7.18474 27.3836C6.09552 26.0326 5.19143 24.376 4.70009 22.8311C4.14675 21.0912 4.039 20.3697 4.039 18.4054C4.039 16.6769 4.12573 15.9358 4.46564 14.7607C4.54327 14.4923 4.6513 14.1115 4.70568 13.9147C4.83291 13.4541 4.98083 13.1157 5.55553 11.9704C6.33981 10.4074 7.0468 9.466 8.45153 8.11422C9.837 6.78104 10.6952 6.18696 12.4786 5.3263C13.7234 4.72564 14.1276 4.59723 16.3793 4.08704C16.5374 4.05124 16.7649 4.01987 16.8847 4.0174C17.0047 4.01486 17.1635 3.98694 17.2376 3.95531C17.4152 3.87949 20.7037 3.9229 21.1799 4.00731Z" fill="black"/>
<path fill-rule="evenodd" clip-rule="evenodd" d="M18.784 6.7462C18.7069 6.77492 18.4471 6.80024 18.2067 6.80252C17.9663 6.80474 17.6351 6.83258 17.4707 6.86428C15.9836 7.15118 15.357 7.30651 14.0667 7.70833C12.8448 8.08881 10.898 9.17153 9.74951 10.1093C7.87283 11.6417 6.41707 13.9975 6.04444 16.1051C5.94329 16.6772 5.94687 18.8027 6.05005 19.4385C6.19206 20.3137 6.34641 21.0335 6.47651 21.4269C6.81367 22.4466 7.14852 23.328 7.34297 23.7076C7.40066 23.8202 7.51786 24.057 7.60345 24.2339C8.6415 26.3789 9.95243 28.2901 12.1508 30.8631C12.7675 31.585 14.5314 33.4886 14.6783 33.5909C14.7014 33.607 14.8614 33.7649 15.0338 33.9418C15.2063 34.1187 15.364 34.2766 15.3843 34.2927C15.4046 34.3087 15.5627 34.4666 15.7356 34.6435C15.9084 34.8205 16.1603 35.0573 16.2956 35.1699C16.4308 35.2825 16.6832 35.5193 16.8565 35.6962C17.0299 35.8731 17.3137 36.1363 17.4872 36.281C17.6607 36.4258 17.9446 36.6882 18.1181 36.8642C18.5267 37.2789 25.6081 43.1876 26.11 43.5327C26.3205 43.6774 26.8563 44.0985 27.3006 44.4683C27.745 44.8382 28.2814 45.2593 28.4926 45.404C28.7038 45.5488 29.1453 45.8909 29.4736 46.1643C29.8019 46.4377 30.2424 46.7798 30.4524 46.9245C30.6624 47.0693 31.1722 47.4653 31.5853 47.8047C31.9984 48.144 32.4493 48.4724 32.5874 48.5344C32.8347 48.6455 32.8417 48.6455 33.0876 48.5351C33.2248 48.4734 33.6442 48.1714 34.0196 47.8638C34.395 47.5563 34.8739 47.1863 35.0838 47.0415C35.2937 46.8968 35.7657 46.5283 36.1327 46.2228C36.4998 45.9172 36.9728 45.5488 37.184 45.404C37.3952 45.2593 37.9315 44.8382 38.3758 44.4683C38.8202 44.0985 39.356 43.6774 39.5665 43.5327C40.0684 43.1876 47.1497 37.2789 47.5584 36.8642C47.7319 36.6882 48.0158 36.4258 48.1893 36.281C48.3628 36.1363 48.6466 35.8731 48.8199 35.6962C48.9933 35.5193 49.2457 35.2825 49.3809 35.1699C49.5161 35.0573 49.7681 34.8205 49.9409 34.6435C50.1138 34.4666 50.2718 34.3087 50.2921 34.2927C50.3125 34.2766 50.4702 34.1187 50.6426 33.9418C50.8151 33.7649 50.975 33.607 50.9981 33.5909C51.1451 33.4886 52.909 31.585 53.5257 30.8631C55.702 28.3158 57.0541 26.3449 58.0734 24.2339C58.1587 24.057 58.2758 23.8202 58.3335 23.7076C58.5279 23.328 58.8628 22.4466 59.1999 21.4269C59.33 21.0335 59.4844 20.3137 59.6264 19.4385C59.7296 18.8027 59.7332 16.6772 59.632 16.1051C59.2594 13.9975 57.8036 11.6417 55.927 10.1093C54.7791 9.17199 52.8375 8.09197 51.6098 7.70786C49.1335 6.93311 47.9034 6.73129 45.6658 6.73269C43.6078 6.73392 42.0794 6.92217 40.6539 7.3499C39.4249 7.71868 39.2329 7.79383 38.3057 8.26852C37.4566 8.70321 36.9346 9.06041 35.9663 9.8692C34.9228 10.7408 34.4495 11.223 33.6195 12.26C33.1568 12.838 32.9372 13.0641 32.8382 13.0641C32.7393 13.0641 32.5196 12.838 32.0569 12.26C31.2269 11.223 30.7536 10.7408 29.7102 9.8692C28.543 8.89433 27.6437 8.33086 26.4472 7.82483C25.6211 7.47552 24.0375 7.05136 23.0598 6.91761C21.8692 6.75474 19.0632 6.64222 18.784 6.7462Z" fill="#2ECC71"/>
</svg>
