<svg width="62" height="62" viewBox="0 0 62 62" fill="none" xmlns="http://www.w3.org/2000/svg">
<path fill-rule="evenodd" clip-rule="evenodd" d="M1.15022 0.15379C0.787298 0.336873 0.322123 0.811533 0.144202 1.18036L0 1.47927L0.000908071 30.1504C0.00163453 55.5056 0.0122892 58.8517 0.0927444 59.0828C0.39828 59.96 0.912188 60.7415 1.44795 61.1435C1.79411 61.4033 2.45185 61.7452 2.91697 61.9072C3.14804 61.9877 6.4938 61.9984 31.8469 61.9991L60.5154 62L60.8143 61.8558C61.1969 61.6712 61.6622 61.2059 61.8468 60.8232C62.0526 60.3965 62.0508 59.7216 61.8428 59.302C61.594 58.8004 61.184 58.416 60.7147 58.2445C60.3919 58.1265 60.0942 58.1252 32.2266 58.1252C6.70556 58.1252 4.05575 58.1163 3.96954 58.0301C3.88515 57.9457 3.87444 57.5192 3.87444 54.2504C3.87444 50.9817 3.88515 50.5552 3.96954 50.4708C4.05224 50.3881 4.32811 50.3757 6.07415 50.3757C7.92256 50.3757 8.10968 50.3661 8.40983 50.2564C9.16183 49.9815 9.6861 49.2347 9.6861 48.4383C9.6861 47.6419 9.16183 46.8951 8.40983 46.6202C8.10968 46.5105 7.92256 46.5009 6.07415 46.5009C4.32811 46.5009 4.05224 46.4884 3.96954 46.4058C3.88588 46.3221 3.87456 45.9848 3.87535 43.6057C3.87589 42.1179 3.8975 40.8672 3.92341 40.8264C3.94938 40.7856 4.14559 40.6963 4.35953 40.6279C4.57341 40.5596 4.80376 40.4656 4.87144 40.4192C5.68556 39.8596 6.00641 38.9495 5.6924 38.0903C5.47597 37.4981 5.02587 37.0877 4.35953 36.8747C4.14559 36.8064 3.94938 36.7171 3.92341 36.6763C3.8975 36.6355 3.87589 35.3848 3.87535 33.897C3.87456 31.5179 3.88588 31.1806 3.96954 31.0969C4.05224 31.0143 4.32811 31.0018 6.07415 31.0018C7.92256 31.0018 8.10968 30.9922 8.40983 30.8825C9.16183 30.6076 9.6861 29.8608 9.6861 29.0644C9.6861 28.268 9.16183 27.5212 8.40983 27.2463C8.10968 27.1366 7.92256 27.127 6.07415 27.127C4.32811 27.127 4.05224 27.1145 3.96954 27.0319C3.88588 26.9482 3.87456 26.6109 3.87535 24.2318C3.87589 22.744 3.8975 21.4933 3.92341 21.4525C3.94938 21.4117 4.14559 21.3224 4.35953 21.2541C5.02587 21.0411 5.47597 20.6307 5.6924 20.0385C6.00641 19.1793 5.68556 18.2692 4.87144 17.7096C4.80376 17.6632 4.57341 17.5692 4.35953 17.5009C4.14559 17.4325 3.94938 17.3432 3.92341 17.3024C3.8975 17.2616 3.87589 16.0109 3.87535 14.5232C3.87456 12.144 3.88588 11.8068 3.96954 11.723C4.05224 11.6404 4.32811 11.6279 6.07415 11.6279C7.92256 11.6279 8.10968 11.6183 8.40983 11.5086C9.16183 11.2337 9.6861 10.4869 9.6861 9.69052C9.6861 8.89413 9.16183 8.14733 8.40983 7.8724C8.10968 7.7627 7.92256 7.75313 6.07415 7.75313C4.32811 7.75313 4.05224 7.74066 3.96954 7.65802C3.88564 7.57411 3.87444 7.21139 3.87444 4.58454C3.87444 1.77224 3.86778 1.58806 3.75518 1.27996C3.58367 0.810625 3.19932 0.400625 2.69776 0.151852C2.28798 -0.0513919 1.55516 -0.0504837 1.15022 0.15379Z" fill="black"/>
<path fill-rule="evenodd" clip-rule="evenodd" d="M44.2377 16.142C43.7399 16.3311 43.2948 16.7855 43.1087 17.2946C42.8937 17.883 43.0101 18.6992 43.366 19.0974C43.5819 19.339 43.6124 19.3688 43.8237 19.543C44.1923 19.8469 44.2932 19.8577 47.075 19.8916C49.4553 19.9206 49.679 19.932 49.697 20.0257C49.7239 20.1654 31.534 38.3588 31.3674 38.3588C31.292 38.3588 30.4443 37.5569 29.0471 36.1641C27.8363 34.957 26.7771 33.9072 26.6936 33.8313C26.473 33.6309 25.9401 33.4547 25.5545 33.4547C25.169 33.4547 24.6362 33.6309 24.415 33.8313C24.2161 34.0116 14.488 43.7406 14.3077 43.9395C13.9279 44.3585 13.8106 45.3295 14.0764 45.8541C14.2623 46.221 14.7265 46.6853 15.0934 46.8712C15.618 47.1371 16.5893 47.0197 17.0076 46.6399C17.0912 46.564 19.0217 44.6424 21.2975 42.3698C23.9492 39.7217 25.4778 38.2377 25.5537 38.2377C25.6284 38.2377 26.4829 39.0461 27.8735 40.4324C29.0843 41.6395 30.1434 42.6892 30.227 42.7651C30.4476 42.9655 30.9805 43.1417 31.3661 43.1417C31.7516 43.1417 32.2845 42.9656 32.5056 42.7651C32.5893 42.6892 37.109 38.1777 42.5494 32.7397C49.1561 26.1357 52.4748 22.8587 52.5431 22.8719C52.6365 22.8899 52.648 23.1151 52.6769 25.4941C52.7108 28.2761 52.7217 28.377 53.0256 28.7456C53.5056 29.3278 53.9852 29.58 54.6127 29.58C55.4091 29.58 56.1558 29.0557 56.4307 28.3036C56.5459 27.9884 56.55 27.8 56.55 22.7783V17.5794L56.3686 17.2075C56.0911 16.6384 55.7607 16.3155 55.2737 16.1375C54.9581 16.0221 54.7778 16.0184 49.7403 16.024C44.8248 16.0295 44.5166 16.0361 44.2377 16.142Z" fill="#2ECC71"/>
</svg>
