<svg width="63" height="63" viewBox="0 0 63 63" fill="none" xmlns="http://www.w3.org/2000/svg">
<rect x="15.8836" y="4.63281" width="31.1053" height="37.7235" fill="#2ECC71"/>
<path d="M23.9731 11.1301C20.9382 11.1301 18.4691 13.5992 18.4691 16.6341C18.4691 19.669 20.9382 22.138 23.9731 22.138C27.008 22.138 29.477 19.669 29.477 16.6341C29.477 13.5992 27.008 11.1301 23.9731 11.1301ZM23.9731 18.4687C22.9614 18.4687 22.1384 17.6457 22.1384 16.6341C22.1384 15.6225 22.9614 14.7994 23.9731 14.7994C24.9847 14.7994 25.8077 15.6225 25.8077 16.6341C25.8077 17.6457 24.9847 18.4687 23.9731 18.4687Z" fill="black"/>
<path d="M38.6503 25.8074C35.6154 25.8074 33.1464 28.2764 33.1464 31.3113C33.1464 34.3462 35.6154 36.8153 38.6503 36.8153C41.6852 36.8153 44.1543 34.3462 44.1543 31.3113C44.1543 28.2764 41.6852 25.8074 38.6503 25.8074ZM38.6503 33.146C37.6387 33.146 36.8157 32.323 36.8157 31.3113C36.8157 30.2997 37.6387 29.4767 38.6503 29.4767C39.6619 29.4767 40.485 30.2997 40.485 31.3113C40.485 32.323 39.6619 33.146 38.6503 33.146Z" fill="black"/>
<path d="M39.668 11.4384C38.8249 10.8765 37.6858 11.1042 37.1238 11.9473L22.4466 33.9631C21.8844 34.8062 22.1123 35.9453 22.9554 36.5073C23.7989 37.0695 24.9379 36.8411 25.4995 35.9984L40.1768 13.9825C40.7389 13.1394 40.5112 12.0004 39.668 11.4384Z" fill="black"/>
<path d="M60.7885 36.8154H51.493V1.83465C51.493 0.821435 50.6715 0 49.6583 0H12.9653C11.9521 0 11.1306 0.821435 11.1306 1.83465V36.8154H1.83505C0.0812448 36.8154 -0.673776 39.0602 0.73328 40.117L30.21 62.2551C30.8627 62.7453 31.7609 62.7453 32.4136 62.2551L61.8903 40.117C63.2926 39.0637 62.5482 36.8154 60.7885 36.8154ZM31.3118 58.4936L7.33289 40.4847H12.9653C13.9785 40.4847 14.7999 39.6632 14.7999 38.65V3.6693H47.8237V38.65C47.8237 39.6632 48.6451 40.4847 49.6583 40.4847H55.2907L31.3118 58.4936Z" fill="black"/>
<path d="M31.1053 57.5779L52.885 41.198H9.32568L31.1053 57.5779Z" fill="#2ECC71"/>
</svg>
