<svg width="30" height="31" viewBox="0 0 30 31" fill="none" xmlns="http://www.w3.org/2000/svg">
<path fill-rule="evenodd" clip-rule="evenodd" d="M14.4769 0.0275765C14.4622 0.0428401 14.311 0.0621562 14.1408 0.0704684C13.8022 0.0870335 13.4229 0.127322 13.1494 0.175746C13.0527 0.192843 12.9009 0.219555 12.8119 0.235084C12.7229 0.250614 12.5837 0.277237 12.5025 0.294246C12.4213 0.311255 12.2947 0.33767 12.2213 0.352904C12.0967 0.378757 12.0098 0.400351 11.7431 0.471729C11.6851 0.487259 11.587 0.512373 11.5252 0.527518C11.246 0.595909 10.3433 0.912303 9.97826 1.06967C9.26604 1.37678 8.19578 1.94156 7.71217 2.2655C7.61272 2.33211 7.46374 2.43079 7.3811 2.48478C7.2985 2.53879 7.21623 2.59816 7.19829 2.61674C7.18037 2.63531 7.08345 2.70867 6.9829 2.77979C6.88235 2.85087 6.79376 2.91734 6.78603 2.92748C6.77829 2.93763 6.72767 2.97792 6.67352 3.01702C6.61938 3.05613 6.56876 3.09606 6.56102 3.10576C6.55329 3.11547 6.50266 3.1554 6.44852 3.19453C6.39438 3.23364 6.3311 3.28689 6.30789 3.31283C6.28469 3.33877 6.22141 3.39213 6.16727 3.43142C6.11313 3.47067 6.03719 3.53711 5.99851 3.57905C5.95984 3.621 5.8839 3.688 5.82976 3.72796C5.70162 3.82256 4.51439 5.07122 4.42445 5.20599C4.38645 5.26293 4.32275 5.3428 4.28287 5.38347C4.24298 5.42414 4.17981 5.50401 4.14249 5.56095C4.10514 5.6179 4.0544 5.68445 4.02974 5.70886C4.00507 5.73326 3.95445 5.79982 3.91726 5.85676C3.88005 5.9137 3.84208 5.96695 3.83286 5.97508C3.82363 5.98322 3.78566 6.03646 3.74848 6.0934C3.7113 6.15035 3.67299 6.20359 3.66335 6.21173C3.6537 6.21986 3.5905 6.31304 3.52292 6.41879C3.4553 6.52454 3.38555 6.62648 3.36789 6.64532C3.35023 6.66419 3.29378 6.75072 3.24242 6.83759C3.19109 6.9245 3.09727 7.08119 3.03393 7.18579C2.8454 7.49712 2.72463 7.73167 2.41599 8.3859C2.1394 8.97216 2.03452 9.21191 1.89527 9.57652C1.86265 9.66192 1.81104 9.79503 1.78055 9.87233C1.70351 10.0678 1.4316 10.9696 1.38145 11.1961C1.36705 11.2611 1.34376 11.361 1.3297 11.4179C1.27485 11.6401 1.24068 11.7937 1.21453 11.9356C1.19953 12.0169 1.17445 12.15 1.15875 12.2314C1.14309 12.3127 1.11817 12.4558 1.1034 12.5494C1.08864 12.6429 1.06324 12.8027 1.04698 12.9043C1.00094 13.192 0.962635 13.5909 0.946885 13.9471C0.938981 14.126 0.920615 14.2851 0.906103 14.3005C0.871143 14.3377 0.871143 15.9524 0.906103 15.9896C0.920615 16.005 0.938981 16.1641 0.946885 16.3431C0.962635 16.6993 1.00094 17.0982 1.04698 17.3858C1.06324 17.4875 1.08864 17.6472 1.1034 17.7408C1.11817 17.8343 1.14309 17.9774 1.15875 18.0588C1.17445 18.1401 1.19953 18.2732 1.21453 18.3546C1.23989 18.4922 1.25955 18.5803 1.32841 18.8648C1.34317 18.9259 1.36705 19.029 1.38145 19.0941C1.43312 19.3274 1.70464 20.2256 1.78387 20.4252C1.81613 20.5066 1.86777 20.6397 1.89856 20.721C2.15563 21.3997 2.72342 22.5916 3.03393 23.1043C3.09727 23.2089 3.19109 23.3656 3.24242 23.4525C3.29378 23.5394 3.35023 23.6259 3.36789 23.6448C3.38555 23.6637 3.4553 23.7656 3.52292 23.8713C3.5905 23.9771 3.6537 24.0703 3.66335 24.0784C3.67299 24.0865 3.7113 24.1398 3.74848 24.1967C3.78566 24.2537 3.82363 24.3069 3.83286 24.3151C3.84208 24.3232 3.88005 24.3764 3.91726 24.4334C3.95445 24.4903 4.00507 24.5569 4.02974 24.5813C4.0544 24.6057 4.10514 24.6722 4.14249 24.7292C4.17981 24.7861 4.24298 24.866 4.28287 24.9067C4.32275 24.9473 4.38645 25.0272 4.42445 25.0842C4.51439 25.2189 5.70162 26.4676 5.82976 26.5622C5.8839 26.6021 5.95984 26.6691 5.99851 26.7111C6.03719 26.753 6.11313 26.8195 6.16727 26.8587C6.22141 26.898 6.28469 26.9514 6.30789 26.9773C6.3311 27.0033 6.39438 27.0565 6.44852 27.0956C6.50266 27.1347 6.55329 27.1747 6.56102 27.1844C6.56876 27.1941 6.61938 27.234 6.67352 27.2731C6.72767 27.3122 6.77829 27.3525 6.78603 27.3627C6.79376 27.3728 6.88235 27.4393 6.9829 27.5104C7.08345 27.5815 7.18037 27.6548 7.19829 27.6734C7.21623 27.692 7.2985 27.7513 7.3811 27.8054C7.46374 27.8593 7.61272 27.958 7.71217 28.0246C8.00819 28.2229 8.23119 28.3499 8.85324 28.6746C9.70876 29.121 10.0085 29.2529 10.7798 29.5225C11.1665 29.6576 11.3782 29.7264 11.5111 29.7599C11.6301 29.79 11.8066 29.8356 11.9681 29.8781C12.1423 29.9239 12.5484 30.0091 12.8119 30.0551C12.9009 30.0706 13.0527 30.0973 13.1494 30.1144C13.4229 30.1628 13.8022 30.2031 14.1408 30.2197C14.311 30.228 14.4622 30.2473 14.4769 30.2626C14.492 30.2783 14.7932 30.2903 15.172 30.2903C15.8041 30.2903 15.842 30.2872 15.8695 30.2331C15.8893 30.1943 15.8987 28.4338 15.8987 24.7505C15.8987 19.5471 15.8966 19.3231 15.8476 19.2765C15.8025 19.2336 15.6751 19.227 14.7577 19.2202L13.7189 19.2124V17.3045V15.3965L14.7726 15.3888C15.4525 15.3837 15.8366 15.3701 15.8554 15.3503C15.8744 15.3304 15.8909 14.7548 15.9026 13.7016C15.9194 12.1991 15.933 11.917 16.0078 11.5214C16.1263 10.8948 16.3516 10.313 16.6651 9.82435C17.0023 9.29882 17.6194 8.79317 18.2036 8.56374C18.2662 8.53913 18.3712 8.49727 18.437 8.47071C18.5027 8.44417 18.6008 8.41149 18.6549 8.39812C18.7091 8.38475 18.8103 8.35907 18.8799 8.34103C19.4477 8.19395 19.5809 8.18614 21.58 8.18239L23.4784 8.17884V10.0868V11.9947L22.3112 12.0115C21.6088 12.0216 21.0992 12.0411 21.0315 12.0605C20.7326 12.1462 20.6464 12.1901 20.524 12.3188C20.2858 12.5692 20.2545 12.7963 20.2483 14.3168L20.244 15.3669L21.8509 15.3746C23.0909 15.3804 23.4639 15.3906 23.4844 15.4189C23.5112 15.456 23.4935 15.8007 23.436 16.3579C23.4201 16.5124 23.3949 16.7653 23.38 16.9199C23.3651 17.0745 23.3398 17.3274 23.3238 17.4819C23.3077 17.6365 23.2824 17.8894 23.2675 18.044C23.2267 18.4676 23.1878 18.8371 23.1631 19.0349L23.1409 19.2124L21.6925 19.2272L20.244 19.242L20.2369 24.2689C20.2317 27.926 20.2383 29.3013 20.261 29.3161C20.2905 29.3353 20.3719 29.3079 20.7151 29.1632C20.7964 29.1289 20.9102 29.0824 20.9681 29.0598C21.0919 29.0115 22.214 28.4157 22.482 28.2559C22.5836 28.1953 22.7545 28.0871 22.8617 28.0153C23.3484 27.6896 23.5036 27.5827 23.5321 27.5537C23.549 27.5366 23.6071 27.4904 23.6613 27.451C23.7154 27.4117 23.766 27.3716 23.7738 27.3619C23.7815 27.3522 23.8321 27.3122 23.8863 27.2731C23.9404 27.234 23.991 27.1941 23.9988 27.1844C24.0065 27.1747 24.0571 27.1347 24.1113 27.0956C24.1654 27.0565 24.2287 27.0033 24.2519 26.9773C24.2751 26.9514 24.3384 26.898 24.3925 26.8587C24.4467 26.8195 24.5226 26.753 24.5613 26.7111C24.5999 26.6691 24.6759 26.6021 24.73 26.5622C24.8582 26.4676 26.0454 25.2189 26.1353 25.0842C26.1733 25.0272 26.237 24.9473 26.2769 24.9067C26.3168 24.866 26.38 24.7861 26.4173 24.7292C26.4546 24.6722 26.5054 24.6057 26.5301 24.5813C26.5547 24.5569 26.6053 24.4903 26.6425 24.4334C26.6797 24.3764 26.7177 24.3232 26.7269 24.3151C26.7362 24.3069 26.7741 24.2537 26.8113 24.1967C26.8485 24.1398 26.8868 24.0865 26.8964 24.0784C26.9061 24.0703 26.9693 23.9771 27.0369 23.8713C27.1045 23.7656 27.1742 23.6637 27.1919 23.6448C27.2096 23.6259 27.266 23.5394 27.3174 23.4525C27.3687 23.3656 27.4625 23.2089 27.5259 23.1043C27.7144 22.793 27.8352 22.5585 28.1438 21.9042C28.5683 21.0045 28.6937 20.6892 28.95 19.878C29.0785 19.4713 29.1439 19.2487 29.1757 19.1089C29.2043 18.9837 29.2477 18.7981 29.2881 18.6282C29.3045 18.5591 29.3298 18.4392 29.3444 18.362C29.3588 18.2847 29.384 18.1516 29.4001 18.0662C29.4163 17.9807 29.4416 17.8343 29.4564 17.7408C29.4712 17.6472 29.4965 17.4875 29.5128 17.3858C29.5612 17.0835 29.5978 16.6912 29.6129 16.3135C29.6207 16.1183 29.6391 15.9459 29.6536 15.9304C29.6886 15.8933 29.6887 14.3378 29.6537 14.3005C29.6392 14.2851 29.6208 14.126 29.6129 13.9471C29.5972 13.5909 29.5588 13.192 29.5128 12.9043C29.4965 12.8027 29.4712 12.6429 29.4564 12.5494C29.4416 12.4558 29.4163 12.3094 29.4001 12.224C29.384 12.1386 29.3588 12.0055 29.3444 11.9282C29.3298 11.8509 29.3051 11.7344 29.2894 11.6693C29.236 11.4484 29.2046 11.3146 29.1783 11.1961C29.1133 10.9024 28.8125 9.95302 28.6629 9.56913C28.3709 8.82006 27.8339 7.69443 27.5259 7.18579C27.4625 7.08119 27.3687 6.9245 27.3174 6.83759C27.266 6.75072 27.2096 6.66419 27.1919 6.64532C27.1742 6.62648 27.1045 6.52454 27.0369 6.41879C26.9693 6.31304 26.9061 6.21986 26.8964 6.21173C26.8868 6.20359 26.8485 6.15035 26.8113 6.0934C26.7741 6.03646 26.7362 5.98322 26.7269 5.97508C26.7177 5.96695 26.6797 5.9137 26.6425 5.85676C26.6053 5.79982 26.5547 5.73326 26.5301 5.70886C26.5054 5.68445 26.4546 5.6179 26.4173 5.56095C26.38 5.50401 26.3168 5.42414 26.2769 5.38347C26.237 5.3428 26.1733 5.26293 26.1353 5.20599C26.0454 5.07122 24.8582 3.82256 24.73 3.72796C24.6759 3.688 24.5999 3.621 24.5613 3.57905C24.5226 3.53711 24.4467 3.47067 24.3925 3.43142C24.3384 3.39213 24.2751 3.33877 24.2519 3.31283C24.2287 3.28689 24.1654 3.23364 24.1113 3.19453C24.0571 3.1554 24.0065 3.11547 23.9988 3.10576C23.991 3.09606 23.9404 3.05613 23.8863 3.01702C23.8321 2.97792 23.7815 2.93798 23.7738 2.92828C23.766 2.91858 23.7154 2.87844 23.6613 2.83909C23.6071 2.79972 23.549 2.75352 23.5321 2.73639C23.5036 2.70746 23.3484 2.60059 22.8617 2.27481C22.7545 2.20308 22.5836 2.09482 22.482 2.03421C22.214 1.87441 21.0919 1.2786 20.9681 1.23032C20.8675 1.19104 20.7454 1.14022 20.4198 1.00202C20.1657 0.89414 19.2591 0.582893 19.0417 0.528879C18.9837 0.514473 18.8856 0.489359 18.8237 0.47309C18.7618 0.456821 18.6574 0.42937 18.5917 0.412065C18.5259 0.39479 18.4088 0.367724 18.3315 0.351957C18.2542 0.336191 18.1339 0.31084 18.0643 0.295606C17.7658 0.230322 17.6167 0.201777 17.4315 0.174533C17.057 0.119454 16.7271 0.0855545 16.419 0.0704684C16.2488 0.0621562 16.0976 0.0428401 16.0829 0.0275765C16.0475 -0.00919217 14.5123 -0.00919217 14.4769 0.0275765Z" fill="black"/>
</svg>
