<svg width="30" height="31" viewBox="0 0 30 31" fill="none" xmlns="http://www.w3.org/2000/svg">
<path fill-rule="evenodd" clip-rule="evenodd" d="M14.1636 0.0275765C14.1483 0.0428401 13.9907 0.0621562 13.8135 0.0704684C13.4607 0.0870335 13.0656 0.127322 12.7807 0.175746C12.68 0.192843 12.5218 0.219555 12.4292 0.235084C12.3365 0.250614 12.1915 0.277237 12.1069 0.294246C12.0223 0.311255 11.8905 0.33767 11.8139 0.352904C11.6842 0.378757 11.5937 0.400351 11.3159 0.471729C11.2555 0.487259 11.1533 0.512373 11.0888 0.527518C10.798 0.595909 9.85769 0.912303 9.47747 1.06967C8.73558 1.37678 7.62073 1.94156 7.11696 2.2655C7.01337 2.33211 6.85818 2.43079 6.7721 2.48478C6.68606 2.53879 6.60036 2.59816 6.58167 2.61674C6.56301 2.63531 6.46205 2.70867 6.35731 2.77979C6.25257 2.85087 6.16029 2.91734 6.15223 2.92748C6.14418 2.93763 6.09144 2.97792 6.03504 3.01702C5.97865 3.05613 5.92591 3.09606 5.91785 3.10576C5.9098 3.11547 5.85706 3.1554 5.80066 3.19453C5.74427 3.23364 5.67835 3.28689 5.65418 3.31283C5.63001 3.33877 5.56409 3.39213 5.50769 3.43142C5.45129 3.47067 5.37219 3.53711 5.33191 3.57905C5.29162 3.621 5.21252 3.688 5.15612 3.72796C5.02265 3.82256 3.78595 5.07122 3.69226 5.20599C3.65268 5.26293 3.58632 5.3428 3.54477 5.38347C3.50323 5.42414 3.43743 5.50401 3.39855 5.56095C3.35964 5.6179 3.30679 5.68445 3.2811 5.70886C3.2554 5.73326 3.20267 5.79982 3.16394 5.85676C3.12518 5.9137 3.08563 5.96695 3.07602 5.97508C3.06641 5.98322 3.02686 6.03646 2.98813 6.0934C2.94939 6.15035 2.90949 6.20359 2.89944 6.21173C2.88939 6.21986 2.82356 6.31304 2.75316 6.41879C2.68273 6.52454 2.61007 6.62648 2.59167 6.64532C2.57328 6.66419 2.51448 6.75072 2.46098 6.83759C2.40751 6.9245 2.30978 7.08119 2.2438 7.18579C2.04742 7.49712 1.92162 7.73167 1.60011 8.3859C1.312 8.97216 1.20275 9.21191 1.0577 9.57652C1.02371 9.66192 0.969952 9.79503 0.938194 9.87233C0.857949 10.0678 0.574703 10.9696 0.522466 11.1961C0.507466 11.2611 0.483207 11.361 0.468559 11.4179C0.411429 11.6401 0.375833 11.7937 0.348586 11.9356C0.332971 12.0169 0.306838 12.15 0.29049 12.2314C0.274171 12.3127 0.248214 12.4558 0.232833 12.5494C0.217452 12.6429 0.190996 12.8027 0.174062 12.9043C0.126103 13.192 0.0861999 13.5909 0.0697934 13.9471C0.0615609 14.126 0.0424298 14.2851 0.0273124 14.3005C-0.00910413 14.3377 -0.00910413 15.9524 0.0273124 15.9896C0.0424298 16.005 0.0615609 16.1641 0.0697934 16.3431C0.0861999 16.6993 0.126103 17.0982 0.174062 17.3858C0.190996 17.4875 0.217452 17.6472 0.232833 17.7408C0.248214 17.8343 0.274171 17.9774 0.29049 18.0588C0.306838 18.1401 0.332971 18.2732 0.348586 18.3546C0.375013 18.4922 0.395491 18.5803 0.467211 18.8648C0.482592 18.9259 0.507466 19.029 0.522466 19.0941C0.576285 19.3274 0.859121 20.2256 0.941651 20.4252C0.975255 20.5066 1.02905 20.6397 1.06113 20.721C1.3289 21.3997 1.92036 22.5916 2.2438 23.1043C2.30978 23.2089 2.40751 23.3656 2.46098 23.4525C2.51448 23.5394 2.57328 23.6259 2.59167 23.6448C2.61007 23.6637 2.68273 23.7656 2.75316 23.8713C2.82356 23.9771 2.88939 24.0703 2.89944 24.0784C2.90949 24.0865 2.94939 24.1398 2.98813 24.1967C3.02686 24.2537 3.06641 24.3069 3.07602 24.3151C3.08563 24.3232 3.12518 24.3764 3.16394 24.4334C3.20267 24.4903 3.2554 24.5569 3.2811 24.5813C3.30679 24.6057 3.35964 24.6722 3.39855 24.7292C3.43743 24.7861 3.50323 24.866 3.54477 24.9067C3.58632 24.9473 3.65268 25.0272 3.69226 25.0842C3.78595 25.2189 5.02265 26.4676 5.15612 26.5622C5.21252 26.6021 5.29162 26.6691 5.33191 26.7111C5.37219 26.753 5.45129 26.8195 5.50769 26.8587C5.56409 26.898 5.63001 26.9514 5.65418 26.9773C5.67835 27.0033 5.74427 27.0565 5.80066 27.0956C5.85706 27.1347 5.9098 27.1747 5.91785 27.1844C5.92591 27.1941 5.97865 27.234 6.03504 27.2731C6.09144 27.3122 6.14418 27.3525 6.15223 27.3627C6.16029 27.3728 6.25257 27.4393 6.35731 27.5104C6.46205 27.5815 6.56301 27.6548 6.58167 27.6734C6.60036 27.692 6.68606 27.7513 6.7721 27.8054C6.85818 27.8593 7.01337 27.958 7.11696 28.0246C7.42532 28.2229 7.65761 28.3499 8.30558 28.6746C9.19675 29.121 9.50894 29.2529 10.3124 29.5225C10.7152 29.6576 10.9357 29.7264 11.0742 29.7599C11.1981 29.79 11.382 29.8356 11.5503 29.8781C11.7317 29.9239 12.1547 30.0091 12.4292 30.0551C12.5218 30.0706 12.68 30.0973 12.7807 30.1144C13.0656 30.1628 13.4607 30.2031 13.8135 30.2197C13.9907 30.228 14.1483 30.2473 14.1636 30.2626C14.1793 30.2783 14.4931 30.2903 14.8877 30.2903C15.546 30.2903 15.5855 30.2872 15.6142 30.2331C15.6348 30.1943 15.6446 28.4338 15.6446 24.7505C15.6446 19.5471 15.6424 19.3231 15.5914 19.2765C15.5444 19.2336 15.4116 19.227 14.4561 19.2202L13.374 19.2124V17.3045V15.3965L14.4715 15.3888C15.1798 15.3837 15.5799 15.3701 15.5995 15.3503C15.6193 15.3304 15.6365 14.7548 15.6487 13.7016C15.6662 12.1991 15.6804 11.917 15.7583 11.5214C15.8817 10.8948 16.1164 10.313 16.4429 9.82435C16.7941 9.29882 17.437 8.79317 18.0455 8.56374C18.1107 8.53913 18.2202 8.49727 18.2886 8.47071C18.3571 8.44417 18.4593 8.41149 18.5157 8.39812C18.5721 8.38475 18.6776 8.35907 18.7501 8.34103C19.3414 8.19395 19.4802 8.18614 21.5626 8.18239L23.5402 8.17884V10.0868V11.9947L22.3243 12.0115C21.5926 12.0216 21.0618 12.0411 20.9913 12.0605C20.6799 12.1462 20.5901 12.1901 20.4626 12.3188C20.2145 12.5692 20.1819 12.7963 20.1755 14.3168L20.171 15.3669L21.8449 15.3746C23.1365 15.3804 23.5251 15.3906 23.5464 15.4189C23.5743 15.456 23.5558 15.8007 23.496 16.3579C23.4794 16.5124 23.4531 16.7653 23.4376 16.9199C23.4221 17.0745 23.3958 17.3274 23.379 17.4819C23.3623 17.6365 23.3359 17.8894 23.3204 18.044C23.278 18.4676 23.2374 18.8371 23.2117 19.0349L23.1886 19.2124L21.6798 19.2272L20.171 19.242L20.1636 24.2689C20.1582 27.926 20.165 29.3013 20.1887 29.3161C20.2194 29.3353 20.3042 29.3079 20.6617 29.1632C20.7463 29.1289 20.8649 29.0824 20.9253 29.0598C21.0542 29.0115 22.223 28.4157 22.5022 28.2559C22.6081 28.1953 22.7861 28.0871 22.8977 28.0153C23.4047 27.6896 23.5664 27.5827 23.5961 27.5537C23.6137 27.5366 23.6742 27.4904 23.7306 27.451C23.787 27.4117 23.8397 27.3716 23.8478 27.3619C23.8558 27.3522 23.9086 27.3122 23.965 27.2731C24.0214 27.234 24.0741 27.1941 24.0822 27.1844C24.0902 27.1747 24.143 27.1347 24.1994 27.0956C24.2558 27.0565 24.3217 27.0033 24.3458 26.9773C24.37 26.9514 24.4359 26.898 24.4923 26.8587C24.5487 26.8195 24.6278 26.753 24.6681 26.7111C24.7084 26.6691 24.7875 26.6021 24.8439 26.5622C24.9774 26.4676 26.2141 25.2189 26.3078 25.0842C26.3473 25.0272 26.4137 24.9473 26.4552 24.9067C26.4968 24.866 26.5626 24.7861 26.6015 24.7292C26.6404 24.6722 26.6932 24.6057 26.7189 24.5813C26.7446 24.5569 26.7974 24.4903 26.8361 24.4334C26.8748 24.3764 26.9144 24.3232 26.924 24.3151C26.9336 24.3069 26.9732 24.2537 27.0119 24.1967C27.0506 24.1398 27.0905 24.0865 27.1006 24.0784C27.1106 24.0703 27.1765 23.9771 27.2469 23.8713C27.3173 23.7656 27.3899 23.6637 27.4083 23.6448C27.4267 23.6259 27.4855 23.5394 27.539 23.4525C27.5925 23.3656 27.6902 23.2089 27.7562 23.1043C27.9526 22.793 28.0784 22.5585 28.3999 21.9042C28.8421 21.0045 28.9728 20.6892 29.2397 19.878C29.3736 19.4713 29.4416 19.2487 29.4749 19.1089C29.5046 18.9837 29.5498 18.7981 29.5919 18.6282C29.609 18.5591 29.6354 18.4392 29.6505 18.362C29.6656 18.2847 29.6917 18.1516 29.7086 18.0662C29.7254 17.9807 29.7518 17.8343 29.7672 17.7408C29.7826 17.6472 29.809 17.4875 29.826 17.3858C29.8764 17.0835 29.9145 16.6912 29.9303 16.3135C29.9384 16.1183 29.9575 15.9459 29.9726 15.9304C30.0091 15.8933 30.0092 14.3378 29.9727 14.3005C29.9576 14.2851 29.9385 14.126 29.9302 13.9471C29.9138 13.5909 29.8739 13.192 29.826 12.9043C29.809 12.8027 29.7826 12.6429 29.7672 12.5494C29.7518 12.4558 29.7254 12.3094 29.7086 12.224C29.6917 12.1386 29.6656 12.0055 29.6505 11.9282C29.6354 11.8509 29.6096 11.7344 29.5932 11.6693C29.5376 11.4484 29.5049 11.3146 29.4776 11.1961C29.4098 10.9024 29.0965 9.95302 28.9406 9.56913C28.6364 8.82006 28.0771 7.69443 27.7562 7.18579C27.6902 7.08119 27.5925 6.9245 27.539 6.83759C27.4855 6.75072 27.4267 6.66419 27.4083 6.64532C27.3899 6.62648 27.3173 6.52454 27.2469 6.41879C27.1765 6.31304 27.1106 6.21986 27.1006 6.21173C27.0905 6.20359 27.0506 6.15035 27.0119 6.0934C26.9732 6.03646 26.9336 5.98322 26.924 5.97508C26.9144 5.96695 26.8748 5.9137 26.8361 5.85676C26.7974 5.79982 26.7446 5.73326 26.7189 5.70886C26.6932 5.68445 26.6404 5.6179 26.6015 5.56095C26.5626 5.50401 26.4968 5.42414 26.4552 5.38347C26.4137 5.3428 26.3473 5.26293 26.3078 5.20599C26.2141 5.07122 24.9774 3.82256 24.8439 3.72796C24.7875 3.688 24.7084 3.621 24.6681 3.57905C24.6278 3.53711 24.5487 3.47067 24.4923 3.43142C24.4359 3.39213 24.37 3.33877 24.3458 3.31283C24.3217 3.28689 24.2558 3.23364 24.1994 3.19453C24.143 3.1554 24.0902 3.11547 24.0822 3.10576C24.0741 3.09606 24.0214 3.05613 23.965 3.01702C23.9086 2.97792 23.8558 2.93798 23.8478 2.92828C23.8397 2.91858 23.787 2.87844 23.7306 2.83909C23.6742 2.79972 23.6137 2.75352 23.5961 2.73639C23.5664 2.70746 23.4047 2.60059 22.8977 2.27481C22.7861 2.20308 22.6081 2.09482 22.5022 2.03421C22.223 1.87441 21.0542 1.2786 20.9253 1.23032C20.8204 1.19104 20.6932 1.14022 20.3541 1.00202C20.0894 0.89414 19.145 0.582893 18.9185 0.528879C18.8581 0.514473 18.7559 0.489359 18.6915 0.47309C18.627 0.456821 18.5182 0.42937 18.4498 0.412065C18.3813 0.39479 18.2593 0.367724 18.1788 0.351957C18.0982 0.336191 17.973 0.31084 17.9004 0.295606C17.5895 0.230322 17.4342 0.201777 17.2413 0.174533C16.8512 0.119454 16.5075 0.0855545 16.1866 0.0704684C16.0093 0.0621562 15.8518 0.0428401 15.8364 0.0275765C15.7996 -0.00919217 14.2004 -0.00919217 14.1636 0.0275765Z" fill="#2ECC71"/>
</svg>
