<svg width="30" height="31" viewBox="0 0 30 31" fill="none" xmlns="http://www.w3.org/2000/svg">
<path fill-rule="evenodd" clip-rule="evenodd" d="M13.8844 0.0276651C13.8697 0.0429286 13.7185 0.0620967 13.5483 0.0702313C13.2369 0.0851694 12.9378 0.119009 12.6132 0.17607C12.5165 0.193049 12.3646 0.219642 12.2757 0.235172C12.1867 0.250701 12.0475 0.277324 11.9663 0.294332C11.8851 0.311341 11.7585 0.337756 11.685 0.35299C11.6115 0.368254 11.5008 0.394255 11.4389 0.41082C11.3771 0.427355 11.2758 0.453297 11.2139 0.468443C10.9944 0.52222 9.82019 0.918006 9.61783 1.00642C9.54434 1.03852 9.41778 1.09268 9.33658 1.12681C9.17911 1.19293 8.39242 1.57818 8.27485 1.64672C8.23618 1.66929 8.10329 1.74232 7.97954 1.80906C7.59723 2.01517 6.42683 2.78157 6.36234 2.86797C6.35461 2.87836 6.30398 2.91882 6.24984 2.95793C6.1957 2.99703 6.14507 3.03697 6.13734 3.04667C6.1296 3.05637 6.07898 3.09631 6.02484 3.13544C5.9707 3.17455 5.90742 3.22779 5.88421 3.25373C5.86101 3.27968 5.79773 3.33304 5.74359 3.37232C5.68945 3.41157 5.61351 3.47801 5.57483 3.51996C5.53616 3.5619 5.46022 3.62887 5.40608 3.66878C5.35194 3.70871 5.17931 3.87631 5.02246 4.04119C4.8656 4.2061 4.69961 4.36442 4.65359 4.39299C4.60758 4.42157 4.54773 4.48451 4.52059 4.53285C4.49345 4.58121 4.35558 4.74246 4.21422 4.89121C4.07286 5.03997 3.92614 5.20826 3.88819 5.2652C3.85023 5.32214 3.78658 5.40201 3.7467 5.44268C3.70681 5.48336 3.64365 5.56322 3.60632 5.62016C3.56897 5.67711 3.51824 5.74366 3.49357 5.76807C3.4689 5.79247 3.41828 5.85903 3.3811 5.91597C3.34389 5.97291 3.30592 6.02616 3.29669 6.03429C3.28747 6.04243 3.2495 6.09567 3.21232 6.15261C3.17514 6.20955 3.13666 6.2628 3.12679 6.27093C3.09391 6.29809 2.65392 7.00187 2.47637 7.31137C2.103 7.9621 1.69792 8.80364 1.4714 9.39906C1.43888 9.48446 1.38733 9.61757 1.35681 9.69487C1.27275 9.9077 0.896432 11.1427 0.8453 11.3736C0.8309 11.4386 0.806234 11.5451 0.790512 11.6102C0.774762 11.6753 0.75004 11.7917 0.735527 11.869C0.721043 11.9463 0.695927 12.0794 0.679755 12.1648C0.663583 12.2502 0.63827 12.3966 0.623505 12.4902C0.608739 12.5838 0.583454 12.7435 0.567311 12.8452C0.513057 13.1867 0.480882 13.5012 0.466679 13.8287C0.458944 14.0077 0.440719 14.1667 0.426206 14.1822C0.391134 14.2195 0.391134 16.0706 0.426206 16.1079C0.440719 16.1233 0.458944 16.2824 0.466679 16.4614C0.480882 16.789 0.513057 17.1035 0.567311 17.4449C0.583454 17.5466 0.608739 17.7063 0.623505 17.7999C0.63827 17.8935 0.663583 18.0399 0.679755 18.1253C0.695927 18.2107 0.721043 18.3438 0.735527 18.4211C0.75004 18.4983 0.775353 18.6182 0.791778 18.6873C0.808231 18.7564 0.832897 18.863 0.846594 18.924C0.898035 19.153 1.27548 20.3894 1.35681 20.5952C1.38733 20.6725 1.43885 20.8056 1.47131 20.891C1.61107 21.2588 1.8825 21.854 2.14238 22.3627C2.39491 22.8569 3.04598 23.9525 3.12679 24.0192C3.13666 24.0273 3.17514 24.0806 3.21232 24.1375C3.2495 24.1944 3.28747 24.2477 3.29669 24.2558C3.30592 24.264 3.34389 24.3172 3.3811 24.3741C3.41828 24.4311 3.4689 24.4976 3.49357 24.522C3.51824 24.5464 3.56897 24.613 3.60632 24.6699C3.64365 24.7269 3.70681 24.8068 3.7467 24.8474C3.78658 24.8881 3.84997 24.9675 3.88763 25.0239C4.02899 25.2357 5.20566 26.4733 5.40701 26.6219C5.46065 26.6615 5.53616 26.7282 5.57483 26.7702C5.61351 26.8121 5.68945 26.8785 5.74359 26.9178C5.79773 26.9571 5.86101 27.0104 5.88421 27.0364C5.90742 27.0623 5.9707 27.1156 6.02484 27.1547C6.07898 27.1938 6.1296 27.2337 6.13734 27.2434C6.14507 27.2531 6.1957 27.2931 6.24984 27.3322C6.30398 27.3713 6.35461 27.4118 6.36234 27.4221C6.39066 27.4601 7.06117 27.9209 7.40297 28.1374C7.74258 28.3524 9.00926 29.0351 9.22425 29.1189C9.28216 29.1415 9.39916 29.1896 9.48424 29.2258C9.75103 29.3394 10.9843 29.765 11.2069 29.8203C11.2649 29.8347 11.3662 29.8607 11.4319 29.878C11.4976 29.8952 11.6115 29.9219 11.685 29.9371C11.7585 29.9524 11.8851 29.9788 11.9663 29.9958C12.0475 30.0128 12.1867 30.0394 12.2757 30.0549C12.3646 30.0705 12.5165 30.0971 12.6132 30.114C12.9378 30.1711 13.2369 30.2049 13.5483 30.2199C13.7185 30.228 13.8697 30.2472 13.8844 30.2624C13.9199 30.2993 15.6799 30.2993 15.7154 30.2624C15.7301 30.2472 15.8813 30.228 16.0515 30.2199C16.3629 30.2049 16.662 30.1711 16.9866 30.114C17.0833 30.0971 17.2352 30.0705 17.3241 30.0549C17.5894 30.0086 17.9978 29.9229 18.1609 29.8793C18.2227 29.8628 18.324 29.8368 18.3859 29.8217C18.6054 29.7679 19.7796 29.3721 19.982 29.2837C20.0554 29.2516 20.182 29.1974 20.2632 29.1633C20.6129 29.0163 21.1788 28.7308 21.6625 28.4575C22.1324 28.1919 23.174 27.5071 23.2375 27.4221C23.2452 27.4118 23.2958 27.3713 23.35 27.3322C23.4041 27.2931 23.4547 27.2531 23.4625 27.2434C23.4702 27.2337 23.5208 27.1938 23.575 27.1547C23.6291 27.1156 23.6924 27.0623 23.7156 27.0364C23.7388 27.0104 23.8021 26.9571 23.8562 26.9178C23.9104 26.8785 23.9863 26.8121 24.025 26.7702C24.0636 26.7282 24.1396 26.6613 24.1937 26.6213C24.2479 26.5814 24.4079 26.4271 24.5493 26.2784C24.6908 26.1298 24.8441 25.9848 24.89 25.9562C24.936 25.9277 24.9959 25.8647 25.023 25.8163C25.0502 25.7679 25.2007 25.5934 25.3575 25.4284C25.5143 25.2634 25.6736 25.0819 25.7116 25.0249C25.7496 24.968 25.8132 24.8881 25.8531 24.8474C25.893 24.8068 25.9562 24.7269 25.9935 24.6699C26.0308 24.613 26.0816 24.5464 26.1062 24.522C26.1309 24.4976 26.1815 24.4311 26.2187 24.3741C26.2559 24.3172 26.2939 24.264 26.3031 24.2558C26.3123 24.2477 26.3503 24.1944 26.3875 24.1375C26.4247 24.0806 26.4631 24.0273 26.473 24.0192C26.5552 23.9513 27.2839 22.7204 27.4798 22.3183C27.5433 22.1881 27.6127 22.0484 27.6342 22.0077C27.6994 21.8841 28.0657 21.0567 28.1285 20.891C28.161 20.8056 28.2125 20.6725 28.243 20.5952C28.3243 20.3894 28.7018 19.153 28.7532 18.924C28.7669 18.863 28.7916 18.7564 28.808 18.6873C28.8245 18.6182 28.8502 18.495 28.8652 18.4137C28.8802 18.3323 28.9053 18.1992 28.9209 18.1179C28.9366 18.0365 28.9615 17.8935 28.9763 17.7999C28.9911 17.7063 29.0164 17.5466 29.0325 17.4449C29.0867 17.1035 29.1189 16.789 29.1331 16.4614C29.1409 16.2824 29.1591 16.1233 29.1736 16.1079C29.2087 16.0706 29.2087 14.2195 29.1736 14.1822C29.1591 14.1668 29.1409 14.0077 29.1331 13.8287C29.1189 13.5012 29.0867 13.1867 29.0325 12.8452C29.0164 12.7435 28.9911 12.5838 28.9763 12.4902C28.9615 12.3966 28.9362 12.2502 28.9201 12.1648C28.9039 12.0794 28.8788 11.9463 28.8643 11.869C28.8498 11.7917 28.825 11.6753 28.8093 11.6102C28.7936 11.5451 28.7689 11.4386 28.7545 11.3736C28.7034 11.1427 28.3271 9.9077 28.243 9.69487C28.2125 9.61757 28.1609 9.48446 28.1285 9.39906C27.9887 9.03132 27.7173 8.43607 27.4574 7.92744C27.2049 7.43321 26.5538 6.33764 26.473 6.27093C26.4631 6.2628 26.4247 6.20955 26.3875 6.15261C26.3503 6.09567 26.3123 6.04243 26.3031 6.03429C26.2939 6.02616 26.2559 5.97291 26.2187 5.91597C26.1815 5.85903 26.1309 5.79247 26.1062 5.76807C26.0816 5.74366 26.0308 5.67711 25.9935 5.62016C25.9562 5.56322 25.893 5.48336 25.8531 5.44268C25.8132 5.40201 25.7497 5.32214 25.7119 5.2652C25.6741 5.20826 25.5352 5.04852 25.4031 4.91024C25.2711 4.77195 25.132 4.61221 25.0942 4.55527C25.0086 4.42671 24.991 4.40814 24.8687 4.31818C24.8146 4.27834 24.6627 4.13212 24.5312 3.99324C24.3997 3.85436 24.2479 3.70824 24.1937 3.66848C24.1396 3.62872 24.0636 3.5619 24.025 3.51996C23.9863 3.47801 23.9104 3.41157 23.8562 3.37232C23.8021 3.33304 23.7388 3.27968 23.7156 3.25373C23.6924 3.22779 23.6291 3.17455 23.575 3.13544C23.5208 3.09631 23.4702 3.05637 23.4625 3.04667C23.4547 3.03697 23.4041 2.99703 23.35 2.95793C23.2958 2.91882 23.2452 2.87836 23.2375 2.86797C23.2116 2.8334 22.5425 2.37064 22.2482 2.1839C21.6295 1.79122 20.8294 1.36517 20.2632 1.12693C20.182 1.09274 20.0554 1.03852 19.982 1.00642C19.7862 0.920875 18.6107 0.523906 18.3929 0.469803C18.3349 0.455398 18.2336 0.429456 18.1679 0.412151C17.9937 0.366361 17.5876 0.281169 17.3241 0.235172C17.2352 0.219642 17.0833 0.193049 16.9866 0.17607C16.662 0.119009 16.3629 0.0851694 16.0515 0.0702313C15.8813 0.0620967 15.7301 0.0429286 15.7154 0.0276651C15.6799 -0.00922169 13.9199 -0.00922169 13.8844 0.0276651ZM10.2311 7.41957C10.6886 7.58708 11.044 7.95089 11.1587 8.36922C11.1835 8.45976 11.2166 8.58066 11.2323 8.6379C11.2639 8.7532 11.2501 9.14875 11.208 9.33251C11.126 9.69031 10.792 10.1222 10.4614 10.2977C10.1541 10.4609 9.95106 10.5089 9.56861 10.5089C9.26419 10.5089 9.06042 10.4751 8.93017 10.4029C8.88064 10.3755 8.826 10.353 8.80867 10.353C8.75172 10.353 8.51687 10.1662 8.35152 9.98943C8.18469 9.81106 8.08504 9.63443 8.02679 9.41385C8.00854 9.34472 7.97971 9.23737 7.96272 9.17534C7.93145 9.06116 7.94028 8.83322 7.98643 8.56341C8.01678 8.38593 8.21022 7.97441 8.32151 7.85053C8.47786 7.67648 8.9383 7.39546 9.06858 7.39455C9.10385 7.39428 9.15166 7.38117 9.17486 7.36541C9.19806 7.34964 9.39424 7.33672 9.6108 7.33669C9.96965 7.33663 10.0246 7.34396 10.2311 7.41957ZM19.0327 11.6486C19.4503 11.7432 19.5125 11.7654 19.8343 11.9353C20.1918 12.1241 20.3101 12.2133 20.5818 12.499C21.0868 13.0302 21.4281 13.7568 21.5536 14.5682C21.6326 15.079 21.6406 15.3976 21.6444 18.1623L21.6484 21.0463H20.1999H18.7515L18.7333 18.4876C18.7162 16.0869 18.6997 15.5691 18.631 15.2782C18.4662 14.5802 18.2181 14.2695 17.6633 14.0663C17.5191 14.0134 17.0054 14.0051 16.855 14.0531C16.7998 14.0707 16.7178 14.097 16.6729 14.1114C16.4145 14.1944 16.0547 14.5157 15.8793 14.8202C15.6418 15.2324 15.6595 14.9787 15.6437 18.1918L15.6296 21.0463H14.153H12.6764L12.684 20.2181C12.6881 19.7626 12.6981 17.7526 12.7062 15.7515C12.7175 12.9674 12.713 12.087 12.6872 12.0023C12.6578 11.9056 12.66 11.8839 12.7045 11.8322C12.7542 11.7744 12.7902 11.7729 14.1481 11.7729C15.4045 11.7729 15.5458 11.7777 15.5922 11.8218C15.6385 11.8659 15.6437 11.9253 15.6437 12.4135C15.6437 12.8561 15.6508 12.9561 15.6826 12.9561C15.704 12.9561 15.7441 12.9195 15.7717 12.8748C15.7992 12.83 15.8424 12.7734 15.8677 12.749C15.8929 12.7246 15.9443 12.6581 15.9819 12.6011C16.0678 12.4711 16.1375 12.3975 16.2624 12.3053C16.3166 12.2654 16.3902 12.2021 16.4262 12.1646C16.5738 12.011 17.355 11.6552 17.5471 11.6541C17.5907 11.6539 17.6455 11.6405 17.6687 11.6244C17.7238 11.5861 18.8447 11.606 19.0327 11.6486ZM11.0409 11.8271C11.084 11.8772 11.087 12.2313 11.0804 16.4638L11.0733 21.0463H9.59674H8.12017L8.11294 16.4466C8.10897 13.9167 8.11173 11.8302 8.1191 11.8099C8.12956 11.781 8.44453 11.7729 9.56338 11.7729C10.9149 11.7729 10.9969 11.7759 11.0409 11.8271Z" fill="black"/>
</svg>
