<svg width="30" height="31" viewBox="0 0 30 31" fill="none" xmlns="http://www.w3.org/2000/svg">
<path fill-rule="evenodd" clip-rule="evenodd" d="M14.0464 0.0276651C14.0311 0.0429286 13.8735 0.0620967 13.6963 0.0702313C13.3718 0.0851694 13.0604 0.119009 12.7222 0.17607C12.6215 0.193049 12.4633 0.219642 12.3706 0.235172C12.2779 0.250701 12.1329 0.277324 12.0483 0.294332C11.9637 0.311341 11.8319 0.337756 11.7553 0.35299C11.6788 0.368254 11.5635 0.394255 11.499 0.41082C11.4345 0.427355 11.3291 0.453297 11.2646 0.468443C11.036 0.52222 9.8128 0.918006 9.60201 1.00642C9.52546 1.03852 9.39362 1.09268 9.30904 1.12681C9.14501 1.19293 8.32554 1.57818 8.20308 1.64672C8.16279 1.66929 8.02436 1.74232 7.89546 1.80906C7.49722 2.01517 6.27805 2.78157 6.21087 2.86797C6.20282 2.87836 6.15008 2.91882 6.09368 2.95793C6.03729 2.99703 5.98455 3.03697 5.9765 3.04667C5.96844 3.05637 5.9157 3.09631 5.85931 3.13544C5.80291 3.17455 5.73699 3.22779 5.71282 3.25373C5.68865 3.27968 5.62273 3.33304 5.56634 3.37232C5.50994 3.41157 5.43084 3.47801 5.39055 3.51996C5.35027 3.5619 5.27117 3.62887 5.21477 3.66878C5.15837 3.70871 4.97855 3.87631 4.81516 4.04119C4.65177 4.2061 4.47886 4.36442 4.43093 4.39299C4.383 4.42157 4.32065 4.48451 4.29238 4.53285C4.26411 4.58121 4.1205 4.74246 3.97325 4.89121C3.826 5.03997 3.67316 5.20826 3.63364 5.2652C3.59409 5.32214 3.52779 5.40201 3.48624 5.44268C3.4447 5.48336 3.3789 5.56322 3.34002 5.62016C3.30112 5.67711 3.24826 5.74366 3.22257 5.76807C3.19688 5.79247 3.14414 5.85903 3.10541 5.91597C3.06665 5.97291 3.0271 6.02616 3.01749 6.03429C3.00788 6.04243 2.96833 6.09567 2.9296 6.15261C2.89087 6.20955 2.85079 6.2628 2.84051 6.27093C2.80626 6.29809 2.34793 7.00187 2.16298 7.31137C1.77406 7.9621 1.3521 8.80364 1.11614 9.39906C1.08227 9.48446 1.02857 9.61757 0.996782 9.69487C0.909213 9.9077 0.517218 11.1427 0.463956 11.3736C0.448956 11.4386 0.423262 11.5451 0.406885 11.6102C0.390479 11.6753 0.364727 11.7917 0.349609 11.869C0.334522 11.9463 0.308359 12.0794 0.291513 12.1648C0.274668 12.2502 0.2483 12.3966 0.232919 12.4902C0.217538 12.5838 0.1912 12.7435 0.174384 12.8452C0.11787 13.1867 0.0843536 13.5012 0.0695586 13.8287C0.0615019 14.0077 0.0425174 14.1667 0.0274001 14.1822C-0.00913337 14.2195 -0.00913337 16.0706 0.0274001 16.1079C0.0425174 16.1233 0.0615019 16.2824 0.0695586 16.4614C0.0843536 16.789 0.11787 17.1035 0.174384 17.4449C0.1912 17.5466 0.217538 17.7063 0.232919 17.7999C0.2483 17.8935 0.274668 18.0399 0.291513 18.1253C0.308359 18.2107 0.334522 18.3438 0.349609 18.4211C0.364727 18.4983 0.391094 18.6182 0.408204 18.6873C0.425342 18.7564 0.451036 18.863 0.465304 18.924C0.518888 19.153 0.912055 20.3894 0.996782 20.5952C1.02857 20.6725 1.08224 20.8056 1.11605 20.891C1.26163 21.2588 1.54437 21.854 1.81508 22.3627C2.07814 22.8569 2.75634 23.9525 2.84051 24.0192C2.85079 24.0273 2.89087 24.0806 2.9296 24.1375C2.96833 24.1944 3.00788 24.2477 3.01749 24.2558C3.0271 24.264 3.06665 24.3172 3.10541 24.3741C3.14414 24.4311 3.19688 24.4976 3.22257 24.522C3.24826 24.5464 3.30112 24.613 3.34002 24.6699C3.3789 24.7269 3.4447 24.8068 3.48624 24.8474C3.52779 24.8881 3.59382 24.9675 3.63305 25.0239C3.7803 25.2357 5.006 26.4733 5.21574 26.6219C5.27161 26.6615 5.35027 26.7282 5.39055 26.7702C5.43084 26.8121 5.50994 26.8785 5.56634 26.9178C5.62273 26.9571 5.68865 27.0104 5.71282 27.0364C5.73699 27.0623 5.80291 27.1156 5.85931 27.1547C5.9157 27.1938 5.96844 27.2337 5.9765 27.2434C5.98455 27.2531 6.03729 27.2931 6.09368 27.3322C6.15008 27.3713 6.20282 27.4118 6.21087 27.4221C6.24038 27.4601 6.93882 27.9209 7.29487 28.1374C7.64863 28.3524 8.96808 29.0351 9.19203 29.1189C9.25235 29.1415 9.37423 29.1896 9.46285 29.2258C9.74076 29.3394 11.0254 29.765 11.2573 29.8203C11.3177 29.8347 11.4232 29.8607 11.4917 29.878C11.5601 29.8952 11.6788 29.9219 11.7553 29.9371C11.8319 29.9524 11.9637 29.9788 12.0483 29.9958C12.1329 30.0128 12.2779 30.0394 12.3706 30.0549C12.4632 30.0705 12.6214 30.0971 12.7222 30.114C13.0604 30.1711 13.3718 30.2049 13.6963 30.2199C13.8735 30.228 14.0311 30.2472 14.0464 30.2624C14.0834 30.2993 15.9166 30.2993 15.9536 30.2624C15.9689 30.2472 16.1265 30.228 16.3037 30.2199C16.6282 30.2049 16.9396 30.1711 17.2778 30.114C17.3786 30.0971 17.5367 30.0705 17.6294 30.0549C17.9057 30.0086 18.3312 29.9229 18.501 29.8793C18.5655 29.8628 18.6709 29.8368 18.7354 29.8217C18.964 29.7679 20.1872 29.3721 20.398 29.2837C20.4745 29.2516 20.6063 29.1974 20.691 29.1633C21.0552 29.0163 21.6447 28.7308 22.1485 28.4575C22.638 28.1919 23.7231 27.5071 23.7891 27.4221C23.7972 27.4118 23.8499 27.3713 23.9063 27.3322C23.9627 27.2931 24.0154 27.2531 24.0235 27.2434C24.0316 27.2337 24.0843 27.1938 24.1407 27.1547C24.1971 27.1156 24.263 27.0623 24.2872 27.0364C24.3113 27.0104 24.3773 26.9571 24.4337 26.9178C24.4901 26.8785 24.5692 26.8121 24.6094 26.7702C24.6497 26.7282 24.7288 26.6613 24.7852 26.6213C24.8416 26.5814 25.0083 26.4271 25.1556 26.2784C25.303 26.1298 25.4627 25.9848 25.5106 25.9562C25.5584 25.9277 25.6208 25.8647 25.6491 25.8163C25.6774 25.7679 25.8342 25.5934 25.9975 25.4284C26.1608 25.2634 26.3268 25.0819 26.3664 25.0249C26.4059 24.968 26.4722 24.8881 26.5138 24.8474C26.5553 24.8068 26.6211 24.7269 26.66 24.6699C26.6989 24.613 26.7517 24.5464 26.7774 24.522C26.8031 24.4976 26.8559 24.4311 26.8946 24.3741C26.9333 24.3172 26.9729 24.264 26.9825 24.2558C26.9921 24.2477 27.0317 24.1944 27.0704 24.1375C27.1091 24.0806 27.1492 24.0273 27.1595 24.0192C27.2451 23.9513 28.0041 22.7204 28.2083 22.3183C28.2744 22.1881 28.3467 22.0484 28.3691 22.0077C28.4369 21.8841 28.8185 21.0567 28.884 20.891C28.9178 20.8056 28.9714 20.6725 29.0032 20.5952C29.0879 20.3894 29.4811 19.153 29.5347 18.924C29.549 18.863 29.5747 18.7564 29.5918 18.6873C29.6089 18.6182 29.6357 18.495 29.6513 18.4137C29.6669 18.3323 29.6931 18.1992 29.7094 18.1179C29.7257 18.0365 29.7517 17.8935 29.7671 17.7999C29.7825 17.7063 29.8088 17.5466 29.8256 17.4449C29.8821 17.1035 29.9156 16.789 29.9304 16.4614C29.9385 16.2824 29.9575 16.1233 29.9726 16.1079C30.0091 16.0706 30.0091 14.2195 29.9726 14.1822C29.9575 14.1668 29.9385 14.0077 29.9304 13.8287C29.9156 13.5012 29.8821 13.1867 29.8256 12.8452C29.8088 12.7435 29.7825 12.5838 29.7671 12.4902C29.7517 12.3966 29.7253 12.2502 29.7085 12.1648C29.6916 12.0794 29.6655 11.9463 29.6504 11.869C29.6353 11.7917 29.6095 11.6753 29.5931 11.6102C29.5767 11.5451 29.551 11.4386 29.536 11.3736C29.4828 11.1427 29.0908 9.9077 29.0032 9.69487C28.9714 9.61757 28.9178 9.48446 28.8839 9.39906C28.7384 9.03132 28.4556 8.43607 28.1849 7.92744C27.9219 7.43321 27.2437 6.33764 27.1595 6.27093C27.1492 6.2628 27.1091 6.20955 27.0704 6.15261C27.0317 6.09567 26.9921 6.04243 26.9825 6.03429C26.9729 6.02616 26.9333 5.97291 26.8946 5.91597C26.8559 5.85903 26.8031 5.79247 26.7774 5.76807C26.7517 5.74366 26.6989 5.67711 26.66 5.62016C26.6211 5.56322 26.5553 5.48336 26.5138 5.44268C26.4722 5.40201 26.406 5.32214 26.3667 5.2652C26.3273 5.20826 26.1826 5.04852 26.045 4.91024C25.9075 4.77195 25.7626 4.61221 25.7232 4.55527C25.6341 4.42671 25.6157 4.40814 25.4884 4.31818C25.432 4.27834 25.2738 4.13212 25.1368 3.99324C24.9998 3.85436 24.8416 3.70824 24.7852 3.66848C24.7288 3.62872 24.6497 3.5619 24.6094 3.51996C24.5692 3.47801 24.4901 3.41157 24.4337 3.37232C24.3773 3.33304 24.3113 3.27968 24.2872 3.25373C24.263 3.22779 24.1971 3.17455 24.1407 3.13544C24.0843 3.09631 24.0316 3.05637 24.0235 3.04667C24.0154 3.03697 23.9627 2.99703 23.9063 2.95793C23.8499 2.91882 23.7972 2.87836 23.7891 2.86797C23.7622 2.8334 23.0652 2.37064 22.7587 2.1839C22.1142 1.79122 21.2807 1.36517 20.691 1.12693C20.6063 1.09274 20.4745 1.03852 20.398 1.00642C20.1941 0.920875 18.9696 0.523906 18.7427 0.469803C18.6823 0.455398 18.5768 0.429456 18.5083 0.412151C18.3269 0.366361 17.9039 0.281169 17.6294 0.235172C17.5367 0.219642 17.3786 0.193049 17.2778 0.17607C16.9396 0.119009 16.6282 0.0851694 16.3037 0.0702313C16.1265 0.0620967 15.9689 0.0429286 15.9536 0.0276651C15.9166 -0.00922169 14.0834 -0.00922169 14.0464 0.0276651ZM10.2408 7.41957C10.7174 7.58708 11.0876 7.95089 11.2071 8.36922C11.2329 8.45976 11.2674 8.58066 11.2838 8.6379C11.3167 8.7532 11.3022 9.14875 11.2584 9.33251C11.1731 9.69031 10.8251 10.1222 10.4807 10.2977C10.1606 10.4609 9.94912 10.5089 9.55074 10.5089C9.23363 10.5089 9.02137 10.4751 8.8857 10.4029C8.8341 10.3755 8.77718 10.353 8.75913 10.353C8.69981 10.353 8.45518 10.1662 8.28294 9.98943C8.10915 9.81106 8.00535 9.63443 7.94467 9.41385C7.92566 9.34472 7.89563 9.23737 7.87794 9.17534C7.84536 9.06116 7.85456 8.83322 7.90263 8.56341C7.93424 8.38593 8.13575 7.97441 8.25168 7.85053C8.41454 7.67648 8.89416 7.39546 9.02987 7.39455C9.06661 7.39428 9.11641 7.38117 9.14058 7.36541C9.16475 7.34964 9.3691 7.33672 9.59469 7.33669C9.96849 7.33663 10.0258 7.34396 10.2408 7.41957ZM19.4092 11.6486C19.8442 11.7432 19.9089 11.7654 20.2442 11.9353C20.6165 12.1241 20.7398 12.2133 21.0228 12.499C21.5489 13.0302 21.9043 13.7568 22.0351 14.5682C22.1174 15.079 22.1258 15.3976 22.1297 18.1623L22.1338 21.0463H20.625H19.1162L19.0973 18.4876C19.0795 16.0869 19.0623 15.5691 18.9907 15.2782C18.8191 14.5802 18.5606 14.2695 17.9827 14.0663C17.8325 14.0134 17.2974 14.0051 17.1408 14.0531C17.0832 14.0707 16.9979 14.097 16.9511 14.1114C16.6818 14.1944 16.307 14.5157 16.1243 14.8202C15.877 15.2324 15.8954 14.9787 15.8789 18.1918L15.8643 21.0463H14.3262H12.7881L12.7959 20.2181C12.8002 19.7626 12.8106 17.7526 12.8191 15.7515C12.8308 12.9674 12.8262 12.087 12.7993 12.0023C12.7686 11.9056 12.7709 11.8839 12.8172 11.8322C12.8691 11.7744 12.9066 11.7729 14.3211 11.7729C15.6298 11.7729 15.777 11.7777 15.8253 11.8218C15.8735 11.8659 15.8789 11.9253 15.8789 12.4135C15.8789 12.8561 15.8864 12.9561 15.9195 12.9561C15.9418 12.9561 15.9836 12.9195 16.0123 12.8748C16.041 12.83 16.086 12.7734 16.1123 12.749C16.1385 12.7246 16.1921 12.6581 16.2312 12.6011C16.3207 12.4711 16.3933 12.3975 16.5234 12.3053C16.5798 12.2654 16.6566 12.2021 16.694 12.1646C16.8478 12.011 17.6615 11.6552 17.8616 11.6541C17.9071 11.6539 17.9641 11.6405 17.9883 11.6244C18.0457 11.5861 19.2133 11.606 19.4092 11.6486ZM11.0844 11.8271C11.1293 11.8772 11.1324 12.2313 11.1255 16.4638L11.1181 21.0463H9.58004H8.04194L8.03441 16.4466C8.03028 13.9167 8.03315 11.8302 8.04083 11.8099C8.05173 11.781 8.37982 11.7729 9.54529 11.7729C10.9531 11.7729 11.0385 11.7759 11.0844 11.8271Z" fill="#2ECC71"/>
</svg>
