<svg width="30" height="31" viewBox="0 0 30 31" fill="none" xmlns="http://www.w3.org/2000/svg">
<path fill-rule="evenodd" clip-rule="evenodd" d="M15.3199 30.2901C23.2728 30.2901 29.7199 23.5094 29.7199 15.1451C29.7199 6.78067 23.2728 0 15.3199 0C7.36702 0 0.919922 6.78067 0.919922 15.1451C0.919922 23.5094 7.36702 30.2901 15.3199 30.2901Z" fill="black"/>
<path d="M7.99672 10.2885C8.02058 10.0348 7.9307 9.78404 7.7547 9.61329L5.96199 7.28871V6.94147H11.5284L15.8309 17.0983L19.6135 6.94147H24.92V7.28871L23.3872 8.87058C23.2551 8.979 23.1895 9.1572 23.2169 9.33357V20.9565C23.1895 21.1329 23.2551 21.3111 23.3872 21.4195L24.8841 23.0014V23.3486H17.3547V23.0014L18.9054 21.3809C19.0578 21.2169 19.0578 21.1687 19.0578 20.9179V11.5231L14.7463 23.31H14.1637L9.14406 11.5231V19.4229C9.10221 19.755 9.20468 20.0894 9.42193 20.3295L11.4387 22.9628V23.31H5.71997V22.9628L7.73678 20.3295C7.95244 20.089 8.04894 19.7524 7.99672 19.4229V10.2885Z" fill="#2ECC71"/>
</svg>
