<svg width="30" height="31" viewBox="0 0 30 31" fill="none" xmlns="http://www.w3.org/2000/svg">
<path fill-rule="evenodd" clip-rule="evenodd" d="M14.0464 0.0276651C14.0311 0.0429286 13.8735 0.0620967 13.6963 0.0702313C13.3718 0.0851694 13.0604 0.119009 12.7222 0.17607C12.6215 0.193049 12.4633 0.219642 12.3706 0.235172C12.2779 0.250701 12.1329 0.277324 12.0483 0.294332C11.9637 0.311341 11.8319 0.337756 11.7553 0.35299C11.6788 0.368254 11.5635 0.394255 11.499 0.41082C11.4345 0.427355 11.3291 0.453297 11.2646 0.468443C11.036 0.52222 9.8128 0.918006 9.60201 1.00642C9.52546 1.03852 9.39362 1.09274 9.30904 1.12693C8.71932 1.36517 7.88585 1.79122 7.24134 2.1839C6.9348 2.37064 6.23777 2.8334 6.21087 2.86797C6.20282 2.87836 6.15008 2.91882 6.09368 2.95793C6.03729 2.99703 5.98455 3.03697 5.9765 3.04667C5.96844 3.05637 5.9157 3.09631 5.85931 3.13544C5.80291 3.17455 5.73699 3.22779 5.71282 3.25373C5.68865 3.27968 5.62273 3.33304 5.56634 3.37232C5.50994 3.41157 5.43084 3.47801 5.39055 3.51996C5.35027 3.5619 5.27117 3.62872 5.21477 3.66848C5.15837 3.70824 5.00017 3.85436 4.86321 3.99324C4.72624 4.13212 4.56804 4.27834 4.51164 4.31818C4.38432 4.40814 4.36592 4.42671 4.27683 4.55527C4.23736 4.61221 4.09255 4.77195 3.955 4.91024C3.81745 5.04852 3.67272 5.20826 3.63334 5.2652C3.59397 5.32214 3.52779 5.40201 3.48624 5.44268C3.4447 5.48336 3.3789 5.56322 3.34002 5.62016C3.30112 5.67711 3.24826 5.74366 3.22257 5.76807C3.19688 5.79247 3.14414 5.85903 3.10541 5.91597C3.06665 5.97291 3.0271 6.02616 3.01749 6.03429C3.00788 6.04243 2.96833 6.09567 2.9296 6.15261C2.89087 6.20955 2.85076 6.2628 2.84048 6.27093C2.76597 6.3298 2.08546 7.42726 1.77664 7.9866C1.61026 8.2879 1.25764 9.04194 1.11614 9.39906C1.08227 9.48446 1.02857 9.61757 0.996782 9.69487C0.909213 9.9077 0.517218 11.1427 0.463956 11.3736C0.448956 11.4386 0.423262 11.5451 0.406885 11.6102C0.390479 11.6753 0.364727 11.7917 0.349609 11.869C0.334522 11.9463 0.308359 12.0794 0.291513 12.1648C0.274668 12.2502 0.2483 12.3966 0.232919 12.4902C0.217538 12.5838 0.1912 12.7435 0.174384 12.8452C0.11787 13.1867 0.0843536 13.5012 0.0695586 13.8287C0.0615019 14.0077 0.0425174 14.1667 0.0274001 14.1822C-0.00913337 14.2195 -0.00913337 16.0706 0.0274001 16.1079C0.0425174 16.1233 0.0615019 16.2824 0.0695586 16.4614C0.0843536 16.789 0.11787 17.1035 0.174384 17.4449C0.1912 17.5466 0.217538 17.7063 0.232919 17.7999C0.2483 17.8935 0.274668 18.0399 0.291513 18.1253C0.308359 18.2107 0.334522 18.3438 0.349609 18.4211C0.364727 18.4983 0.391094 18.6182 0.408204 18.6873C0.425342 18.7564 0.451036 18.863 0.465304 18.924C0.518888 19.153 0.912055 20.3894 0.996782 20.5952C1.02857 20.6725 1.08227 20.8056 1.11614 20.891C1.3521 21.4865 1.77406 22.328 2.16298 22.9787C2.34793 23.2882 2.80626 23.992 2.84051 24.0192C2.85079 24.0273 2.89087 24.0806 2.9296 24.1375C2.96833 24.1944 3.00788 24.2477 3.01749 24.2558C3.0271 24.264 3.06665 24.3172 3.10541 24.3741C3.14414 24.4311 3.19688 24.4976 3.22257 24.522C3.24826 24.5464 3.30112 24.613 3.34002 24.6699C3.3789 24.7269 3.4447 24.8068 3.48624 24.8474C3.52779 24.8881 3.59409 24.968 3.63364 25.0249C3.67316 25.0819 3.826 25.2501 3.97325 25.3989C4.1205 25.5477 4.26411 25.7089 4.29238 25.7573C4.32065 25.8056 4.383 25.8685 4.43093 25.8971C4.47886 25.9257 4.65177 26.084 4.81516 26.2489C4.97855 26.4138 5.15837 26.5814 5.21477 26.6213C5.27117 26.6612 5.35027 26.7282 5.39055 26.7702C5.43084 26.8121 5.50994 26.8785 5.56634 26.9178C5.62273 26.9571 5.68865 27.0104 5.71282 27.0364C5.73699 27.0623 5.80291 27.1156 5.85931 27.1547C5.9157 27.1938 5.96844 27.2337 5.9765 27.2434C5.98455 27.2531 6.03729 27.2931 6.09368 27.3322C6.15008 27.3713 6.20282 27.4118 6.21087 27.4221C6.24038 27.4601 6.93882 27.9209 7.29487 28.1374C7.64863 28.3524 8.96808 29.0351 9.19203 29.1189C9.25235 29.1415 9.37423 29.1896 9.46285 29.2258C9.74076 29.3394 11.0254 29.765 11.2573 29.8203C11.3177 29.8347 11.4232 29.8607 11.4917 29.878C11.5601 29.8952 11.6788 29.9219 11.7553 29.9371C11.8319 29.9524 11.9637 29.9788 12.0483 29.9958C12.1329 30.0128 12.2779 30.0394 12.3706 30.0549C12.4632 30.0705 12.6214 30.0971 12.7222 30.114C13.0604 30.1711 13.3718 30.2049 13.6963 30.2199C13.8735 30.228 14.0311 30.2472 14.0464 30.2624C14.0834 30.2993 15.9166 30.2993 15.9536 30.2624C15.9689 30.2472 16.1265 30.228 16.3037 30.2199C16.6282 30.2049 16.9396 30.1711 17.2778 30.114C17.3786 30.0971 17.5367 30.0705 17.6294 30.0549C17.9057 30.0086 18.3312 29.9229 18.501 29.8793C18.5655 29.8628 18.6709 29.8368 18.7354 29.8217C18.964 29.7679 20.1872 29.3721 20.398 29.2837C20.4745 29.2516 20.6063 29.1974 20.691 29.1632C21.2807 28.9249 22.1142 28.4989 22.7587 28.1062C23.0652 27.9195 23.7622 27.4567 23.7891 27.4221C23.7972 27.4118 23.8499 27.3713 23.9063 27.3322C23.9627 27.2931 24.0154 27.2531 24.0235 27.2434C24.0316 27.2337 24.0843 27.1938 24.1407 27.1547C24.1971 27.1156 24.263 27.0623 24.2872 27.0364C24.3113 27.0104 24.3773 26.9571 24.4337 26.9178C24.4901 26.8785 24.5692 26.8121 24.6094 26.7702C24.6497 26.7282 24.7288 26.6614 24.7852 26.6216C24.8416 26.5819 24.9998 26.4357 25.1368 26.2969C25.2738 26.158 25.432 26.0118 25.4884 25.9719C25.6157 25.882 25.6341 25.8634 25.7232 25.7348C25.7626 25.6779 25.9075 25.5182 26.045 25.3799C26.1826 25.2416 26.3273 25.0819 26.3667 25.0249C26.406 24.968 26.4722 24.8881 26.5138 24.8474C26.5553 24.8068 26.6211 24.7269 26.66 24.6699C26.6989 24.613 26.7517 24.5464 26.7774 24.522C26.8031 24.4976 26.8559 24.4311 26.8946 24.3741C26.9333 24.3172 26.9729 24.264 26.9825 24.2558C26.9921 24.2477 27.0317 24.1944 27.0704 24.1375C27.1091 24.0806 27.1492 24.0273 27.1595 24.0192C27.2451 23.9513 28.0041 22.7204 28.2083 22.3183C28.2744 22.1881 28.3467 22.0484 28.3691 22.0077C28.4369 21.8841 28.8185 21.0567 28.884 20.891C28.9178 20.8056 28.9714 20.6725 29.0032 20.5952C29.0879 20.3894 29.4811 19.153 29.5347 18.924C29.549 18.863 29.5747 18.7564 29.5918 18.6873C29.6089 18.6182 29.6357 18.495 29.6513 18.4137C29.6669 18.3323 29.6931 18.1992 29.7094 18.1179C29.7257 18.0365 29.7517 17.8935 29.7671 17.7999C29.7825 17.7063 29.8088 17.5466 29.8256 17.4449C29.8821 17.1035 29.9156 16.789 29.9304 16.4614C29.9385 16.2824 29.9575 16.1233 29.9726 16.1079C30.0091 16.0706 30.0091 14.2195 29.9726 14.1822C29.9575 14.1668 29.9385 14.0077 29.9304 13.8287C29.9156 13.5012 29.8821 13.1867 29.8256 12.8452C29.8088 12.7435 29.7825 12.5838 29.7671 12.4902C29.7517 12.3966 29.7253 12.2502 29.7085 12.1648C29.6916 12.0794 29.6655 11.9463 29.6504 11.869C29.6353 11.7917 29.6095 11.6753 29.5931 11.6102C29.5767 11.5451 29.551 11.4386 29.536 11.3736C29.4828 11.1427 29.0908 9.9077 29.0032 9.69487C28.9714 9.61757 28.9177 9.48446 28.8839 9.39906C28.6479 8.80364 28.2259 7.9621 27.837 7.31137C27.6521 7.00187 27.1937 6.29809 27.1595 6.27093C27.1492 6.2628 27.1091 6.20955 27.0704 6.15261C27.0317 6.09567 26.9921 6.04243 26.9825 6.03429C26.9729 6.02616 26.9333 5.97291 26.8946 5.91597C26.8559 5.85903 26.8031 5.79247 26.7774 5.76807C26.7517 5.74366 26.6989 5.67711 26.66 5.62016C26.6211 5.56322 26.5553 5.48336 26.5138 5.44268C26.4722 5.40201 26.406 5.32214 26.3667 5.2652C26.3273 5.20826 26.1826 5.04852 26.045 4.91024C25.9075 4.77195 25.7626 4.61221 25.7232 4.55527C25.6341 4.42671 25.6157 4.40814 25.4884 4.31818C25.432 4.27834 25.2738 4.13212 25.1368 3.99324C24.9998 3.85436 24.8416 3.70824 24.7852 3.66848C24.7288 3.62872 24.6497 3.5619 24.6094 3.51996C24.5692 3.47801 24.4901 3.41157 24.4337 3.37232C24.3773 3.33304 24.3113 3.27968 24.2872 3.25373C24.263 3.22779 24.1971 3.17455 24.1407 3.13544C24.0843 3.09631 24.0316 3.05637 24.0235 3.04667C24.0154 3.03697 23.9627 2.99703 23.9063 2.95793C23.8499 2.91882 23.7972 2.87836 23.7891 2.86797C23.7622 2.8334 23.0652 2.37064 22.7587 2.1839C22.1142 1.79122 21.2807 1.36517 20.691 1.12693C20.6063 1.09274 20.4745 1.03852 20.398 1.00642C20.1941 0.920875 18.9696 0.523906 18.7427 0.469803C18.6823 0.455398 18.5768 0.429456 18.5083 0.412151C18.3269 0.366361 17.9039 0.281169 17.6294 0.235172C17.5367 0.219642 17.3786 0.193049 17.2778 0.17607C16.9396 0.119009 16.6282 0.0851694 16.3037 0.0702313C16.1265 0.0620967 15.9689 0.0429286 15.9536 0.0276651C15.9166 -0.00922169 14.0834 -0.00922169 14.0464 0.0276651ZM18.6914 8.2798C18.8445 8.29385 19.0225 8.31808 19.0869 8.33358C19.359 8.39904 20.4248 9.00671 20.6668 9.2343C20.6982 9.26391 20.7512 9.28775 20.7844 9.28728C20.8176 9.2868 21.1084 9.19496 21.4307 9.08314C22.1825 8.82236 22.2301 8.80402 22.4648 8.68508C22.5728 8.63035 22.706 8.57578 22.7608 8.56377C22.8503 8.54419 22.8582 8.54756 22.8381 8.59708C22.8258 8.62737 22.809 8.67878 22.8009 8.71132C22.7834 8.78101 22.447 9.35904 22.3821 9.43092C22.3575 9.45813 22.3049 9.527 22.2652 9.58394C22.2256 9.64088 22.124 9.7574 22.0395 9.84286C21.8986 9.9854 21.7676 10.1879 21.7676 10.2631C21.7676 10.2803 21.8329 10.2939 21.9162 10.2939C22.0201 10.2939 22.222 10.2405 22.5879 10.1164C23.1098 9.93938 23.2325 9.91145 23.2325 9.96967C23.2325 10.0449 23.1015 10.2474 22.9606 10.3899C22.8761 10.4754 22.7743 10.5919 22.7343 10.6488C22.6943 10.7058 22.474 10.9417 22.2448 11.1732C22.0157 11.4046 21.7982 11.6509 21.7615 11.7204C21.7108 11.8166 21.6896 11.9211 21.6731 12.1574C21.6291 12.7864 21.5693 13.3128 21.5066 13.6217C21.49 13.703 21.4638 13.8361 21.4481 13.9175C21.4325 13.9988 21.4057 14.122 21.3886 14.1911C21.3715 14.2602 21.3443 14.37 21.3282 14.4351C21.3121 14.5002 21.2872 14.6034 21.2729 14.6644C21.2214 14.8847 20.9898 15.6256 20.917 15.8032C20.8853 15.8805 20.8317 16.0136 20.7979 16.099C20.65 16.4723 20.5224 16.7223 20.2354 17.2009C19.9996 17.594 19.9118 17.7346 19.8935 17.7481C19.8825 17.7563 19.8162 17.8494 19.7461 17.9552C19.6761 18.0609 19.6105 18.1541 19.6004 18.1623C19.5904 18.1704 19.5505 18.2236 19.5117 18.2806C19.473 18.3375 19.4203 18.4041 19.3946 18.4285C19.3689 18.4529 19.3158 18.5194 19.2767 18.5764C19.2376 18.6333 19.1324 18.7531 19.043 18.8426C18.9536 18.9321 18.8479 19.0519 18.8082 19.1088C18.7151 19.2423 18.4132 19.5471 18.2813 19.6408C18.2249 19.6808 18.1194 19.7742 18.0469 19.8483C17.9744 19.9224 17.8689 20.0153 17.8125 20.0548C17.7561 20.0942 17.7034 20.1344 17.6953 20.1441C17.6873 20.1538 17.6345 20.1938 17.5781 20.2329C17.5217 20.272 17.469 20.3124 17.461 20.3228C17.3612 20.4507 16.1957 21.1127 15.8279 21.2504C15.7673 21.273 15.6453 21.3211 15.5566 21.3572C15.2993 21.4619 14.6924 21.6611 14.4653 21.7153C14.4049 21.7297 14.2994 21.7556 14.231 21.7729C13.6369 21.9229 12.6143 22.0396 11.8945 22.0396C11.4001 22.0396 10.5266 21.9645 10.1806 21.8923C10.1001 21.8755 9.96822 21.8488 9.88766 21.833C9.80709 21.8173 9.68844 21.7908 9.62398 21.7743C9.55953 21.7577 9.45406 21.7319 9.38961 21.7169C9.20761 21.6746 8.40798 21.3996 8.23044 21.3183C8.14287 21.2782 7.97236 21.2024 7.85151 21.1498C7.22734 20.8784 6.76752 20.6291 6.76752 20.5621C6.76752 20.5186 6.95399 20.4947 7.49994 20.468C8.31326 20.4284 8.9517 20.3426 9.34566 20.2201C9.43429 20.1925 9.55294 20.1568 9.60933 20.1407C9.66573 20.1245 9.77448 20.0854 9.85104 20.0538C9.92759 20.0221 10.0594 19.9683 10.144 19.9341C10.4531 19.8093 10.6862 19.6913 11.0302 19.4857C11.4154 19.2555 11.4903 19.2009 11.4768 19.1598C11.4718 19.1448 11.343 19.0889 11.1904 19.0355C11.0379 18.9821 10.8405 18.9088 10.7519 18.8726C10.6633 18.8364 10.5398 18.7878 10.4774 18.7645C10.3035 18.6995 10.2059 18.6437 9.87969 18.4229C9.21784 17.9749 8.78966 17.4703 8.60011 16.9148C8.56255 16.8046 8.56223 16.7812 8.59794 16.7451C8.68897 16.6533 8.85921 16.625 9.32369 16.6245C9.60509 16.6243 9.78512 16.6128 9.78512 16.5951C9.78512 16.5624 9.60348 16.4644 9.49215 16.4369C9.42104 16.4194 8.87705 16.1051 8.84761 16.0646C8.83955 16.0535 8.78682 16.0124 8.73042 15.9733C8.67403 15.9342 8.60811 15.8809 8.58394 15.855C8.55977 15.829 8.49385 15.7754 8.43745 15.7359C8.38105 15.6963 8.30825 15.6371 8.27567 15.6042C8.24309 15.5713 8.18441 15.4978 8.14524 15.4409C8.10607 15.3839 8.05263 15.3174 8.02647 15.293C7.9539 15.2252 7.69468 14.8181 7.64977 14.7013C7.41692 14.096 7.30427 13.6925 7.27518 13.3597C7.25757 13.158 7.27893 13.1236 7.39864 13.1614C7.61904 13.231 8.25947 13.4284 8.3684 13.4604C8.43517 13.4799 8.5044 13.4868 8.52221 13.4757C8.57072 13.4455 8.56138 13.3592 8.50258 13.2945C8.47393 13.2629 8.41832 13.1905 8.379 13.1336C8.33969 13.0766 8.2605 12.9835 8.20308 12.9265C8.14565 12.8696 8.06655 12.7764 8.02732 12.7195C7.98809 12.6625 7.93835 12.5976 7.91681 12.5753C7.80393 12.458 7.51275 11.7842 7.43584 11.4623C7.31364 10.9507 7.31537 10.2617 7.44012 9.76142C7.4584 9.68821 7.48415 9.58172 7.4974 9.52478C7.51064 9.46784 7.54413 9.36135 7.57184 9.28813C7.70614 8.9332 7.72102 8.90359 7.76505 8.90359C7.78005 8.90359 7.95396 9.06673 8.15151 9.26613C8.34906 9.46553 8.55684 9.66159 8.61323 9.70182C8.66963 9.74202 8.80147 9.86202 8.90621 9.96848C9.01094 10.0749 9.14278 10.1944 9.19918 10.2339C9.25557 10.2735 9.32149 10.3271 9.34566 10.353C9.36983 10.379 9.43575 10.4322 9.49215 10.4713C9.54854 10.5105 9.60128 10.5507 9.60933 10.5609C9.61739 10.571 9.70968 10.6372 9.81441 10.708C9.91915 10.7787 10.0114 10.8458 10.0195 10.8569C10.058 10.9101 10.8126 11.3446 11.1633 11.5155C11.8637 11.8567 11.9435 11.8877 12.8613 12.1741C12.9499 12.2017 13.0818 12.2351 13.1543 12.2482C13.2268 12.2613 13.3454 12.2872 13.418 12.3057C13.6925 12.3759 14.2626 12.4563 14.5312 12.4627L14.751 12.468L14.7681 11.8025C14.7776 11.4364 14.8 11.0837 14.8181 11.0186C14.8361 10.9535 14.8634 10.847 14.8787 10.7819C14.9479 10.4889 15.1494 10.0634 15.3883 9.70587C15.5403 9.47848 15.8765 9.11902 16.0547 8.99348C16.1111 8.95376 16.1638 8.91305 16.1719 8.90306C16.2624 8.79086 16.8294 8.49822 17.1387 8.40412C17.2595 8.36736 17.3989 8.32494 17.4484 8.30985C17.4979 8.29474 17.6429 8.28219 17.7707 8.28196C17.8984 8.28169 18.0227 8.26799 18.0469 8.25149C18.0714 8.23475 18.1622 8.22871 18.252 8.23785C18.3406 8.24685 18.5384 8.26572 18.6914 8.2798Z" fill="#2ECC71"/>
</svg>
