<svg width="30" height="31" viewBox="0 0 30 31" fill="none" xmlns="http://www.w3.org/2000/svg">
<path fill-rule="evenodd" clip-rule="evenodd" d="M13.8446 0.0276651C13.83 0.0429286 13.6787 0.0620967 13.5085 0.0702313C13.1971 0.0851694 12.8981 0.119009 12.5734 0.17607C12.4767 0.193049 12.3248 0.219642 12.2359 0.235172C12.1469 0.250701 12.0077 0.277324 11.9265 0.294332C11.8453 0.311341 11.7187 0.337756 11.6452 0.35299C11.5717 0.368254 11.461 0.394255 11.3991 0.41082C11.3373 0.427355 11.236 0.453297 11.1741 0.468443C10.9546 0.52222 9.7804 0.918006 9.57804 1.00642C9.50455 1.03852 9.37798 1.09274 9.29679 1.12693C8.73065 1.36517 7.93052 1.79122 7.31179 2.1839C7.01752 2.37064 6.34836 2.8334 6.32255 2.86797C6.31481 2.87836 6.26419 2.91882 6.21004 2.95793C6.1559 2.99703 6.10528 3.03697 6.09754 3.04667C6.08981 3.05637 6.03918 3.09631 5.98504 3.13544C5.9309 3.17455 5.86762 3.22779 5.84442 3.25373C5.82121 3.27968 5.75793 3.33304 5.70379 3.37232C5.64965 3.41157 5.57371 3.47801 5.53504 3.51996C5.49637 3.5619 5.42043 3.62872 5.36629 3.66848C5.31215 3.70824 5.16027 3.85436 5.02879 3.99324C4.8973 4.13212 4.74542 4.27834 4.69128 4.31818C4.56905 4.40814 4.55139 4.42671 4.46586 4.55527C4.42798 4.61221 4.28895 4.77195 4.1569 4.91024C4.02486 5.04852 3.88592 5.20826 3.84812 5.2652C3.81032 5.32214 3.74678 5.40201 3.7069 5.44268C3.66702 5.48336 3.60385 5.56322 3.56653 5.62016C3.52918 5.67711 3.47844 5.74366 3.45377 5.76807C3.42911 5.79247 3.37848 5.85903 3.3413 5.91597C3.30409 5.97291 3.26612 6.02616 3.2569 6.03429C3.24767 6.04243 3.2097 6.09567 3.17252 6.15261C3.13534 6.20955 3.09684 6.2628 3.08697 6.27093C3.01544 6.3298 2.36215 7.42726 2.06568 7.9866C1.90596 8.2879 1.56745 9.04194 1.4316 9.39906C1.39909 9.48446 1.34753 9.61757 1.31702 9.69487C1.23295 9.9077 0.856637 11.1427 0.805505 11.3736C0.791105 11.4386 0.766439 11.5451 0.750717 11.6102C0.734967 11.6753 0.710245 11.7917 0.695733 11.869C0.681248 11.9463 0.656132 12.0794 0.63996 12.1648C0.623788 12.2502 0.598476 12.3966 0.58371 12.4902C0.568944 12.5838 0.54366 12.7435 0.527516 12.8452C0.473262 13.1867 0.441087 13.5012 0.426884 13.8287C0.419149 14.0077 0.400924 14.1667 0.386412 14.1822C0.351339 14.2195 0.351339 16.0706 0.386412 16.1079C0.400924 16.1233 0.419149 16.2824 0.426884 16.4614C0.441087 16.789 0.473262 17.1035 0.527516 17.4449C0.54366 17.5466 0.568944 17.7063 0.58371 17.7999C0.598476 17.8935 0.623788 18.0399 0.63996 18.1253C0.656132 18.2107 0.681248 18.3438 0.695733 18.4211C0.710245 18.4983 0.735558 18.6182 0.751983 18.6873C0.768436 18.7564 0.793102 18.863 0.806799 18.924C0.85824 19.153 1.23568 20.3894 1.31702 20.5952C1.34753 20.6725 1.39909 20.8056 1.4316 20.891C1.65812 21.4865 2.06321 22.328 2.43657 22.9787C2.61412 23.2882 3.05412 23.992 3.08699 24.0192C3.09687 24.0273 3.13534 24.0806 3.17252 24.1375C3.2097 24.1944 3.24767 24.2477 3.2569 24.2558C3.26612 24.264 3.30409 24.3172 3.3413 24.3741C3.37848 24.4311 3.42911 24.4976 3.45377 24.522C3.47844 24.5464 3.52918 24.613 3.56653 24.6699C3.60385 24.7269 3.66702 24.8068 3.7069 24.8474C3.74678 24.8881 3.81043 24.968 3.8484 25.0249C3.88634 25.0819 4.03307 25.2501 4.17443 25.3989C4.31578 25.5477 4.45365 25.7089 4.48079 25.7573C4.50794 25.8056 4.56779 25.8685 4.6138 25.8971C4.65981 25.9257 4.82581 26.084 4.98266 26.2489C5.13951 26.4138 5.31215 26.5814 5.36629 26.6213C5.42043 26.6612 5.49637 26.7282 5.53504 26.7702C5.57371 26.8121 5.64965 26.8785 5.70379 26.9178C5.75793 26.9571 5.82121 27.0104 5.84442 27.0364C5.86762 27.0623 5.9309 27.1156 5.98504 27.1547C6.03918 27.1938 6.08981 27.2337 6.09754 27.2434C6.10528 27.2531 6.1559 27.2931 6.21004 27.3322C6.26419 27.3713 6.31481 27.4118 6.32255 27.4221C6.35087 27.4601 7.02137 27.9209 7.36318 28.1374C7.70279 28.3524 8.96947 29.0351 9.18445 29.1189C9.24236 29.1415 9.35936 29.1896 9.44444 29.2258C9.71124 29.3394 10.9445 29.765 11.1671 29.8203C11.2251 29.8347 11.3264 29.8607 11.3921 29.878C11.4578 29.8952 11.5717 29.9219 11.6452 29.9371C11.7187 29.9524 11.8453 29.9788 11.9265 29.9958C12.0077 30.0128 12.1469 30.0394 12.2359 30.0549C12.3248 30.0705 12.4767 30.0971 12.5734 30.114C12.8981 30.1711 13.1971 30.2049 13.5085 30.2199C13.6787 30.228 13.83 30.2472 13.8446 30.2624C13.8801 30.2993 15.6401 30.2993 15.6756 30.2624C15.6903 30.2472 15.8415 30.228 16.0117 30.2199C16.3231 30.2049 16.6222 30.1711 16.9468 30.114C17.0435 30.0971 17.1954 30.0705 17.2843 30.0549C17.5496 30.0086 17.958 29.9229 18.1211 29.8793C18.1829 29.8628 18.2842 29.8368 18.3461 29.8217C18.5656 29.7679 19.7398 29.3721 19.9422 29.2837C20.0156 29.2516 20.1422 29.1974 20.2234 29.1632C20.7896 28.9249 21.5897 28.4989 22.2084 28.1062C22.5027 27.9195 23.1719 27.4567 23.1977 27.4221C23.2054 27.4118 23.256 27.3713 23.3102 27.3322C23.3643 27.2931 23.4149 27.2531 23.4227 27.2434C23.4304 27.2337 23.481 27.1938 23.5352 27.1547C23.5893 27.1156 23.6526 27.0623 23.6758 27.0364C23.699 27.0104 23.7623 26.9571 23.8164 26.9178C23.8706 26.8785 23.9465 26.8121 23.9852 26.7702C24.0238 26.7282 24.0998 26.6614 24.1539 26.6216C24.2081 26.5819 24.3599 26.4357 24.4914 26.2969C24.6229 26.158 24.7748 26.0118 24.8289 25.9719C24.9512 25.882 24.9688 25.8634 25.0544 25.7348C25.0922 25.6779 25.2313 25.5182 25.3633 25.3799C25.4954 25.2416 25.6343 25.0819 25.6721 25.0249C25.7099 24.968 25.7734 24.8881 25.8133 24.8474C25.8532 24.8068 25.9164 24.7269 25.9537 24.6699C25.991 24.613 26.0418 24.5464 26.0664 24.522C26.0911 24.4976 26.1417 24.4311 26.1789 24.3741C26.2161 24.3172 26.2541 24.264 26.2633 24.2558C26.2725 24.2477 26.3105 24.1944 26.3477 24.1375C26.3849 24.0806 26.4233 24.0273 26.4332 24.0192C26.5154 23.9513 27.2441 22.7204 27.44 22.3183C27.5035 22.1881 27.5729 22.0484 27.5944 22.0077C27.6596 21.8841 28.0259 21.0567 28.0887 20.891C28.1212 20.8056 28.1727 20.6725 28.2032 20.5952C28.2845 20.3894 28.662 19.153 28.7134 18.924C28.7271 18.863 28.7518 18.7564 28.7682 18.6873C28.7847 18.6182 28.8104 18.495 28.8254 18.4137C28.8404 18.3323 28.8655 18.1992 28.8812 18.1179C28.8968 18.0365 28.9217 17.8935 28.9365 17.7999C28.9513 17.7063 28.9766 17.5466 28.9927 17.4449C29.047 17.1035 29.0791 16.789 29.0933 16.4614C29.1011 16.2824 29.1193 16.1233 29.1338 16.1079C29.1689 16.0706 29.1689 14.2195 29.1338 14.1822C29.1193 14.1668 29.1011 14.0077 29.0933 13.8287C29.0791 13.5012 29.047 13.1867 28.9927 12.8452C28.9766 12.7435 28.9513 12.5838 28.9365 12.4902C28.9217 12.3966 28.8964 12.2502 28.8803 12.1648C28.8641 12.0794 28.839 11.9463 28.8245 11.869C28.81 11.7917 28.7852 11.6753 28.7695 11.6102C28.7538 11.5451 28.7291 11.4386 28.7147 11.3736C28.6636 11.1427 28.2873 9.9077 28.2032 9.69487C28.1727 9.61757 28.1211 9.48446 28.0886 9.39906C27.8621 8.80364 27.457 7.9621 27.0836 7.31137C26.9061 7.00187 26.4661 6.29809 26.4332 6.27093C26.4233 6.2628 26.3849 6.20955 26.3477 6.15261C26.3105 6.09567 26.2725 6.04243 26.2633 6.03429C26.2541 6.02616 26.2161 5.97291 26.1789 5.91597C26.1417 5.85903 26.0911 5.79247 26.0664 5.76807C26.0418 5.74366 25.991 5.67711 25.9537 5.62016C25.9164 5.56322 25.8532 5.48336 25.8133 5.44268C25.7734 5.40201 25.7099 5.32214 25.6721 5.2652C25.6343 5.20826 25.4954 5.04852 25.3633 4.91024C25.2313 4.77195 25.0922 4.61221 25.0544 4.55527C24.9688 4.42671 24.9512 4.40814 24.8289 4.31818C24.7748 4.27834 24.6229 4.13212 24.4914 3.99324C24.3599 3.85436 24.2081 3.70824 24.1539 3.66848C24.0998 3.62872 24.0238 3.5619 23.9852 3.51996C23.9465 3.47801 23.8706 3.41157 23.8164 3.37232C23.7623 3.33304 23.699 3.27968 23.6758 3.25373C23.6526 3.22779 23.5893 3.17455 23.5352 3.13544C23.481 3.09631 23.4304 3.05637 23.4227 3.04667C23.4149 3.03697 23.3643 2.99703 23.3102 2.95793C23.256 2.91882 23.2054 2.87836 23.1977 2.86797C23.1719 2.8334 22.5027 2.37064 22.2084 2.1839C21.5897 1.79122 20.7896 1.36517 20.2234 1.12693C20.1422 1.09274 20.0156 1.03852 19.9422 1.00642C19.7464 0.920875 18.5709 0.523906 18.3531 0.469803C18.2951 0.455398 18.1938 0.429456 18.1281 0.412151C17.9539 0.366361 17.5478 0.281169 17.2843 0.235172C17.1954 0.219642 17.0435 0.193049 16.9468 0.17607C16.6222 0.119009 16.3231 0.0851694 16.0117 0.0702313C15.8415 0.0620967 15.6903 0.0429286 15.6756 0.0276651C15.6401 -0.00922169 13.8801 -0.00922169 13.8446 0.0276651ZM18.3039 8.2798C18.4508 8.29385 18.6217 8.31808 18.6836 8.33358C18.9447 8.39904 19.9679 9.00671 20.2002 9.2343C20.2304 9.26391 20.2812 9.28775 20.3131 9.28728C20.345 9.2868 20.6242 9.19496 20.9336 9.08314C21.6553 8.82236 21.701 8.80402 21.9264 8.68508C22.03 8.63035 22.1579 8.57578 22.2105 8.56377C22.2964 8.54419 22.3039 8.54756 22.2846 8.59708C22.2728 8.62737 22.2568 8.67878 22.249 8.71132C22.2322 8.78101 21.9093 9.35904 21.8469 9.43092C21.8233 9.45813 21.7728 9.527 21.7347 9.58394C21.6967 9.64088 21.5991 9.7574 21.518 9.84286C21.3828 9.9854 21.257 10.1879 21.257 10.2631C21.257 10.2803 21.3197 10.2939 21.3996 10.2939C21.4994 10.2939 21.6933 10.2405 22.0445 10.1164C22.5455 9.93938 22.6633 9.91145 22.6633 9.96967C22.6633 10.0449 22.5375 10.2474 22.4023 10.3899C22.3212 10.4754 22.2234 10.5919 22.185 10.6488C22.1466 10.7058 21.9352 10.9417 21.7152 11.1732C21.4951 11.4046 21.2863 11.6509 21.2511 11.7204C21.2024 11.8166 21.1822 11.9211 21.1663 12.1574C21.1241 12.7864 21.0666 13.3128 21.0064 13.6217C20.9905 13.703 20.9653 13.8361 20.9503 13.9175C20.9353 13.9988 20.9096 14.122 20.8932 14.1911C20.8767 14.2602 20.8506 14.37 20.8352 14.4351C20.8197 14.5002 20.7958 14.6034 20.7821 14.6644C20.7326 14.8847 20.5103 15.6256 20.4404 15.8032C20.41 15.8805 20.3586 16.0136 20.3261 16.099C20.1841 16.4723 20.0616 16.7223 19.7861 17.2009C19.5597 17.594 19.4754 17.7346 19.4579 17.7481C19.4473 17.7563 19.3837 17.8494 19.3164 17.9552C19.2491 18.0609 19.1862 18.1541 19.1765 18.1623C19.1669 18.1704 19.1286 18.2236 19.0914 18.2806C19.0542 18.3375 19.0036 18.4041 18.9789 18.4285C18.9542 18.4529 18.9033 18.5194 18.8657 18.5764C18.8282 18.6333 18.7272 18.7531 18.6414 18.8426C18.5555 18.9321 18.4541 19.0519 18.416 19.1088C18.3266 19.2423 18.0368 19.5471 17.9101 19.6408C17.856 19.6808 17.7547 19.7742 17.6851 19.8483C17.6155 19.9224 17.5143 20.0153 17.4601 20.0548C17.406 20.0942 17.3554 20.1344 17.3476 20.1441C17.3399 20.1538 17.2893 20.1938 17.2351 20.2329C17.181 20.272 17.1304 20.3124 17.1226 20.3228C17.0269 20.4507 15.908 21.1127 15.5549 21.2504C15.4967 21.273 15.3796 21.3211 15.2945 21.3572C15.0475 21.4619 14.4648 21.6611 14.2468 21.7153C14.1888 21.7297 14.0875 21.7556 14.0218 21.7729C13.4515 21.9229 12.4698 22.0396 11.7788 22.0396C11.3042 22.0396 10.4656 21.9645 10.1335 21.8923C10.0562 21.8755 9.9296 21.8488 9.85226 21.833C9.77491 21.8173 9.66101 21.7908 9.59913 21.7743C9.53726 21.7577 9.43601 21.7319 9.37413 21.7169C9.19942 21.6746 8.43177 21.3996 8.26133 21.3183C8.17726 21.2782 8.01357 21.2024 7.89756 21.1498C7.29835 20.8784 6.85692 20.6291 6.85692 20.5621C6.85692 20.5186 7.03594 20.4947 7.56005 20.468C8.34084 20.4284 8.95374 20.3426 9.33194 20.2201C9.41702 20.1925 9.53093 20.1568 9.58507 20.1407C9.63921 20.1245 9.74361 20.0854 9.8171 20.0538C9.89059 20.0221 10.0172 19.9683 10.0984 19.9341C10.3951 19.8093 10.6189 19.6913 10.9491 19.4857C11.3189 19.2555 11.3908 19.2009 11.3778 19.1598C11.373 19.1448 11.2494 19.0889 11.1029 19.0355C10.9565 18.9821 10.767 18.9088 10.682 18.8726C10.5969 18.8364 10.4783 18.7878 10.4184 18.7645C10.2515 18.6995 10.1578 18.6437 9.84461 18.4229C9.20923 17.9749 8.79818 17.4703 8.61621 16.9148C8.58016 16.8046 8.57985 16.7812 8.61413 16.7451C8.70152 16.6533 8.86495 16.625 9.31085 16.6245C9.58099 16.6243 9.75382 16.6128 9.75382 16.5951C9.75382 16.5624 9.57944 16.4644 9.47257 16.4369C9.40431 16.4194 8.88208 16.1051 8.85381 16.0646C8.84608 16.0535 8.79545 16.0124 8.74131 15.9733C8.68717 15.9342 8.62389 15.8809 8.60069 15.855C8.57748 15.829 8.5142 15.7754 8.46006 15.7359C8.40592 15.6963 8.33603 15.6371 8.30475 15.6042C8.27348 15.5713 8.21714 15.4978 8.17954 15.4409C8.14194 15.3839 8.09064 15.3174 8.06552 15.293C7.99585 15.2252 7.747 14.8181 7.70389 14.7013C7.48035 14.096 7.37221 13.6925 7.34428 13.3597C7.32737 13.158 7.34788 13.1236 7.4628 13.1614C7.67438 13.231 8.2892 13.4284 8.39377 13.4604C8.45787 13.4799 8.52433 13.4868 8.54143 13.4757C8.588 13.4455 8.57903 13.3592 8.52258 13.2945C8.49508 13.2629 8.4417 13.1905 8.40395 13.1336C8.36621 13.0766 8.29018 12.9835 8.23506 12.9265C8.17993 12.8696 8.104 12.7764 8.06634 12.7195C8.02868 12.6625 7.98092 12.5976 7.96025 12.5753C7.85188 12.458 7.57235 11.7842 7.49852 11.4623C7.38121 10.9507 7.38287 10.2617 7.50262 9.76142C7.52017 9.68821 7.5449 9.58172 7.55761 9.52478C7.57032 9.46784 7.60247 9.36135 7.62907 9.28813C7.758 8.9332 7.77229 8.90359 7.81456 8.90359C7.82896 8.90359 7.99591 9.06673 8.18556 9.26613C8.37521 9.46553 8.57467 9.66159 8.62881 9.70182C8.68295 9.74202 8.80952 9.86202 8.91006 9.96848C9.01061 10.0749 9.13718 10.1944 9.19132 10.2339C9.24546 10.2735 9.30874 10.3271 9.33194 10.353C9.35515 10.379 9.41843 10.4322 9.47257 10.4713C9.52671 10.5105 9.57734 10.5507 9.58507 10.5609C9.5928 10.571 9.6814 10.6372 9.78195 10.708C9.88249 10.7787 9.97109 10.8458 9.97882 10.8569C10.0158 10.9101 10.7402 11.3446 11.0769 11.5155C11.7493 11.8567 11.8259 11.8877 12.707 12.1741C12.792 12.2017 12.9186 12.2351 12.9882 12.2482C13.0578 12.2613 13.1717 12.2872 13.2413 12.3057C13.5049 12.3759 14.0522 12.4563 14.3101 12.4627L14.521 12.468L14.5375 11.8025C14.5466 11.4364 14.5682 11.0837 14.5855 11.0186C14.6027 10.9535 14.629 10.847 14.6437 10.7819C14.7101 10.4889 14.9035 10.0634 15.1329 9.70587C15.2788 9.47848 15.6016 9.11902 15.7726 8.99348C15.8268 8.95376 15.8774 8.91305 15.8851 8.90306C15.972 8.79086 16.5163 8.49822 16.8132 8.40412C16.9293 8.36736 17.0631 8.32494 17.1106 8.30985C17.1581 8.29474 17.2973 8.28219 17.4199 8.28196C17.5426 8.28169 17.6619 8.26799 17.6851 8.25149C17.7086 8.23475 17.7958 8.22871 17.882 8.23785C17.9671 8.24685 18.1569 8.26572 18.3039 8.2798Z" fill="black"/>
</svg>
